<svg xmlns="http://www.w3.org/2000/svg" xmlns:xlink="http://www.w3.org/1999/xlink" width="500" zoomAndPan="magnify" viewBox="0 0 375 374.999991" height="500" preserveAspectRatio="xMidYMid meet" version="1.0"><defs><g/><clipPath id="4d70faebb9"><rect x="0" width="321" y="0" height="269"/></clipPath></defs><rect x="-37.5" width="450" fill="#ffffff" y="-37.499999" height="449.999989" fill-opacity="1"/><rect x="-37.5" width="450" fill="#5d0000" y="-37.499999" height="449.999989" fill-opacity="1"/><g transform="matrix(1, 0, 0, 1, 27, 55)"><g clip-path="url(#4d70faebb9)"><g fill="#ffffff" fill-opacity="1"><g transform="translate(7.833524, 126.095411)"><g><path d="M 58.203125 -97.984375 L 68.296875 -9.5 L 60.609375 -7.171875 L 49.28125 -34.921875 L 23.65625 -30.703125 L 19.234375 -6.34375 L 13.234375 -6.6875 L 1.453125 -96.890625 Z M 22.546875 -48 L 45.859375 -48.5 L 35.984375 -80.328125 L 27.25 -78.90625 Z M 22.546875 -48 "/></g></g></g><g fill="#ffffff" fill-opacity="1"><g transform="translate(78.574065, 121.549011)"><g><path d="M 69.734375 -97.71875 L 53.53125 -46.578125 L 70.03125 -11.328125 L 64.921875 -8.4375 L 28.4375 -36 L 22.046875 -6.96875 L 12.078125 -6.890625 L 2.015625 -96.9375 Z M 37.9375 -56.671875 L 48.359375 -82.6875 L 19.609375 -78.28125 L 25.359375 -55.15625 Z M 37.9375 -56.671875 "/></g></g></g><g fill="#ffffff" fill-opacity="1"><g transform="translate(160.37284, 116.291914)"><g><path d="M 69.734375 -97.71875 L 53.53125 -46.578125 L 70.03125 -11.328125 L 64.921875 -8.4375 L 28.4375 -36 L 22.046875 -6.96875 L 12.078125 -6.890625 L 2.015625 -96.9375 Z M 37.9375 -56.671875 L 48.359375 -82.6875 L 19.609375 -78.28125 L 25.359375 -55.15625 Z M 37.9375 -56.671875 "/></g></g></g><g fill="#ffffff" fill-opacity="1"><g transform="translate(242.171601, 111.034818)"><g><path d="M 54.0625 -86.890625 L 22.71875 -82.75 L 20.890625 -58.296875 L 55.921875 -57.96875 L 56.546875 -48.1875 L 24.78125 -41.890625 L 29.3125 -20.25 L 59.40625 -21.46875 L 60.8125 -10.734375 L 12.984375 -4.109375 L 1.59375 -96.90625 L 55.40625 -99.359375 Z M 54.0625 -86.890625 "/></g></g></g><g fill="#ffffff" fill-opacity="1"><g transform="translate(19.872813, 231.600769)"><g><path d="M 21.546875 -80.96875 L -0.171875 -77.859375 L 1.34375 -96.453125 L 53.546875 -99.375 L 54.40625 -86.046875 L 35.65625 -83 L 42.4375 -6.4375 L 20.3125 -5.015625 Z M 21.546875 -80.96875 "/></g></g></g><g fill="#ffffff" fill-opacity="1"><g transform="translate(77.145526, 227.919929)"><g><path d="M 58.203125 -97.984375 L 68.296875 -9.5 L 60.609375 -7.171875 L 49.28125 -34.921875 L 23.65625 -30.703125 L 19.234375 -6.34375 L 13.234375 -6.6875 L 1.453125 -96.890625 Z M 22.546875 -48 L 45.859375 -48.5 L 35.984375 -80.328125 L 27.25 -78.90625 Z M 22.546875 -48 "/></g></g></g><g fill="#ffffff" fill-opacity="1"><g transform="translate(151.855851, 223.118397)"><g><path d="M 1.71875 -103.875 L 70.9375 -74.59375 L 70.125 -32.125 L 12.78125 1.890625 Z M 18.3125 -80.46875 L 28 -22.734375 L 54.046875 -43.0625 L 54.265625 -63.703125 Z M 18.3125 -80.46875 "/></g></g></g><g fill="#ffffff" fill-opacity="1"><g transform="translate(229.401662, 218.134632)"><g><path d="M 1.171875 -96.875 L 69.78125 -101.296875 L 65.859375 -11.78125 L 15.90625 -5 Z M 29.859375 -22.6875 L 53.453125 -27.78125 L 56.078125 -82.328125 L 18.390625 -77.0625 Z M 29.859375 -22.6875 "/></g></g></g></g></g></svg>