<svg xmlns="http://www.w3.org/2000/svg" xmlns:xlink="http://www.w3.org/1999/xlink" width="500" zoomAndPan="magnify" viewBox="0 0 375 374.999991" height="500" preserveAspectRatio="xMidYMid meet" version="1.0"><defs><g/><clipPath id="416ccf7f60"><rect x="0" width="160" y="0" height="144"/></clipPath><clipPath id="3f9b34b711"><rect x="0" width="157" y="0" height="143"/></clipPath><clipPath id="f7824b26f0"><rect x="0" width="144" y="0" height="149"/></clipPath></defs><rect x="-37.5" width="450" fill="#ffffff" y="-37.499999" height="449.999989" fill-opacity="1"/><rect x="-37.5" width="450" fill="#5d0000" y="-37.499999" height="449.999989" fill-opacity="1"/><g transform="matrix(1, 0, 0, 1, 88, 31)"><g clip-path="url(#416ccf7f60)"><g fill="#ffffff" fill-opacity="1"><g transform="translate(8.508493, 108.10546)"><g><path d="M 1.109375 -91.296875 L 65.765625 -95.4375 L 62.078125 -11.09375 L 15 -4.734375 Z M 28.140625 -21.390625 L 50.359375 -26.171875 L 52.828125 -77.578125 L 17.328125 -72.625 Z M 28.140625 -21.390625 "/></g></g></g><g fill="#ffffff" fill-opacity="1"><g transform="translate(75.168003, 103.821343)"><g><path d="M 59.375 -7.046875 L 37.6875 -33.671875 L 22.65625 -6.5625 L 5.75 -4.53125 L 27.703125 -45.09375 L 5.578125 -90.78125 L 16.734375 -92.4375 L 38.5 -62.4375 L 53.796875 -93.875 L 63.46875 -93.6875 L 48.109375 -46.546875 L 76.34375 -8.140625 Z M 59.375 -7.046875 "/></g></g></g></g></g><g transform="matrix(1, 0, 0, 1, 105, 130)"><g clip-path="url(#3f9b34b711)"><g fill="#ffffff" fill-opacity="1"><g transform="translate(7.037421, 107.516676)"><g><path d="M 50.953125 -81.890625 L 21.421875 -77.96875 L 19.671875 -54.921875 L 52.703125 -54.625 L 53.296875 -45.40625 L 23.359375 -39.46875 L 27.609375 -19.078125 L 55.984375 -20.234375 L 57.296875 -10.109375 L 12.21875 -3.875 L 1.5 -91.3125 L 52.203125 -93.640625 Z M 50.953125 -81.890625 "/></g></g></g><g fill="#ffffff" fill-opacity="1"><g transform="translate(71.69357, 103.361312)"><g><path d="M 58.9375 -7.65625 L 23.140625 -55.140625 L 22.90625 -4.5625 L 15.296875 -4.078125 L 1.25 -91.171875 L 23.15625 -92.578125 L 54.5625 -37.984375 L 55.171875 -91.140625 L 62.859375 -92.578125 L 73.296875 -9.53125 Z M 58.9375 -7.65625 "/></g></g></g></g></g><g transform="matrix(1, 0, 0, 1, 125, 222)"><g clip-path="url(#f7824b26f0)"><g fill="#ffffff" fill-opacity="1"><g transform="translate(7.757832, 111.885637)"><g><path d="M 21.265625 -79.8125 L -0.15625 -76.75 L 1.328125 -95.078125 L 52.78125 -97.96875 L 53.625 -84.828125 L 35.15625 -81.828125 L 41.828125 -6.34375 L 20.015625 -4.9375 Z M 21.265625 -79.8125 "/></g></g></g><g fill="#ffffff" fill-opacity="1"><g transform="translate(71.200786, 107.808244)"><g><path d="M 53.28125 -85.65625 L 22.40625 -81.546875 L 20.578125 -57.453125 L 55.109375 -57.140625 L 55.734375 -47.5 L 24.421875 -41.28125 L 28.890625 -19.96875 L 58.5625 -21.15625 L 59.9375 -10.578125 L 12.78125 -4.046875 L 1.578125 -95.515625 L 54.609375 -97.9375 Z M 53.28125 -85.65625 "/></g></g></g></g></g></svg>