<svg xmlns="http://www.w3.org/2000/svg" xmlns:xlink="http://www.w3.org/1999/xlink" width="500" zoomAndPan="magnify" viewBox="0 0 375 374.999991" height="500" preserveAspectRatio="xMidYMid meet" version="1.0"><defs><clipPath id="49b1c0716a"><path d="M 22 31 L 354.066406 31 L 354.066406 375 L 22 375 Z M 22 31 " clip-rule="nonzero"/></clipPath><clipPath id="0b9a8411dd"><path d="M 21.066406 43 L 345 43 L 345 375 L 21.066406 375 Z M 21.066406 43 " clip-rule="nonzero"/></clipPath></defs><rect x="-37.5" width="450" fill="#ffffff" y="-37.499999" height="449.999989" fill-opacity="1"/><rect x="-37.5" width="450" fill="#5d0000" y="-37.499999" height="449.999989" fill-opacity="1"/><g clip-path="url(#49b1c0716a)"><path fill="#000000" d="M 353.398438 353.003906 C 353.726562 350.160156 354.042969 342.152344 354.042969 342.152344 C 354.042969 342.152344 352.269531 331.996094 351.113281 327.914062 C 350.335938 328.230469 349.144531 328.859375 347.796875 329.625 L 345.355469 318.410156 C 345.355469 318.410156 344.785156 302.652344 344.117188 296.589844 C 343.425781 290.183594 340.023438 281.265625 340.023438 281.265625 L 337.15625 262.273438 L 336.679688 241.375 L 331.421875 225.445312 L 328.324219 217.4375 L 327.4375 208.640625 L 324.582031 191.726562 L 310.539062 178.824219 L 295.21875 171.859375 L 287.089844 169.417969 L 283.261719 168.289062 L 281.089844 167.742188 L 278.890625 169.015625 L 278.195312 170.851562 C 277.480469 170.511719 276.800781 170.148438 276.144531 169.734375 L 276.375 168.894531 L 273.824219 162.347656 L 273.445312 161.53125 L 272.949219 162.554688 L 271.660156 164.070312 L 268.964844 161.3125 C 268.234375 160.28125 267.820312 157.679688 266.277344 153.863281 L 268.816406 151.324219 L 269.195312 150.355469 L 272.535156 159.574219 L 273.445312 161.53125 L 278.753906 150.707031 L 279.460938 141.921875 L 285.511719 131.035156 L 290.1875 131.167969 L 308.871094 134.277344 L 310.210938 131.242188 L 310.210938 108.152344 C 310.210938 108.152344 303.574219 88.421875 303.574219 88.421875 L 289.8125 73.863281 L 270.90625 60.0625 L 249.074219 53.585938 L 226.710938 57.824219 L 212.15625 64.253906 L 192.546875 79.902344 L 180.132812 98.652344 L 179.71875 121.542969 L 181.054688 124.582031 L 202.921875 121.957031 L 210.710938 122.222656 C 210.890625 126.828125 211.207031 131.53125 211.207031 131.53125 L 215.859375 142.855469 L 215.859375 148.90625 L 221.582031 154.738281 L 225.117188 150.65625 L 225.945312 146.9375 L 228.214844 152.832031 L 227.28125 157.800781 C 227.28125 157.800781 226.648438 159.832031 225.933594 161.214844 L 223.453125 156.671875 L 221.570312 154.753906 L 220.34375 156.355469 L 220.816406 162.648438 L 220.027344 167.21875 L 214.753906 170.632812 L 199.945312 173.34375 L 198.222656 173.085938 C 198.222656 173.085938 191.492188 173.867188 188.332031 175.820312 C 188.285156 175.75 188.234375 175.675781 188.199219 175.601562 C 187.226562 176.296875 186.109375 177.230469 184.929688 177.921875 L 181.882812 179.625 L 181.261719 169.382812 L 177.335938 161.519531 L 166.0625 152.117188 L 161.933594 148.699219 L 156.757812 147.144531 L 148.59375 148.496094 L 141.972656 147.558594 L 138.460938 147.035156 L 132.664062 147.972656 L 128.632812 147.144531 L 126.980469 146.9375 L 122.945312 146.003906 L 122.4375 143.695312 C 120.417969 143.316406 118.097656 143.050781 116.410156 142.296875 L 121.101562 138.25 L 126.566406 129.515625 L 127.914062 124.289062 L 127.820312 110.011719 L 129.457031 109.820312 L 149.007812 103.34375 L 167.910156 95.554688 L 166.304688 77.570312 L 159.539062 59.636719 L 148.105469 47.167969 L 133.675781 38.410156 L 106.933594 31.019531 L 74.738281 35.527344 L 52.542969 46.171875 L 37.589844 68.894531 L 32.074219 89.34375 L 40.417969 98.070312 L 55.667969 105.84375 L 60.734375 106.683594 C 60.453125 109.296875 60.308594 111.363281 60.308594 111.363281 L 60.441406 120.753906 L 63.320312 131.871094 L 67.914062 139.382812 L 71.691406 143.316406 C 69.042969 144.570312 62.179688 146.828125 62.179688 146.828125 L 44.296875 148.894531 L 33.335938 156.757812 L 30.75 168.652344 L 30.128906 175.773438 L 30.082031 178.992188 C 30.082031 178.992188 30.058594 179.453125 30.058594 179.441406 C 30.042969 179.6875 30.019531 179.964844 30.019531 179.964844 L 29.703125 183.039062 L 26.507812 216.953125 L 23.09375 239.140625 L 22.914062 257.339844 L 22.292969 278.75 L 23.230469 294.730469 L 24.296875 306.78125 L 23.09375 326.890625 L 26.195312 329.273438 L 30.019531 330.101562 L 28.527344 346.648438 L 33.605469 358.726562 L 41.390625 360.804688 L 43.980469 389.140625 L 44.574219 399.882812 L 47.1875 409.433594 L 49.410156 419.6875 L 51.246094 429.675781 L 59.191406 446.164062 L 69.210938 462.363281 L 71.277344 470.84375 C 71.277344 470.84375 70.304688 476.261719 69.832031 479.117188 C 69.46875 481.269531 68.554688 484.355469 69.101562 486.359375 L 66.175781 486.542969 L 64.195312 490.648438 L 64.328125 499.738281 L 68.921875 515.023438 L 75.042969 534.074219 L 83 549.265625 L 85.820312 563.90625 L 85.457031 570.101562 L 81.046875 574.527344 L 70.085938 578.582031 L 67.316406 581.28125 C 63.476562 583.492188 58.070312 587.441406 58.070312 587.441406 L 55.96875 595.339844 L 61.132812 601.269531 L 78.847656 604.332031 L 88.917969 601.402344 L 89.320312 601.851562 L 97.386719 600.613281 L 98.527344 599.542969 L 98.492188 609.242188 L 98.902344 610.976562 C 98.625 611.671875 98.480469 612.082031 98.480469 612.082031 L 104.6875 622.703125 L 109.960938 628.523438 L 126.542969 629.15625 L 134.78125 621.390625 C 134.78125 621.390625 135.070312 616.300781 134.863281 611.402344 L 135.398438 611.78125 L 136.019531 607.902344 L 132.761719 591.304688 L 133.273438 578 L 138.765625 566.699219 L 142.714844 555.460938 L 144.402344 543.199219 L 152.773438 519.480469 L 158.359375 491.097656 L 157.339844 489.214844 L 157.28125 488.730469 L 157.472656 488.484375 L 157.074219 486.859375 L 156.867188 485.046875 L 156.660156 485.167969 L 156.550781 484.730469 L 151.4375 481.765625 C 152.261719 474.074219 149.855469 463.722656 149.855469 463.722656 L 149.855469 455.945312 C 149.855469 455.945312 150.113281 455.300781 150.113281 455.300781 L 156.683594 445.921875 L 165.808594 418.777344 L 164.121094 398.875 L 166.488281 403.84375 L 171.382812 406.515625 L 171.324219 409.105469 L 169.015625 426.019531 L 172.953125 444.0625 L 173.511719 452.335938 L 171.492188 457.867188 L 169.015625 471.097656 L 189.582031 478.375 L 202.910156 477.839844 L 206.796875 477.125 C 207.246094 479.75 207.601562 481.632812 207.601562 481.632812 L 206.980469 489.554688 L 205.351562 503.019531 L 206.214844 514.902344 C 206.214844 514.902344 206.289062 515.472656 206.410156 516.382812 C 205.644531 516.433594 205.097656 516.480469 204.890625 516.503906 C 204.722656 521.195312 207.820312 532.484375 207.820312 532.484375 L 212.640625 553.417969 L 219.46875 569.398438 L 222.496094 581.304688 C 222.496094 581.304688 222.238281 588.925781 221.71875 596.324219 L 221.5 595.605469 L 221.5 595.632812 C 221.5 595.632812 221.460938 595.496094 221.460938 595.496094 L 221.230469 596.300781 L 221 596.871094 L 221 597.039062 C 221 597.039062 218.472656 605.621094 218.472656 605.621094 L 217.234375 615.390625 L 216.808594 626.128906 L 218.691406 635.0625 L 224.777344 643.773438 L 231.921875 648.160156 C 231.921875 648.160156 237.960938 648.488281 240.960938 648.574219 C 243.960938 648.65625 249.792969 647.625 249.792969 647.625 L 256 639.8125 L 256.132812 637.003906 L 257.847656 640.941406 L 263.410156 648.984375 L 267.578125 652.777344 L 281.210938 654.695312 L 290.796875 652.351562 L 295.535156 647.429688 L 296.820312 636.589844 L 295.097656 626.480469 L 291.972656 620.636719 C 289.96875 609.980469 285.863281 599.785156 285.863281 599.785156 L 285.511719 579.617188 L 287.613281 567.941406 L 293.152344 550.613281 L 294.757812 529.375 C 294.757812 529.375 297.222656 513.210938 295.472656 508.265625 C 295.316406 508.242188 295.132812 508.21875 294.949219 508.207031 L 292.679688 496.96875 L 292.230469 493.699219 C 292 491.425781 291.753906 489.25 291.511719 487.222656 L 294.367188 468.875 C 294.367188 468.875 294.378906 468.472656 294.429688 467.902344 L 296.785156 466.710938 L 303.152344 468.777344 L 305.617188 473.613281 L 310.171875 477.464844 L 317.035156 477.671875 L 331.445312 475.65625 L 335.878906 471.097656 L 329.671875 449.796875 L 319.464844 428.632812 L 316.027344 417.609375 C 316.027344 417.609375 315.289062 414.71875 314.960938 413.113281 C 314.972656 413.175781 314.851562 412.507812 314.851562 412.507812 L 314.703125 411.511719 L 314.605469 410.574219 L 314.605469 410.332031 C 314.605469 410.332031 313.550781 368.714844 313.550781 368.714844 L 311.617188 363.464844 L 313.515625 362.347656 L 316.078125 356.078125 C 316.832031 356.128906 317.691406 356.1875 318.605469 356.25 C 318.289062 358.714844 317.996094 361.460938 317.996094 361.460938 L 317.828125 372.09375 L 320.488281 380.441406 L 321.519531 380.136719 L 325.480469 375.800781 C 325.480469 375.800781 326.539062 374.535156 327.15625 374.160156 C 327.207031 374.328125 327.300781 374.65625 327.300781 374.65625 L 327.738281 376.222656 L 328.589844 379.542969 C 328.589844 379.542969 328.84375 380.636719 328.96875 381.183594 C 327.617188 386.089844 326.695312 396.417969 326.695312 396.417969 L 328.03125 399.457031 L 334.628906 397.902344 L 338.007812 396.066406 L 343.777344 389.832031 L 345.792969 386.503906 L 347.992188 375.640625 L 348.308594 362.300781 C 348.308594 362.300781 347.699219 360.550781 347.167969 354.851562 C 347.128906 354.4375 347.105469 354.050781 347.09375 353.660156 C 349.546875 353.320312 351.769531 353.054688 353.445312 352.957031 Z M 255.808594 615 C 255.683594 614.1875 255.550781 613.394531 255.40625 612.628906 C 252.988281 600.308594 250.4375 575.292969 250.4375 575.292969 L 247.179688 561.367188 L 248.445312 544.148438 L 248.164062 525.535156 L 248.164062 524.660156 C 248.214844 523.648438 248.238281 522.898438 248.238281 522.898438 L 248.117188 521.972656 L 247.957031 509.871094 L 246.621094 510.199219 L 246.863281 490.855469 C 246.863281 490.855469 248.140625 485.328125 249.308594 478.523438 L 249.816406 478.546875 L 250.132812 483.078125 L 251.371094 493.894531 L 252.539062 501.695312 C 252.476562 503.03125 252.417969 504.511719 252.378906 506.09375 L 251.941406 509.421875 C 251.398438 509.566406 250.875 509.714844 250.4375 509.882812 C 249.015625 515.207031 250.507812 519.324219 250.386719 524.863281 C 251.019531 524.972656 255.832031 549.128906 255.832031 549.128906 L 255.234375 562.933594 L 257.871094 577.054688 L 259.886719 585.4375 L 259.9375 587.757812 C 259.9375 587.757812 259.9375 597.441406 259.730469 602.179688 C 259.523438 607.015625 257.191406 610.785156 255.792969 615.023438 Z M 161.144531 319.238281 L 157.242188 307.792969 L 152.710938 289.226562 L 150.671875 286.027344 L 159.660156 283.234375 L 176.304688 277.644531 L 184.652344 273.429688 L 184.578125 272.785156 L 187.578125 282.09375 C 186.753906 283.332031 188.199219 290.085938 188.199219 290.160156 C 188.199219 292.203125 187.738281 295.566406 187.578125 297.609375 L 182.972656 297.355469 L 172.792969 296.261719 L 169.015625 299.527344 L 163.339844 311.179688 L 161.144531 319.226562 Z M 311.058594 321.144531 C 311.058594 321.144531 307.984375 316.320312 305.664062 315.398438 C 305.640625 315.398438 305.617188 315.398438 305.605469 315.410156 L 302.933594 311.703125 C 302.933594 311.703125 300.003906 308.3125 298.351562 306.855469 C 297.925781 306.480469 296.625 305.761719 295.070312 304.949219 C 294.960938 304.253906 294.863281 303.550781 294.792969 302.941406 C 294.730469 302.394531 295.4375 294.035156 295.921875 290.171875 C 295.921875 290.171875 295.945312 290.171875 295.945312 290.171875 C 296.613281 287.839844 297.269531 286.199219 297.878906 284.898438 C 299.640625 282.347656 302.046875 280.28125 302.046875 280.28125 L 306.578125 266.222656 L 306.578125 266.003906 C 306.578125 266.003906 307.949219 265.542969 307.949219 265.542969 C 307.949219 265.542969 309.445312 285.347656 310.015625 293.476562 C 310.585938 301.742188 312.1875 314.363281 312.1875 314.363281 L 311.972656 323.988281 L 311.058594 321.15625 Z M 126.140625 113.027344 L 125.265625 124.859375 L 121.234375 133.707031 L 113.96875 139.832031 C 113.761719 139.453125 113.566406 139.089844 113.386719 138.699219 L 113.605469 138.554688 L 117.261719 133.027344 L 119.726562 126.5625 C 119.726562 126.5625 120.09375 125.734375 120.46875 124.582031 L 122.460938 120.765625 L 123.300781 110.558594 L 125.644531 110.28125 L 126.152344 113.015625 Z M 66.222656 131.910156 L 64.144531 122.222656 L 63.308594 108.371094 C 63.308594 108.371094 63.382812 107.921875 63.503906 107.15625 L 67.449219 107.8125 C 67.464844 108.785156 67.488281 109.40625 67.488281 109.40625 L 69.089844 124.09375 L 70.488281 126.269531 L 70.792969 129.878906 L 74.144531 137.714844 L 76.296875 139.515625 C 75.3125 140.195312 74.277344 140.839844 73.199219 141.421875 L 66.222656 131.921875 Z M 66.222656 131.910156 " fill-opacity="1" fill-rule="nonzero"/></g><g clip-path="url(#0b9a8411dd)"><path fill="#c6b9ab" d="M 251.152344 142.710938 C 251.152344 142.710938 255.078125 143.292969 256.0625 143.535156 C 255.613281 143.660156 253.828125 143.960938 253.390625 144.082031 C 250.144531 145.019531 247.316406 145.894531 247.316406 145.894531 L 242.359375 145.128906 L 240.023438 143.839844 L 241.675781 143.222656 L 247.519531 144.097656 L 251.140625 142.699219 Z M 90.472656 102.648438 L 92.585938 101.519531 L 92.816406 101.335938 C 91.421875 100.414062 89.539062 99.671875 88.019531 99.175781 L 88.542969 100.425781 L 88.636719 100.828125 L 87.144531 103.148438 L 83.390625 102.660156 L 82.492188 100.609375 L 82.757812 99.84375 L 79.222656 101.75 L 85.457031 103.949219 L 90.484375 102.636719 Z M 115.464844 101.386719 L 113.238281 99.320312 L 111.988281 98.917969 L 112.132812 100.304688 L 112 100.828125 L 111.515625 102.164062 L 108.792969 103.085938 L 106.835938 102.019531 L 106.109375 99.757812 L 106.691406 98.480469 C 106.363281 98.578125 106.011719 98.6875 105.632812 98.820312 C 104.433594 99.285156 102.863281 100.316406 101.84375 100.984375 L 102.074219 101.167969 L 104.1875 102.296875 L 109.21875 103.609375 L 115.449219 101.410156 Z M 344.25 377.292969 C 344.25 377.292969 344.214844 376.855469 344.191406 376.648438 C 344.128906 377.5 344.25 377.292969 344.25 377.292969 Z M 336.816406 390.648438 C 336.816406 390.648438 336.828125 390.636719 336.839844 390.625 C 336.511719 390.804688 336.816406 390.648438 336.816406 390.648438 Z M 322.066406 352.496094 C 322.054688 352.578125 322.03125 352.664062 322.003906 352.761719 C 322.042969 352.726562 322.054688 352.738281 322.054688 352.738281 C 322.054688 352.738281 322.054688 352.664062 322.066406 352.480469 C 322.066406 352.480469 322.066406 352.480469 322.066406 352.496094 Z M 291.488281 487.257812 L 291.402344 487.84375 L 292.203125 493.746094 C 291.972656 491.476562 291.730469 489.300781 291.488281 487.269531 Z M 252.394531 506.082031 L 252.769531 503.1875 L 252.539062 501.679688 C 252.476562 503.019531 252.417969 504.5 252.378906 506.082031 Z M 344.953125 337.742188 C 344.953125 337.742188 344.953125 337.730469 344.96875 337.730469 C 344.96875 337.671875 344.96875 337.683594 344.953125 337.742188 Z M 327.398438 357.074219 C 327.398438 357.074219 324.496094 356.796875 321.351562 356.527344 C 321.265625 357.136719 321.167969 357.753906 321.082031 358.363281 C 320.789062 360.648438 320.316406 365.226562 320.316406 365.226562 C 320.316406 365.226562 320.316406 365.289062 320.316406 365.324219 C 320.316406 365.363281 320.316406 365.445312 320.316406 365.445312 L 320.316406 368.691406 C 320.316406 368.691406 320.609375 372.726562 320.609375 372.726562 L 320.875 374.011719 C 320.875 374.011719 320.875 373.988281 320.875 374.011719 C 321.945312 372.738281 324.300781 370.320312 324.300781 370.320312 L 327.496094 367.949219 L 329.039062 369.773438 L 330.15625 373.722656 L 331.492188 379.164062 L 330.765625 386.335938 C 330.765625 386.335938 329.683594 391.074219 329.453125 393.441406 C 331.46875 393.261719 335.234375 391.484375 335.234375 391.484375 C 335.234375 391.484375 336.316406 390.890625 336.863281 390.625 C 337.023438 390.441406 337.351562 390.101562 337.351562 390.101562 C 337.351562 390.101562 341.347656 385.789062 343.351562 383.625 C 343.472656 382.628906 343.726562 380.648438 343.726562 380.648438 C 343.726562 380.648438 343.945312 377.902344 344.203125 376.578125 C 344.203125 376.515625 344.191406 376.40625 344.191406 376.40625 L 343.863281 372.882812 L 344.457031 364.632812 C 344.457031 364.632812 343.328125 359.296875 342.464844 354.414062 C 335.027344 355.605469 327.425781 357.085938 327.425781 357.085938 Z M 291.875 176.953125 C 291.621094 181.386719 290.636719 186.878906 290.054688 189.90625 C 291.207031 187.597656 294.0625 181.996094 296.3125 178.347656 L 296.238281 178.289062 L 291.890625 176.953125 Z M 287.832031 220.414062 L 267.070312 243.855469 L 263.496094 246.902344 L 263.496094 246.941406 C 263.496094 246.941406 257.3125 255.628906 257.3125 255.628906 L 280.335938 272.152344 C 280.335938 272.152344 290.152344 273.902344 298.339844 273.574219 L 299.117188 270.5 L 302.628906 267.511719 L 304.753906 255.738281 L 305.335938 237.121094 C 305.335938 237.121094 307.097656 224.835938 308.921875 218.910156 C 308.980469 219.019531 309.042969 219.128906 309.105469 219.238281 L 309.128906 218.300781 L 310.878906 218.058594 L 311.21875 221.984375 L 309.394531 229.175781 L 311.65625 268.921875 C 311.65625 268.921875 312.492188 274.304688 313.269531 280.414062 C 313.839844 284.875 314.375 289.734375 314.535156 293.175781 C 314.996094 303.050781 316.902344 310.257812 317.035156 320.148438 C 317.097656 324.5 317.449219 330.804688 317.8125 335.882812 C 321.058594 335.640625 324.144531 335.035156 324.144531 335.035156 L 338.441406 335.375 C 338.441406 335.375 340.980469 333.734375 343.863281 331.960938 L 341.347656 320.003906 L 341.042969 298.871094 C 340.910156 297.828125 340.800781 296.84375 340.703125 295.957031 C 340.679688 295.738281 340.652344 295.519531 340.628906 295.289062 L 333.292969 264.972656 L 331.519531 255.75 L 332.015625 243.839844 L 328.285156 228.859375 L 322.84375 212.117188 L 322.46875 202.832031 L 320.269531 195.957031 L 308.8125 187.546875 L 303.371094 195.238281 L 287.808594 220.414062 Z M 328.785156 469.445312 L 328.761719 469.347656 L 328.554688 468.363281 L 328.019531 466.128906 L 326.523438 460.855469 L 322.6875 449.359375 L 314.195312 424.621094 L 311.65625 414.390625 L 311.253906 401.414062 L 305.824219 366.894531 L 297.308594 371.886719 C 296.859375 372.140625 296.359375 372.289062 295.847656 372.300781 L 277.054688 372.699219 C 276.582031 372.699219 276.105469 372.605469 275.683594 372.398438 L 265.792969 367.621094 C 265.210938 367.34375 264.734375 366.878906 264.433594 366.320312 L 260.203125 358.351562 C 260.023438 358 259.902344 357.621094 259.863281 357.222656 L 257.773438 335.375 C 257.761719 335.191406 257.761719 334.996094 257.773438 334.816406 L 258.964844 321.726562 C 258.988281 321.425781 259.0625 321.132812 259.171875 320.867188 L 262.390625 312.96875 C 262.148438 312.359375 262.003906 312.007812 262.003906 312.007812 L 255.453125 294.21875 L 245.308594 271.667969 L 240.839844 277.972656 C 240.839844 277.972656 235.519531 293.746094 232.773438 300.621094 C 232.699219 300.730469 232.625 300.816406 232.53125 300.890625 C 233.378906 304.621094 234.316406 307.816406 234.316406 307.816406 L 245.320312 327.925781 L 248.117188 347.316406 L 250.402344 360.867188 L 244.714844 377.878906 L 236.902344 383.464844 L 226.429688 388 L 223.757812 392.917969 L 215.726562 396.917969 C 215.726562 396.917969 209.070312 397.71875 206.507812 397.816406 C 206.882812 400.296875 204.890625 403.84375 204.890625 403.84375 L 190.75 409.359375 C 190.75 409.359375 182.378906 407.136719 180.980469 406.335938 C 179.148438 407.949219 175.539062 408.835938 175.539062 408.835938 L 173.886719 407.9375 L 173.011719 424 L 175.804688 438.265625 L 177.871094 454.609375 L 173.644531 463.261719 L 172.78125 468.351562 L 179.585938 472.433594 L 190.289062 472.300781 L 204.136719 471.597656 L 219.359375 468.59375 L 233.71875 466.75 L 245.527344 472.496094 L 256.339844 475.496094 L 284.050781 466.457031 L 295.910156 460.695312 L 302.433594 462.324219 L 305.640625 466.773438 L 308.8125 471.121094 L 315.238281 471.71875 C 315.238281 471.71875 323.804688 471.851562 328.90625 470.257812 L 328.871094 470.015625 L 328.773438 469.445312 Z M 227.328125 277.523438 L 216.734375 284.582031 L 204.003906 290.367188 C 204.003906 290.367188 196.761719 292.882812 192.351562 293.660156 C 192.328125 294.609375 192.28125 295.554688 192.21875 296.503906 L 201.113281 295.675781 L 217.78125 292.382812 L 224.039062 290.683594 C 224.160156 290.585938 224.230469 290.539062 224.230469 290.539062 L 234.523438 271.289062 L 227.316406 277.535156 Z M 225.046875 515.460938 C 225.046875 515.460938 215.910156 515.875 209.894531 516.203125 C 209.15625 511.707031 208.570312 507.84375 208.570312 507.84375 L 209.96875 496.359375 L 210.90625 478.679688 C 210.90625 478.679688 210.550781 477.5625 210.078125 475.886719 L 218.207031 474.378906 L 225.96875 472.675781 L 233.308594 472.046875 L 244.363281 477.296875 L 243.328125 494.660156 L 242.382812 507.84375 L 242.5625 511.171875 L 225.046875 515.449219 Z M 224.148438 501.898438 L 232.53125 499.992188 L 236.722656 497.308594 L 238.082031 494.160156 L 238.445312 491.039062 L 237.074219 490.222656 L 233.78125 495.519531 L 224.546875 497.355469 L 217.246094 495.847656 L 214.769531 493.660156 L 213.46875 491.195312 L 212.046875 491.195312 L 212.046875 494.414062 L 216.25 499.96875 L 224.132812 501.898438 Z M 256.0625 508.558594 L 257.105469 495.277344 L 254.15625 483.953125 L 253.207031 478.097656 L 271.234375 478.984375 L 284.453125 472.226562 L 288.476562 470.199219 C 288.121094 473.210938 287.941406 476.820312 287.941406 476.820312 L 287.820312 494.960938 L 290.84375 508.558594 C 287.503906 509.128906 283.96875 510.199219 283.96875 510.199219 L 264.238281 507.527344 C 264.238281 507.527344 260.070312 507.890625 256.050781 508.546875 Z M 258.003906 490.636719 L 258.347656 493.429688 L 265.441406 500.261719 L 269.863281 501.632812 L 277.40625 500.222656 L 282.121094 496.554688 L 284.722656 493.613281 L 284.636719 490.261719 C 284.636719 490.261719 284.136719 489.847656 283.90625 490.054688 C 283.738281 490.210938 283.601562 490.382812 283.507812 490.574219 C 283.53125 490.527344 283.542969 490.515625 283.554688 490.476562 C 283.53125 490.515625 283.46875 490.585938 283.46875 490.585938 L 282.824219 491.378906 L 280.675781 493.394531 L 275.742188 496.941406 L 269.949219 497.539062 L 266.402344 496.601562 L 262.949219 493.820312 L 259.316406 489.882812 L 258.03125 490.613281 Z M 264.382812 609.410156 C 259.535156 611.597656 258.296875 614.136719 257.910156 613.859375 C 257.203125 617.371094 258.359375 617.976562 258.515625 621.234375 C 263.558594 615.667969 277.320312 615.753906 277.320312 615.753906 C 277.320312 615.753906 286.070312 617.5625 289.226562 619.214844 C 286.894531 612.242188 286.59375 609.910156 286.59375 609.910156 L 278.367188 607.429688 C 278.367188 607.429688 268.039062 607.757812 264.394531 609.410156 Z M 244.996094 625.828125 C 244.996094 625.828125 252.695312 627.890625 255.308594 629.046875 C 254.894531 628.425781 254.375 619.738281 253.863281 619.433594 C 252.246094 618.460938 250.4375 616.980469 247.507812 616.128906 C 243.316406 614.902344 234.15625 615.59375 234.15625 615.59375 C 234.15625 615.59375 225.433594 617.027344 221.875 620.320312 L 221.292969 617.441406 L 221.425781 614.003906 C 224.65625 611.425781 229.296875 608.367188 229.296875 608.367188 L 244.351562 608.097656 C 244.351562 608.097656 250.023438 609.554688 253.535156 612.191406 C 253.484375 609.203125 251.421875 605.730469 251.261719 602.789062 C 248.652344 601.707031 249.257812 602.179688 247.046875 601.222656 C 244.230469 599.992188 237.4375 599.363281 237.4375 599.363281 L 227.585938 601.769531 C 227.585938 601.769531 224.339844 601.683594 221.28125 603.25 C 221.351562 603.421875 221.351562 603.882812 221.328125 604.527344 L 221.242188 602.875 L 219.578125 610.222656 L 218.535156 619.167969 L 218.875 627.152344 L 221.679688 634.515625 L 227.292969 641.367188 L 234.253906 644.160156 L 249.828125 644.355469 L 254.640625 638.621094 C 254.640625 638.621094 254.578125 636.847656 254.519531 634.804688 C 254.070312 635.59375 253.71875 636.128906 253.71875 636.128906 L 247.8125 639.289062 L 234.207031 639.289062 C 234.207031 639.289062 227.378906 634.246094 227.378906 634.246094 L 223.867188 628.914062 C 226.503906 626.738281 230.597656 623.84375 230.597656 623.84375 L 244.980469 625.828125 Z M 286.726562 299.296875 C 286.796875 299.757812 286.882812 300.148438 287.003906 300.464844 C 286.933594 300.085938 286.835938 299.699219 286.726562 299.296875 Z M 70.425781 112.332031 C 70.425781 112.332031 69.929688 105.589844 70.535156 99.308594 C 74.195312 96.671875 81.214844 94.59375 81.214844 94.59375 L 97.214844 93.367188 L 106.097656 92.359375 L 116.445312 93.269531 C 116.445312 93.269531 117.964844 94.996094 120.589844 97.398438 C 120.6875 97.800781 120.734375 98.042969 120.734375 98.042969 L 119.605469 117.035156 L 118.332031 120.304688 C 115.390625 121.785156 111.066406 123.660156 111.066406 123.660156 L 105.792969 123.378906 C 105.792969 123.378906 101.90625 122.660156 99.875 123.074219 C 99.886719 123.027344 99.902344 122.976562 99.914062 122.929688 C 99.730469 123.039062 99.558594 123.113281 99.390625 123.207031 C 99.257812 123.257812 99.136719 123.316406 99.039062 123.378906 C 99.050781 123.378906 99.0625 123.378906 99.074219 123.378906 C 96.425781 124.714844 94.324219 124.691406 94.324219 124.691406 L 89.355469 121.800781 L 82.234375 124.15625 L 77.316406 125.832031 L 73.015625 123.535156 L 72.117188 121.824219 L 70.425781 112.320312 Z M 99.875 102.101562 L 106.679688 105.417969 L 113.847656 104.898438 L 119.65625 101.324219 L 117.878906 99.929688 L 114.164062 97.242188 L 110.507812 95.433594 L 104.796875 96.464844 L 102.074219 98.433594 L 100.214844 99.878906 L 99.875 102.089844 Z M 96.183594 105.066406 L 94.105469 110.171875 L 91.589844 118.554688 L 92.257812 120.074219 L 98.539062 120.378906 L 104.457031 119.867188 L 105.101562 118.75 L 104.710938 110.789062 L 102.183594 110.292969 L 102.183594 112.441406 L 103.3125 115.296875 C 103.3125 115.296875 103.605469 116.171875 103.738281 116.988281 C 101.699219 117.375 99.851562 117.875 99.851562 117.875 C 99.851562 117.875 96.472656 117.460938 94.261719 117.351562 C 94.917969 114.386719 97.566406 108.152344 97.566406 108.152344 L 98.917969 99.78125 L 96.535156 100.195312 L 96.171875 105.054688 Z M 75.503906 101.070312 L 75.261719 101.214844 L 75.503906 103.292969 L 80.839844 105.261719 L 87.558594 106.136719 L 94.808594 102.457031 L 95.027344 100.582031 L 93.605469 98.566406 L 89.890625 96.828125 L 85.578125 95.347656 L 80.535156 97.605469 L 76.816406 100.292969 L 75.46875 100.960938 L 75.519531 101.058594 Z M 86.671875 82.929688 L 103.886719 81.203125 L 114.636719 83.234375 C 114.453125 83.039062 114.285156 82.832031 114.089844 82.660156 C 110.128906 78.980469 104.578125 77.070312 99.230469 76.976562 C 91.066406 76.839844 83.257812 80.558594 77.253906 86.074219 L 77.351562 86.050781 L 86.660156 82.953125 Z M 236.867188 117.765625 C 236.285156 117.511719 235.90625 117.363281 235.90625 117.363281 L 230.683594 121.324219 C 231.605469 121.59375 232.992188 121.992188 234.460938 122.347656 L 233.730469 120.097656 L 236.003906 117.679688 C 236.003906 117.679688 236.378906 117.691406 236.867188 117.753906 Z M 239.527344 120.523438 C 239.648438 121.433594 239.175781 122.199219 238.675781 122.734375 C 239.878906 122.539062 241.082031 122.175781 242.371094 122.078125 C 243.109375 122.019531 243.65625 121.824219 244.144531 121.542969 C 242.746094 120.597656 240.949219 119.660156 239.382812 118.917969 C 239.734375 119.441406 239.890625 120.121094 239.734375 120.949219 L 239.527344 120.535156 Z M 259.984375 119.441406 L 260.980469 120.367188 L 261.238281 121.554688 L 260.339844 123.453125 C 260.714844 123.476562 261.054688 123.5 261.347656 123.523438 C 262.34375 123.597656 265.078125 122.566406 266.667969 121.738281 C 265.464844 121.046875 263.703125 120.511719 262.378906 120.109375 C 261.445312 119.820312 260.628906 119.613281 259.984375 119.441406 Z M 252.320312 121.652344 C 253.085938 122.140625 254.117188 122.660156 255.441406 122.953125 C 255.625 122.988281 255.832031 123.027344 256.0625 123.0625 L 255.441406 121.144531 L 256.121094 119.574219 L 256.476562 119.476562 L 253.5 120.085938 L 252.308594 121.652344 Z M 243.984375 105.527344 C 244.058594 105.554688 245.445312 105.078125 247.023438 104.328125 C 247.835938 104.640625 248.675781 104.921875 249.585938 105.140625 C 249.585938 104.628906 249.378906 103.949219 249.089844 103.21875 C 250.195312 102.550781 251.164062 101.785156 251.589844 101.019531 C 250.449219 101.179688 249.332031 101.277344 248.226562 101.386719 C 247.835938 100.644531 247.4375 99.976562 247.132812 99.527344 C 246.804688 100.230469 246.425781 100.925781 246.050781 101.628906 C 244.8125 101.785156 243.621094 102.003906 242.527344 102.347656 C 243.402344 102.746094 244.230469 103.125 245.042969 103.488281 C 244.667969 104.167969 244.300781 104.847656 243.972656 105.503906 Z M 261.566406 107.230469 C 261.929688 107.644531 263.179688 107.644531 264.554688 107.496094 C 265.148438 108.152344 265.78125 108.726562 266.484375 109.078125 C 266.523438 108.554688 266.535156 107.910156 266.546875 107.230469 C 267.554688 107.074219 268.453125 106.914062 268.902344 106.878906 C 268.285156 106.34375 267.445312 105.992188 266.523438 105.710938 C 266.496094 104.945312 266.4375 104.203125 266.339844 103.621094 C 265.71875 104 265.050781 104.558594 264.371094 105.117188 C 263.425781 104.859375 262.511719 104.582031 261.785156 104.15625 C 262.28125 104.65625 262.78125 105.308594 263.300781 105.980469 C 262.597656 106.511719 261.929688 106.949219 261.347656 107.023438 L 261.554688 107.230469 Z M 229.601562 105.710938 C 230.972656 105.722656 232.347656 105.746094 233.585938 105.503906 C 232.929688 104.910156 232.054688 104.449219 231.167969 103.984375 C 231.691406 103.34375 232.203125 102.636719 232.722656 101.75 C 231.847656 102.273438 230.816406 102.722656 229.757812 103.195312 C 229.335938 102.929688 228.933594 102.648438 228.59375 102.320312 C 228.144531 102.855469 227.777344 103.546875 227.535156 104.300781 C 226.710938 104.765625 225.957031 105.285156 225.363281 105.953125 C 225.96875 105.832031 226.589844 105.785156 227.21875 105.746094 C 227.125 106.5 227.148438 107.253906 227.292969 107.898438 L 227.4375 107.949219 C 228.230469 107.085938 228.945312 106.390625 229.601562 105.710938 Z M 100.324219 86.308594 C 99.171875 86.34375 98.042969 86.332031 96.9375 86.320312 C 96.621094 85.542969 96.292969 84.835938 96.050781 84.363281 C 95.648438 85.019531 95.199219 85.6875 94.761719 86.34375 C 93.511719 86.378906 92.308594 86.453125 91.175781 86.683594 C 92.015625 87.167969 92.78125 87.632812 93.558594 88.09375 C 93.109375 88.738281 92.683594 89.367188 92.28125 89.988281 C 92.355469 90.023438 93.777344 89.683594 95.429688 89.113281 C 96.207031 89.503906 97.007812 89.878906 97.894531 90.195312 C 97.945312 89.683594 97.8125 88.980469 97.605469 88.238281 C 98.78125 87.691406 99.828125 87.035156 100.324219 86.320312 Z M 78.105469 92.152344 L 78.398438 92.210938 C 78.929688 92.359375 79.976562 91.691406 81.058594 90.816406 C 81.90625 91.046875 82.746094 91.179688 83.535156 91.09375 C 83.28125 90.632812 82.953125 90.085938 82.589844 89.515625 C 83.355469 88.835938 84.023438 88.214844 84.375 87.945312 C 83.574219 87.835938 82.671875 87.996094 81.75 88.25 C 81.3125 87.617188 80.863281 87.023438 80.460938 86.585938 C 80.144531 87.230469 79.878906 88.070312 79.625 88.90625 C 78.6875 89.210938 77.765625 89.464844 76.925781 89.503906 C 77.621094 89.660156 78.386719 89.925781 79.1875 90.21875 C 78.882812 91.046875 78.554688 91.773438 78.105469 92.152344 Z M 111.914062 86.769531 C 111.660156 86.332031 111.441406 85.894531 111.285156 85.445312 C 110.640625 85.710938 109.996094 86.160156 109.4375 86.707031 C 108.488281 86.742188 107.578125 86.851562 106.742188 87.15625 C 107.324219 87.328125 107.90625 87.570312 108.476562 87.835938 C 108.039062 88.46875 107.710938 89.136719 107.554688 89.78125 L 107.652344 89.890625 C 108.757812 89.488281 109.703125 89.210938 110.605469 88.917969 C 111.820312 89.574219 113.019531 90.21875 114.234375 90.582031 C 113.933594 89.757812 113.375 88.945312 112.800781 88.117188 C 113.554688 87.789062 114.34375 87.398438 115.21875 86.851562 C 114.199219 86.914062 113.070312 86.828125 111.929688 86.757812 Z M 292.777344 114.765625 L 295.425781 116.171875 L 297.902344 111.484375 L 295.179688 110.351562 L 294.378906 110.546875 L 295.023438 110.9375 L 294.660156 114.058594 L 292.761719 114.777344 Z M 197.722656 105.964844 L 198.027344 105.785156 L 196.605469 105.46875 L 194.453125 107.292969 L 196.046875 109.285156 L 198.609375 109.355469 L 198.074219 109.078125 L 197.710938 105.953125 Z M 199.460938 115.894531 C 199.460938 115.894531 188.855469 116.5625 182.511719 118.117188 C 183.035156 110.851562 185.210938 100.960938 185.210938 100.960938 L 191.964844 87.644531 L 205.8125 74.460938 L 222.785156 65.46875 L 243.886719 59.867188 L 264.90625 63.355469 L 284.113281 75.40625 L 297.914062 90.144531 L 303.917969 102.261719 C 307.316406 118.214844 307.972656 119.476562 307.671875 127.996094 C 301.535156 126.878906 291.136719 125.128906 291.136719 125.128906 L 283.957031 123.632812 L 283.871094 127.972656 L 282.886719 128.882812 L 276.363281 122.03125 C 274.671875 127.839844 272.886719 136.027344 272.886719 136.027344 L 268.160156 147.484375 L 256.886719 155.96875 L 240.71875 157.390625 L 232.25 154.277344 L 228.460938 143.269531 L 221.484375 123.257812 C 221.484375 123.257812 221.949219 119.355469 222.894531 114.96875 L 211.585938 119.660156 L 210.453125 118.070312 C 210.164062 118.179688 210.003906 116.160156 210.003906 116.160156 L 207.820312 116.125 L 199.4375 115.882812 Z M 213.308594 116.101562 L 227.34375 109.515625 L 238.046875 107.8125 L 248.589844 109.015625 L 260.507812 109.246094 L 274.164062 115.710938 C 274.164062 115.710938 277.757812 119.308594 280.75 122.746094 L 279.667969 117.605469 L 279.207031 114.667969 C 276.824219 110.097656 274.101562 106.527344 274.101562 106.527344 L 263.65625 100.328125 L 252.210938 97.023438 L 240.523438 98.042969 L 226.929688 99.746094 L 216.542969 104.921875 L 214.753906 108.699219 L 213.417969 113.222656 L 213.308594 116.113281 Z M 245.417969 132.832031 L 248.515625 127.449219 L 248.578125 122.785156 L 249.855469 118.601562 L 248.613281 116.925781 L 247.679688 117.777344 L 247.425781 118.507812 L 246.222656 127.167969 L 244.277344 130.886719 L 242.550781 133.234375 L 242.890625 137.035156 L 245.429688 138.507812 L 253.71875 138.179688 L 255.515625 135.335938 L 255.480469 131.773438 L 253.230469 130.777344 L 252.988281 132.855469 L 253.679688 134.691406 C 253.679688 134.691406 253.742188 134.835938 253.828125 135.019531 C 253.195312 135.203125 252.222656 135.554688 252.222656 135.554688 L 249.488281 136.222656 L 245.578125 135.492188 L 245.40625 132.808594 Z M 236.683594 125.128906 L 241.957031 124.300781 L 246.304688 123.027344 L 246.464844 120.257812 L 240.488281 117.121094 L 236.394531 114.984375 L 231.265625 116.257812 L 228.300781 120.28125 L 228.300781 122.429688 L 228.628906 122.429688 C 228.628906 122.429688 230.28125 123.585938 230.28125 123.585938 L 236.695312 125.140625 Z M 260.398438 142.296875 L 260.214844 142.25 L 257.007812 141.324219 L 254.882812 141.058594 L 250.65625 140.4375 L 247.179688 142.199219 L 242.1875 140.535156 L 238.496094 141.289062 L 235.832031 141.824219 L 236.027344 143.425781 L 237.667969 145.203125 L 239.296875 146.234375 L 246.5 149.078125 L 249.269531 148.3125 L 255.125 146.695312 L 258.757812 144.328125 L 260.410156 142.308594 Z M 268.175781 121.289062 L 263.8125 119.003906 L 261.066406 117.570312 L 258.113281 116.027344 L 252.988281 117.304688 L 250.023438 121.324219 L 250.023438 123.074219 L 249.925781 123.378906 L 250.023438 123.414062 L 250.023438 123.476562 L 250.195312 123.476562 L 255.464844 125.296875 L 260.847656 125.347656 L 264.261719 125.761719 L 267.980469 122.710938 L 268.199219 121.300781 Z M 263.070312 78.941406 L 259.753906 84.996094 L 261.675781 94.945312 L 269.0625 98.617188 L 274.710938 98.070312 L 283.117188 94.570312 L 291.890625 94.910156 L 294.804688 97.617188 L 294.671875 99.066406 L 286.421875 105.636719 L 285.644531 113.0625 L 289.058594 118.042969 L 295.898438 119.246094 L 299.445312 116.964844 L 300.136719 110.0625 L 295.945312 105.855469 L 290.625 111.117188 L 291.585938 114.15625 L 288.460938 112.492188 C 288.460938 112.492188 287.757812 111.507812 287.40625 111.007812 C 287.671875 111.375 287.625 111.058594 287.625 111.058594 L 290.429688 107.972656 L 296.347656 101.859375 L 297.878906 94.628906 L 293.40625 91.191406 L 288.476562 89.257812 L 280.796875 90.816406 L 274.359375 93.621094 L 268.902344 94.023438 L 262.171875 87.449219 L 269.960938 80.292969 L 274.175781 82.964844 L 273.894531 86.027344 L 271.820312 89.054688 L 274.917969 89.964844 L 277.40625 86.113281 L 276.789062 78.507812 L 272.132812 75.554688 L 267.070312 75.980469 L 263.046875 78.957031 Z M 235.761719 70.523438 L 245.03125 75.953125 L 246.160156 78.382812 L 243 84.582031 L 245.734375 90.910156 L 250.375 88.398438 L 251.382812 83.292969 L 249.222656 78.3125 L 250.363281 75.953125 L 254.871094 71.335938 L 257.617188 70.984375 L 258.90625 71.203125 C 258.90625 71.203125 259.5625 71.796875 259.414062 71.25 C 259.597656 71.921875 260.789062 72.066406 260.789062 72.066406 L 261.152344 68.941406 L 256.183594 66.464844 L 255.285156 66.632812 L 250.242188 70.523438 L 247.859375 75.117188 L 247.65625 74.628906 L 240.886719 66.707031 L 235.796875 65.941406 L 235.796875 70.5 Z M 194.273438 112.589844 L 199.777344 114.460938 L 208.679688 108.371094 L 204.285156 99.925781 L 199.859375 96.027344 L 197.722656 94.09375 L 197.589844 92.648438 L 204.757812 88.675781 L 214.378906 91.617188 L 215.910156 92.273438 L 221.949219 93.65625 L 228.53125 92.25 L 232.675781 85.199219 L 231.449219 77.351562 L 226.480469 71.179688 L 220.113281 71.714844 L 216.164062 77.070312 L 217.828125 84.957031 L 219.203125 84.144531 L 218.835938 81.019531 L 218.21875 78.46875 L 221.59375 75.625 L 229.636719 79.585938 L 227.511719 84.96875 L 226.6875 88.421875 L 215.363281 87.414062 L 208.535156 84.582031 L 202.121094 84.691406 L 195.257812 90.351562 L 197.117188 98.628906 L 203.980469 104.558594 L 205.109375 106.015625 C 205.109375 106.015625 205.011719 106.199219 205.351562 106.015625 C 205.265625 106.0625 205.023438 106.621094 205.023438 106.621094 L 204.148438 107.632812 L 201.441406 109.417969 L 201.027344 109.417969 C 201.027344 109.417969 202.046875 107.386719 202.046875 107.386719 L 198.742188 100.996094 L 191.746094 105.664062 L 194.296875 112.566406 Z M 245.90625 86.367188 L 246.074219 86.257812 L 248.066406 86.320312 L 248.929688 85.273438 C 248.929688 85.273438 248.96875 84.96875 248.96875 84.980469 C 248.953125 84.714844 248.859375 84.179688 248.859375 84.179688 L 247.679688 81.628906 L 246.085938 85.417969 L 245.90625 86.355469 Z M 175.5625 381.304688 C 176.886719 382.214844 178.527344 382.699219 180.449219 382.53125 C 178.878906 383.527344 176.730469 385.410156 176.730469 385.410156 L 174.261719 389.566406 C 174.261719 389.566406 173.691406 393.671875 173.839844 396.636719 C 176.390625 396.152344 180.460938 393.441406 180.460938 393.441406 C 180.460938 393.441406 182.246094 390.976562 183.070312 388.410156 C 182.960938 391.375 183.691406 394.355469 183.691406 394.355469 C 183.691406 394.355469 185.136719 397.332031 186.132812 398.945312 C 188.636719 396.6875 188.308594 391.074219 188.308594 391.074219 C 188.308594 391.074219 188.453125 387.355469 188.441406 384.789062 C 189.71875 386.796875 191.027344 388.253906 191.027344 388.253906 L 198.113281 392.019531 C 198.113281 392.019531 201.015625 392.386719 202.691406 392.277344 C 202.398438 388.410156 198.222656 384.414062 198.222656 384.414062 C 198.222656 384.414062 193.96875 382.824219 190.824219 382.46875 C 193.992188 382.589844 198.003906 381.085938 198.003906 381.085938 L 204.441406 374.71875 C 204.441406 374.71875 207.273438 371.730469 208.925781 369.90625 C 204.832031 369.96875 196.242188 368.847656 196.242188 368.847656 C 196.242188 368.847656 191.976562 370.609375 190.203125 373.746094 C 190.726562 371.523438 190.933594 368.667969 190.933594 368.667969 L 188.039062 361.730469 C 188.039062 361.730469 185.292969 357.730469 183.847656 355.957031 C 182.769531 357.695312 181.832031 361.605469 181.832031 361.605469 L 181.90625 368.316406 C 181.90625 368.316406 183.035156 373.613281 183.886719 376.007812 C 182.488281 375.824219 180.203125 374.742188 180.203125 374.742188 L 175.5625 374.414062 C 175.5625 374.414062 173.351562 375.046875 171.941406 375.714844 C 172.515625 377.972656 173.753906 380.050781 175.585938 381.304688 Z M 231.046875 340.222656 C 230.210938 341.65625 228.835938 344.839844 228.835938 344.839844 C 228.835938 344.839844 227.804688 348.09375 227.5625 349.773438 C 227.425781 350.730469 227.390625 351.691406 227.402344 352.652344 C 227.207031 352.226562 226.976562 351.824219 226.722656 351.4375 C 225.628906 349.796875 222.128906 347.632812 222.128906 347.632812 C 222.128906 347.632812 217.027344 346.042969 214.511719 346.296875 C 214.988281 347.34375 215.605469 350.769531 215.605469 350.769531 L 219.640625 354.695312 C 219.640625 354.695312 220.855469 356.042969 222.359375 357.015625 C 220.234375 356.503906 217.730469 356.199219 217.730469 356.199219 L 211.074219 357.65625 L 210.113281 361.109375 L 213.894531 364.730469 C 213.894531 364.730469 218.933594 366.199219 221.328125 365.882812 C 222.808594 365.691406 224.121094 365.214844 225.070312 364.4375 C 224.183594 366.03125 223.285156 367.792969 222.53125 369.640625 C 221.71875 371.632812 220.769531 375.8125 220.769531 375.8125 C 220.769531 375.8125 220.574219 380.527344 221.425781 382.761719 C 222.726562 381.21875 224.996094 378.21875 224.996094 378.21875 C 224.996094 378.21875 228.652344 371.8125 228.714844 367.523438 C 229.601562 370.28125 233.367188 374.777344 233.367188 374.777344 C 233.367188 374.777344 237.253906 376.90625 239.792969 376.527344 C 239.464844 373.078125 238.457031 369.566406 238.082031 367.550781 C 237.789062 365.980469 235.773438 365.300781 233.902344 364.816406 C 236.027344 364.5 238.179688 362.652344 239.84375 360.308594 C 240.351562 359.589844 240.816406 358.8125 241.226562 358.035156 C 242.441406 355.675781 243.136719 353.148438 242.890625 351.265625 C 241.554688 351.386719 239.246094 352.25 239.246094 352.25 C 239.246094 352.25 236.269531 354.160156 235.140625 355.582031 C 234.316406 356.613281 233.609375 357.792969 233.015625 359.078125 C 233.074219 356.917969 233.804688 353.976562 234.21875 351.023438 C 234.570312 348.507812 234.023438 343.890625 234.023438 343.890625 C 234.023438 343.890625 232.601562 341.097656 231.023438 340.234375 Z M 198.511719 349.820312 L 195.777344 351.875 L 195.695312 355.144531 L 198.402344 358.121094 C 198.402344 358.121094 200.152344 357.78125 201.160156 356.832031 C 201.210938 356.785156 201.257812 356.734375 201.320312 356.6875 C 202.8125 355.191406 202.65625 352.359375 202.65625 352.359375 L 201.234375 350.453125 L 198.523438 349.820312 Z M 210.746094 384.0625 L 210.855469 387.113281 L 213.238281 388.957031 L 216.042969 387.195312 L 215.8125 383.042969 L 212.300781 382.835938 L 210.746094 384.074219 Z M 235.96875 336.285156 C 237.316406 336.394531 239.792969 334.109375 239.792969 334.109375 C 239.792969 334.109375 239.015625 332.640625 238.566406 330.792969 C 237.375 330.695312 237.363281 329.882812 236.175781 330.183594 L 234.109375 330.914062 C 233.671875 331.824219 233.839844 331.996094 233.792969 333.089844 C 233.757812 333.890625 235.808594 335.519531 235.96875 336.296875 Z M 175.792969 367.742188 C 175.988281 367.609375 176.097656 367.390625 176.085938 367.160156 L 176 364.378906 C 176 364.121094 175.855469 363.902344 175.625 363.792969 C 174.859375 363.417969 173.085938 362.589844 172.269531 362.566406 L 171.957031 362.566406 C 170.753906 363.148438 170.144531 363.988281 169.988281 364.898438 C 169.746094 366.320312 170.582031 367.890625 171.871094 368.8125 C 172.902344 369.554688 174.992188 368.277344 175.78125 367.742188 Z M 173.363281 330.660156 L 174.042969 333.671875 L 177.117188 335.386719 L 178.089844 335.238281 L 177.675781 335.105469 L 178.539062 330.0625 L 173.363281 330.671875 Z M 208.996094 327.316406 C 208.996094 327.316406 208.996094 327.328125 208.996094 327.34375 C 208.996094 327.34375 208.996094 327.328125 208.996094 327.316406 Z M 179.207031 329.980469 L 179.902344 330.878906 C 179.902344 330.878906 179.902344 331.097656 179.875 331.414062 C 181.007812 331.035156 182.136719 330.378906 182.136719 330.378906 C 182.136719 330.378906 182.476562 329.917969 182.414062 329.882812 C 182.441406 329.894531 181.820312 329.675781 181.820312 329.675781 L 179.195312 329.980469 Z M 209.191406 325.203125 L 210.613281 325.203125 L 210.078125 330.621094 L 211.425781 331.058594 L 215.15625 328.472656 L 215.667969 327.367188 L 215.667969 327.246094 C 215.667969 327.246094 214.246094 325.675781 214.246094 325.675781 L 207.441406 324.789062 C 207.441406 324.789062 207.175781 325.082031 207.003906 325.3125 L 207.976562 326.296875 C 207.976562 326.296875 208.476562 326.5625 208.996094 326.796875 C 209.046875 325.980469 209.179688 325.214844 209.179688 325.214844 Z M 183.289062 344.667969 L 168.820312 340.402344 L 166.535156 331.945312 L 164.519531 326.054688 L 163.742188 317.402344 L 167.738281 308.230469 L 173.085938 300.234375 L 180.191406 300.71875 L 191.382812 300.71875 C 191.382812 300.71875 191.867188 300.660156 191.867188 300.660156 L 215.375 297.667969 L 223.34375 294.753906 C 223.34375 294.753906 226.503906 293.804688 229.675781 293.816406 C 229.917969 298.8125 230.753906 306.699219 230.753906 306.699219 L 228.035156 320.136719 L 218.679688 333.515625 L 206.738281 342.042969 L 194.078125 343.175781 L 183.300781 344.691406 Z M 224.011719 308.679688 L 220.925781 312.761719 L 219.105469 313.222656 L 210.273438 312.445312 L 204.574219 313.269531 L 200.347656 315.714844 L 197.503906 324.816406 L 204.027344 333.257812 L 211.28125 335.628906 L 214.828125 334.023438 L 219.117188 326.878906 L 216.105469 322.601562 L 211.914062 319.84375 L 205.144531 323.285156 L 208.570312 330.136719 L 204.855469 328.933594 L 200.042969 323.285156 L 202.945312 318.59375 L 211.984375 317.0625 L 220.453125 317.5 L 224.21875 314.777344 L 226.769531 307.355469 L 221.59375 300.148438 L 221.0625 304.546875 L 224.011719 308.703125 Z M 181.417969 307.148438 C 182.71875 309.042969 182.71875 310.523438 184.296875 311.851562 C 185.136719 312.566406 188.671875 314.292969 188.671875 314.292969 L 196.351562 314.195312 L 200.84375 310.867188 C 200.84375 310.867188 204.234375 307.195312 206.226562 305.375 C 204.125 304.839844 199.886719 306.03125 199.886719 306.03125 C 199.886719 306.03125 197.320312 307.476562 196.300781 308.507812 C 194.757812 310.074219 193.992188 309.941406 193.800781 312.140625 C 193.300781 310.660156 194.042969 305.945312 194.042969 305.945312 C 194.042969 305.945312 194.453125 304.171875 194.671875 302.699219 C 194.003906 302.75 193.347656 302.773438 192.695312 302.796875 C 191.585938 303.671875 190.785156 304.691406 190.785156 304.691406 L 189.996094 308.363281 C 189.996094 308.363281 190.105469 309.746094 190.566406 311.726562 C 189.5 310.195312 184.980469 307.925781 184.980469 307.925781 C 184.980469 307.925781 182.878906 307.207031 181.417969 307.148438 Z M 182.390625 339.578125 L 190.058594 334.949219 L 191.746094 325.605469 L 183.777344 318.09375 L 178.34375 316.648438 L 172.925781 315.035156 L 171.140625 310.988281 L 178.480469 302.785156 L 175.453125 302.445312 L 169.332031 308.484375 L 168.964844 313.5625 L 170.960938 318.203125 L 178.332031 321.207031 L 186.65625 324.269531 L 188.503906 329.152344 L 184.53125 334.242188 L 182.585938 334.535156 L 185.769531 329.761719 L 182.402344 325.105469 L 174.980469 324.753906 L 171.710938 327.839844 L 171.191406 337.683594 Z M 50.066406 323.210938 L 48.886719 337.4375 L 49.140625 346.675781 L 53.769531 358.617188 L 65.824219 363.746094 L 79.757812 362.929688 L 88.808594 355.179688 L 91.019531 344.316406 L 92.308594 336.671875 L 90.398438 340.402344 L 86.839844 343.941406 L 80.667969 346.40625 L 78.507812 346.625 L 63.574219 344.863281 L 56.261719 340.636719 L 53.222656 336.078125 L 50.503906 321.835938 L 50.089844 323.1875 Z M 89.867188 312.859375 L 94.53125 314.910156 C 94.496094 317.425781 94.324219 320.28125 94.128906 322.808594 L 89.988281 335.59375 L 80.316406 341.933594 L 67.195312 341.195312 L 56.347656 335.75 L 53.589844 329.371094 L 52.277344 321.933594 L 53.941406 312.871094 L 57.089844 305.761719 L 58.4375 305.761719 C 58.4375 305.761719 61.484375 306.503906 61.484375 306.503906 L 62.371094 306.78125 L 64.253906 307.65625 L 69.394531 309.515625 L 81.675781 311.703125 C 81.675781 311.703125 85.785156 312.191406 89.867188 312.871094 Z M 75.042969 331.945312 L 72.871094 328.53125 L 69.296875 326.976562 L 65.675781 328.945312 L 65.300781 333.015625 L 69.867188 336.320312 L 72.46875 336.164062 L 75.03125 331.945312 Z M 101.152344 129.671875 C 101.152344 129.671875 105.441406 128.433594 105.488281 127.496094 C 104.980469 127.460938 99.0625 127.15625 99.0625 127.15625 L 95.550781 128.117188 L 91.007812 126.878906 C 91.007812 126.878906 85.371094 127.667969 84.082031 127.605469 C 85.941406 129.574219 92.246094 130.816406 92.246094 130.816406 L 97.519531 130.925781 L 101.140625 129.683594 Z M 53.210938 88.324219 L 66.03125 86.402344 L 69.722656 79.890625 L 68.289062 74.386719 C 66.429688 75.214844 63.308594 76.632812 63.308594 76.632812 C 63.308594 76.632812 59.382812 77.910156 57.050781 77.800781 C 58.65625 77.800781 61.898438 78.820312 61.898438 78.820312 L 64.800781 82.234375 C 64.800781 82.234375 65.070312 84.035156 64.269531 85.25 C 63.027344 84.8125 59.542969 83.21875 59.542969 83.21875 C 59.542969 83.21875 57.222656 80.875 57.171875 79.078125 C 57.0625 80.691406 56.382812 82.988281 56.382812 82.988281 C 56.382812 82.988281 54.039062 86.257812 51.632812 87.097656 C 51.914062 85.445312 52.664062 81.847656 52.664062 81.847656 C 52.664062 81.847656 55.898438 78.96875 57.304688 78.238281 C 56.1875 78.773438 54.015625 79.597656 54.015625 79.597656 L 49.375 79.941406 C 49.375 79.941406 47.234375 79.066406 46.226562 78.042969 C 47.925781 77.765625 51.621094 77.132812 51.621094 77.132812 C 51.621094 77.132812 53.855469 76.925781 55.859375 76.976562 C 54.816406 76.804688 53.878906 76.597656 53.878906 76.597656 L 50.808594 74.933594 C 50.808594 74.933594 48.9375 71.675781 49.140625 69.136719 C 50.175781 69.417969 51.765625 70.230469 51.765625 70.230469 L 54.742188 72.890625 L 55.703125 74.046875 C 55.703125 74.046875 55.980469 74.398438 56.347656 74.835938 C 55.898438 73.753906 55.738281 72.601562 55.738281 72.601562 L 56.417969 69.160156 C 56.417969 69.160156 57.851562 65.917969 58.605469 65.214844 C 58.957031 67.121094 59.238281 70.472656 59.238281 70.472656 C 59.238281 70.472656 58.957031 73.707031 58.121094 76.0625 C 59.082031 74.59375 61.035156 73.234375 61.035156 73.234375 L 64.546875 72.527344 C 64.546875 72.527344 67.011719 73.039062 68.191406 74.011719 L 66.710938 68.3125 C 66.710938 68.3125 62.980469 64.230469 61.753906 65.007812 C 59.640625 63 53.117188 64.542969 53.117188 64.542969 L 45.109375 73.085938 L 46.617188 83.207031 L 53.210938 88.335938 Z M 57.828125 76.574219 C 57.828125 76.574219 57.792969 76.5625 57.78125 76.550781 C 57.792969 76.5625 57.828125 76.597656 57.828125 76.597656 C 57.828125 76.597656 57.828125 76.585938 57.828125 76.574219 Z M 134.148438 88.3125 L 126.992188 79.34375 L 128.21875 67.523438 L 134.015625 62.757812 L 137.027344 62.660156 L 148.449219 66.246094 C 148.449219 66.246094 151.957031 69.746094 151.714844 72.234375 C 152.273438 72.101562 151.253906 79.066406 151.253906 79.066406 L 149.589844 83.355469 L 141.886719 88.871094 L 134.160156 88.324219 Z M 139.03125 76.550781 C 136.675781 77.605469 134.136719 80.765625 134.136719 80.765625 C 134.136719 80.765625 132.933594 83.488281 132.53125 85.25 C 134.621094 84.410156 138.15625 81.289062 138.15625 81.289062 C 138.15625 81.289062 139.589844 78.324219 139.066406 76.441406 C 139.601562 77.851562 140.476562 80.5 140.476562 80.5 C 140.476562 80.5 143.308594 83.742188 145.664062 85.042969 C 145.738281 84.132812 145.859375 81.652344 145.859375 81.652344 L 145.265625 79.027344 C 145.265625 79.027344 141.996094 77 139.664062 76.355469 C 141.523438 76.453125 144.460938 76.28125 144.460938 76.28125 C 144.460938 76.28125 145.8125 75.175781 146.78125 74.679688 C 147.949219 74.09375 148.800781 73.402344 148.980469 72.699219 C 146.90625 72.140625 143.113281 72.371094 143.113281 72.371094 C 143.113281 72.371094 140.597656 73.4375 139.589844 74.691406 C 139.347656 74.996094 139.117188 75.335938 138.898438 75.699219 C 138.898438 75.6875 138.898438 75.664062 138.886719 75.652344 C 139.957031 73.316406 140.476562 69.050781 140.476562 69.050781 C 140.476562 69.050781 138.691406 66.269531 138.21875 65.078125 C 137.464844 65.867188 136.652344 70.5 136.652344 70.5 C 136.652344 70.5 137.269531 73.171875 138.085938 74.835938 C 136.417969 72.78125 133.746094 69.941406 133.746094 69.941406 C 133.746094 69.941406 131.011719 68.433594 129.386719 68.761719 C 129.542969 69.867188 130.5625 71.714844 130.5625 71.714844 L 133.660156 74.351562 C 133.660156 74.351562 135.109375 74.910156 136.589844 75.308594 C 134.453125 75.261719 131.839844 75.808594 131.839844 75.808594 C 131.839844 75.808594 129.496094 76.464844 128.535156 76.851562 C 128.996094 78.105469 131.683594 78.578125 131.683594 78.578125 L 135.617188 77.910156 C 135.617188 77.910156 138.304688 76.949219 139.019531 76.574219 Z M 92.429688 68.503906 L 85.578125 58.96875 L 86.644531 49.78125 L 96.535156 43.632812 L 96.910156 43.574219 L 107.75 44.519531 L 112.679688 50.921875 L 113.824219 58.980469 L 109.4375 66.367188 L 99.597656 70.582031 L 92.429688 68.492188 Z M 91.785156 61.03125 L 96.5 60.21875 C 96.5 60.21875 97.761719 59.308594 98.503906 58.09375 C 98.066406 59.695312 97.859375 61.675781 97.859375 61.675781 C 97.859375 61.675781 98.003906 66.367188 98.054688 68.359375 C 99 67.484375 100.472656 65.503906 100.472656 65.503906 L 101.613281 62.40625 C 101.613281 62.40625 101.320312 61.3125 100.898438 59.976562 C 102.34375 61.96875 104.554688 63.535156 104.554688 63.535156 C 104.554688 63.535156 107.203125 64.886719 108.34375 65.445312 C 108.429688 63.65625 107.566406 61.019531 107.566406 61.019531 C 107.566406 61.019531 105.792969 58.6875 104.652344 57.996094 C 103.3125 57.179688 101.855469 56.902344 99.972656 56.660156 C 99.972656 56.648438 99.984375 56.621094 99.996094 56.609375 C 101.480469 56.660156 102.804688 56.488281 104.03125 56.136719 C 105.597656 55.6875 108.453125 54.082031 108.453125 54.082031 C 108.453125 54.082031 110.433594 52.808594 111.476562 52.113281 C 110.25 51.90625 107.859375 51.675781 107.859375 51.675781 L 103.058594 52.394531 C 103.058594 52.394531 100.605469 54.253906 99.765625 56.332031 C 99.765625 56.304688 99.742188 56.292969 99.730469 56.269531 C 100.121094 54.726562 101.226562 51.796875 101.226562 51.796875 L 101.066406 48.699219 C 101.066406 48.699219 99.902344 46.257812 99.257812 44.898438 C 98.40625 45.757812 97.507812 49.625 97.507812 49.625 C 97.507812 49.625 97.566406 51.921875 98.066406 53.902344 C 98.042969 53.902344 98.015625 53.902344 97.992188 53.886719 C 96.71875 51.921875 95.382812 50.316406 95.382812 50.316406 C 95.382812 50.316406 90.789062 49.671875 88.90625 49.828125 C 89.792969 50.984375 92.078125 52.757812 92.078125 52.757812 C 92.078125 52.757812 94.128906 54.761719 95.539062 55.429688 C 96.472656 55.882812 97.761719 56.050781 98.84375 56.355469 C 98.84375 56.367188 98.84375 56.390625 98.855469 56.402344 C 97.300781 56.5 94.421875 56.976562 94.421875 56.976562 C 94.421875 56.976562 88.722656 58.90625 88.089844 60.9375 C 89.101562 60.960938 91.761719 61.03125 91.761719 61.03125 Z M 97.578125 189.46875 C 99.644531 186.792969 98.101562 185.90625 96.183594 186.050781 C 95.332031 185.894531 94.773438 186.210938 94.628906 186.515625 L 94.46875 186.671875 C 93.605469 188.53125 95.066406 191.289062 97.566406 189.46875 Z M 96.984375 240.890625 L 96.597656 240.660156 C 93.984375 239.152344 93.425781 245.371094 97.167969 244.949219 C 99.390625 244.304688 99.292969 240.730469 96.984375 240.890625 Z M 98.5625 262.871094 C 101.734375 262.917969 101.359375 258.167969 98.5625 258.132812 L 98.371094 258.132812 C 95.199219 258.214844 95.476562 262.820312 98.5625 262.871094 Z M 292.570312 289.941406 C 289.226562 289.492188 284.355469 288.582031 284.355469 288.582031 L 270.105469 284.183594 L 256.875 276.027344 L 254.410156 274.171875 L 256.609375 277.886719 L 264.140625 296.210938 L 267.847656 306.359375 C 269.085938 305.140625 270.375 303.988281 271.453125 303.285156 C 271.757812 303.089844 272.074219 302.894531 272.390625 302.699219 L 269.851562 300.074219 L 270.738281 295.289062 L 277.429688 289.152344 L 287.355469 289.613281 L 290.273438 296.746094 L 287.769531 300.949219 L 287.246094 300.949219 C 287.308594 301.023438 287.382812 301.097656 287.464844 301.132812 C 288.027344 301.449219 289.640625 302.238281 291.464844 303.136719 C 291.183594 299.832031 291.425781 296.601562 291.875 293.308594 C 292.046875 292.117188 292.289062 290.976562 292.570312 289.941406 Z M 293.226562 628.742188 L 294.609375 635.144531 L 294.585938 642.984375 L 290.210938 648 L 275.78125 651.027344 L 269.839844 649.679688 L 263.109375 643.859375 L 259.960938 640.042969 L 258.40625 635.800781 L 256.984375 630.527344 L 257.023438 629.542969 L 259.9375 634.246094 C 261.976562 631.960938 266.742188 627.746094 266.742188 627.746094 L 281.78125 625.109375 C 281.78125 625.109375 290.613281 626.605469 292 626.917969 C 292 626.796875 292 626.664062 292.011719 626.542969 C 292.105469 626.714844 292.203125 626.882812 292.289062 627.042969 C 292.789062 627.355469 293.078125 627.964844 293.226562 628.730469 Z M 291.535156 639.726562 C 291.535156 639.726562 291.597656 637.671875 291.683594 634.890625 C 288.816406 633.871094 282.449219 633.773438 282.449219 633.773438 L 271.078125 635.207031 C 271.078125 635.207031 267.519531 638.085938 265.429688 640.46875 L 271.308594 645.0625 L 283.25 645.449219 L 288.753906 643.503906 Z M 148.554688 181.484375 L 146.746094 182.527344 L 144.679688 200.875 L 150.863281 219.613281 L 154.109375 226.941406 L 156.003906 224.960938 L 155.359375 223.429688 L 151.386719 213.671875 L 148.242188 199.296875 L 149.503906 187.984375 L 148.570312 181.472656 Z M 151.351562 251.617188 L 159.222656 258.226562 L 170.121094 258.738281 L 183.144531 252.53125 L 177.8125 243.332031 L 158.847656 227.195312 L 147.488281 239.273438 Z M 285.328125 183.148438 C 286.675781 183.320312 287.878906 182.347656 288 180.949219 C 288.160156 179.5625 287.078125 178.375 285.753906 178.3125 C 284.40625 178.25 283.3125 179.234375 283.164062 180.511719 C 283.054688 181.789062 284.015625 182.964844 285.339844 183.136719 Z M 280.859375 193.539062 C 280.566406 194.800781 281.28125 196.113281 282.582031 196.476562 C 283.859375 196.84375 285.242188 196.078125 285.558594 194.742188 C 285.886719 193.402344 285.097656 192.089844 283.785156 191.789062 C 282.484375 191.496094 281.160156 192.285156 280.859375 193.539062 Z M 279.898438 204.835938 C 278.632812 204.375 277.238281 204.996094 276.777344 206.210938 C 276.300781 207.425781 276.871094 208.8125 278.125 209.34375 C 279.351562 209.867188 280.796875 209.273438 281.308594 207.996094 C 281.792969 206.707031 281.171875 205.300781 279.910156 204.835938 Z M 271.078125 218.15625 C 270.433594 219.261719 270.808594 220.742188 271.929688 221.449219 C 273.070312 222.175781 274.5625 221.800781 275.28125 220.597656 C 275.996094 219.40625 275.535156 217.886719 274.359375 217.253906 C 273.167969 216.613281 271.746094 217.050781 271.078125 218.15625 Z M 263.679688 229.308594 C 262.902344 230.378906 263.144531 231.898438 264.226562 232.6875 C 265.308594 233.488281 266.824219 233.246094 267.617188 232.152344 C 268.417969 231.058594 268.148438 229.527344 267.054688 228.761719 C 265.949219 227.984375 264.457031 228.238281 263.679688 229.308594 Z M 259.476562 243.113281 C 260.265625 242.042969 260.046875 240.523438 258.976562 239.722656 C 257.910156 238.921875 256.378906 239.140625 255.574219 240.222656 C 254.773438 241.300781 255.003906 242.832031 256.085938 243.625 C 257.167969 244.414062 258.671875 244.183594 259.476562 243.125 Z M 247.691406 251.546875 C 246.9375 252.6875 247.339844 254.230469 248.480469 254.910156 C 249.648438 255.605469 251.09375 255.238281 251.808594 254.144531 C 252.515625 253.039062 252.175781 251.546875 251.070312 250.804688 C 249.949219 250.0625 248.445312 250.390625 247.703125 251.546875 Z M 242.25 267.011719 C 243.476562 267.558594 244.910156 266.976562 245.457031 265.808594 C 246.003906 264.632812 245.457031 263.199219 244.265625 262.601562 C 243.0625 262.007812 241.617188 262.542969 241.035156 263.792969 C 240.4375 265.042969 241.035156 266.464844 242.25 267.011719 Z M 236.367188 279.285156 C 237.535156 279.953125 239.042969 279.492188 239.671875 278.265625 C 240.304688 277.039062 239.804688 275.566406 238.605469 274.984375 C 237.402344 274.402344 235.957031 274.886719 235.359375 276.027344 C 234.765625 277.183594 235.203125 278.617188 236.367188 279.273438 Z M 231.789062 286.78125 C 230.621094 286.113281 229.128906 286.539062 228.472656 287.765625 C 227.816406 288.992188 228.300781 290.488281 229.515625 291.070312 C 230.730469 291.644531 232.152344 291.195312 232.761719 290.050781 C 233.367188 288.910156 232.941406 287.449219 231.777344 286.78125 Z M 192.476562 184.363281 C 191.78125 179.589844 193.191406 179.078125 188.914062 176.855469 C 185.757812 180.667969 188.515625 182.601562 192.476562 184.363281 Z M 198.890625 192.140625 C 197.820312 187.597656 197.84375 185.710938 193.335938 185.832031 C 192.402344 190.246094 194.5625 190.753906 198.890625 192.140625 Z M 199.875 193.523438 C 199.242188 198.347656 201.0625 197.949219 205.351562 199.890625 C 204.648438 195.191406 204.355469 193.183594 199.875 193.523438 Z M 209.96875 208.859375 C 209.96875 204.570312 210.757812 202.078125 206.128906 201.398438 C 204.453125 205.75 205.8125 206.164062 209.96875 208.859375 Z M 215.15625 217.5 C 214.769531 212.855469 215.097656 210.972656 210.613281 210.425781 C 209.046875 214.632812 211.074219 215.480469 215.15625 217.5 Z M 220.816406 225.871094 C 220.308594 221.21875 220.453125 219.261719 215.945312 219.019531 C 214.660156 223.320312 216.722656 223.964844 220.816406 225.871094 Z M 226.578125 234.144531 C 225.882812 229.566406 226.164062 227.570312 221.621094 227.367188 C 220.378906 231.628906 222.347656 232.394531 226.578125 234.144531 Z M 227.476562 235.589844 C 226.636719 240.050781 228.824219 240.355469 233.027344 241.910156 C 232.128906 237.269531 231.957031 235.371094 227.476562 235.589844 Z M 233.914062 243.355469 C 232.761719 248.023438 235.042969 247.984375 238.605469 250.316406 C 238.578125 245.980469 238.53125 243.257812 233.914062 243.355469 Z M 239.222656 251.898438 C 237.449219 256.003906 238.628906 256.089844 242.382812 258.582031 C 242.578125 253.878906 243.695312 252.664062 239.222656 251.898438 Z M 250.15625 273.5 C 250.386719 269.152344 251.347656 268.226562 247.339844 267.414062 C 245.636719 271.191406 246.792969 271.144531 250.15625 273.5 Z M 253.996094 282.007812 C 254.25 277.65625 254.664062 275.859375 250.667969 274.996094 C 248.929688 278.75 250.65625 279.625 253.996094 282.007812 Z M 257.785156 290.539062 C 258.054688 286.1875 258.46875 284.402344 254.480469 283.515625 C 252.722656 287.257812 254.445312 288.144531 257.785156 290.539062 Z M 261.589844 299.054688 C 261.84375 294.703125 262.269531 292.917969 258.285156 292.03125 C 256.523438 295.773438 258.238281 296.671875 261.589844 299.054688 Z M 265.464844 307.535156 C 265.609375 303.199219 266.085938 301.425781 262.074219 300.550781 C 260.339844 304.292969 262.039062 305.226562 265.464844 307.535156 Z M 102.390625 552.324219 L 103.375 539.542969 L 101.25 527.40625 L 98.660156 517.394531 L 99.632812 505.386719 L 103.472656 487.890625 L 102.367188 488.375 L 91.054688 491.230469 L 80.777344 492.542969 L 76.28125 492.214844 L 74.351562 491.863281 L 68.59375 491.160156 L 67.027344 498.753906 L 68.433594 503.992188 L 73.648438 521.039062 L 74.207031 522.15625 L 83.804688 541.425781 L 87.410156 555.484375 L 88.214844 571.160156 L 85.648438 577.417969 L 80.4375 581.003906 C 80.4375 581.003906 74.910156 581.160156 71.132812 583.175781 C 74.714844 585.328125 79.234375 586.347656 79.234375 586.347656 L 87.460938 589.921875 L 90.195312 595.21875 L 98.550781 594.902344 L 98.550781 593.203125 C 98.550781 593.203125 98.941406 577.660156 98.941406 577.660156 L 101.710938 565.351562 L 102.414062 552.339844 Z M 132.121094 482.445312 L 118.914062 482.933594 C 118.914062 482.933594 111.671875 483.394531 107.394531 483.382812 C 106.179688 488.484375 104.675781 496.492188 104.675781 496.492188 L 103.121094 503.894531 L 101.359375 510.953125 L 106.375 535 L 105.757812 557.332031 L 103.921875 569.738281 L 102.804688 584.320312 L 100.910156 600.296875 C 100.910156 600.296875 100.933594 602.496094 100.992188 604.878906 C 104.238281 602.253906 109.171875 599.691406 109.171875 599.691406 L 117.320312 598.121094 L 127.648438 601.960938 C 127.648438 601.960938 130.308594 603.84375 132.691406 605.242188 C 132.398438 604.089844 132.046875 603.152344 132.046875 603.152344 L 129.921875 597.199219 L 129.117188 584.160156 L 131.753906 572.703125 L 137.527344 560.976562 L 140.660156 550.746094 L 142.421875 537.695312 L 148.714844 511.71875 L 153.015625 499.359375 L 154.4375 489.882812 L 143.671875 484.160156 L 132.121094 482.433594 Z M 90.738281 376.359375 C 90.738281 376.359375 90.738281 376.417969 90.738281 376.457031 L 90.738281 376.480469 C 90.738281 376.480469 90.738281 376.40625 90.738281 376.359375 Z M 95.636719 424.972656 L 94.421875 402.835938 L 91.203125 384.316406 L 90.789062 378.898438 L 90.726562 376.964844 C 90.726562 376.964844 90.738281 376.675781 90.726562 376.46875 L 89.804688 372.761719 L 88.164062 374.886719 L 88.359375 382.714844 L 89.550781 395.554688 L 91.324219 420.832031 L 93.621094 431.121094 L 94.140625 439.835938 L 93.375 445.230469 L 94.128906 452.859375 L 96.898438 459.128906 L 99.269531 465.132812 L 101.988281 470.417969 L 105.523438 474.914062 C 105.523438 474.914062 105.695312 476.371094 105.925781 478.230469 L 106.632812 477.308594 L 108.648438 477.222656 C 108.40625 475 108.246094 473.140625 108.246094 473.140625 L 106.679688 469.191406 L 103.070312 464.828125 L 101.078125 460.5625 L 98.539062 454.328125 L 96.171875 448.753906 L 96.597656 442.738281 L 95.660156 424.984375 Z M 90.753906 376.492188 C 90.800781 377.113281 90.753906 376.492188 90.753906 376.492188 Z M 161.847656 386.808594 L 167.789062 418.972656 L 157.863281 445.957031 L 151.035156 455.691406 L 151.035156 463.746094 C 151.035156 463.746094 152.589844 474.367188 151.75 482.058594 L 149.210938 480.625 C 150.5 472.433594 147.949219 459.226562 147.949219 459.226562 L 149.878906 449.640625 L 154.851562 441.910156 L 162.539062 422.53125 L 160.742188 400.660156 L 159.222656 389.164062 L 160.195312 377.269531 L 163.136719 354.875 L 162.613281 343.902344 L 159.855469 333.40625 C 159.855469 333.40625 158.542969 328.957031 156.964844 323.78125 C 148.070312 327.195312 139.25 330.101562 139.25 330.101562 L 111.210938 335.921875 L 94.796875 334.667969 L 95.003906 333.515625 L 95.027344 333.125 C 96.707031 332.957031 98.660156 332.566406 100.011719 332.566406 C 102.828125 332.554688 101.101562 330.964844 101.675781 330.378906 C 99.511719 330.527344 97.347656 330.550781 95.210938 330.539062 L 95.382812 328.011719 L 96.582031 323.355469 L 96.582031 323.222656 C 97.226562 322.992188 97.59375 322.617188 98.976562 322.652344 L 100.421875 320.0625 C 98.78125 320.222656 98.054688 320.089844 96.972656 320.003906 L 97.058594 319.238281 L 97.214844 317.453125 C 98.648438 317.304688 99.21875 316.699219 101.164062 316.648438 C 101.480469 315.882812 101.808594 315.144531 102.113281 314.351562 C 100.191406 314.597656 99.050781 314.304688 97.496094 314.195312 L 97.675781 312.105469 L 95.492188 309.480469 L 92.574219 308.957031 L 90.535156 308.289062 L 84.945312 307.28125 L 76.101562 305.921875 L 73.257812 305.386719 L 60.417969 301.644531 L 60.320312 301.617188 L 57.949219 300.707031 L 54.5625 299.832031 L 53.382812 302.105469 L 52.105469 308.945312 L 48.5 319.175781 L 47.210938 333.285156 L 47.164062 334.074219 L 46.980469 334.074219 C 46.980469 334.074219 43.421875 332.070312 43.421875 332.070312 L 42.582031 338.800781 C 42.691406 340.308594 42.765625 341.316406 42.765625 341.316406 L 42.558594 351.496094 C 42.558594 351.496094 42.617188 354.339844 42.558594 357.015625 L 44.78125 370.878906 L 45.242188 392.980469 L 49.871094 412.3125 L 51.378906 422.847656 L 53.988281 431.074219 L 63.492188 448.023438 L 72.164062 464.65625 L 72.785156 474.671875 C 72.785156 474.671875 70.925781 479.808594 70.984375 482.398438 C 70.984375 482.945312 71.144531 483.066406 71.4375 483.550781 C 71.59375 483.820312 72.152344 484.550781 72.542969 484.925781 C 72.785156 485.167969 73.074219 485.398438 73.367188 485.628906 L 70.511719 485.144531 L 68.789062 485.691406 C 68.242188 483.699219 68.191406 481.523438 68.554688 479.371094 C 69.03125 476.515625 70.585938 470.710938 70.585938 470.710938 L 67.9375 463.457031 L 57.960938 446.128906 L 50.015625 429.640625 L 48.183594 419.652344 L 45.960938 409.394531 L 43.347656 399.847656 L 42.507812 388.945312 L 39.339844 355.847656 C 37.078125 354.71875 35.085938 353.539062 35.085938 353.539062 L 31.015625 344.472656 C 31.015625 344.472656 32.460938 337.765625 32.960938 332.289062 L 25.257812 331.21875 L 21.222656 328.957031 L 23.070312 306.722656 L 22.003906 294.667969 L 21.066406 278.691406 L 21.6875 257.28125 L 21.371094 239.128906 L 24.785156 216.941406 L 27.980469 183.027344 L 28.296875 179.953125 C 28.296875 179.953125 28.320312 179.671875 28.332031 179.429688 C 28.332031 179.429688 28.355469 178.980469 28.355469 178.980469 L 28.40625 175.761719 L 28.40625 167.59375 C 28.40625 167.59375 33.375 152.175781 33.375 152.175781 L 43.699219 146.039062 L 62.675781 145.347656 L 65.105469 144.945312 L 70.511719 143.015625 L 70.765625 144.035156 L 71.21875 144.605469 L 75.25 156.636719 L 78.652344 160.65625 L 86.660156 164.945312 L 93.28125 164.945312 C 93.28125 164.945312 93.304688 165.140625 93.304688 165.140625 L 93.582031 165.019531 L 98.722656 162.347656 L 107.238281 157.910156 L 112.414062 153.574219 L 117.117188 147.316406 L 120.492188 144.726562 L 122.253906 143.597656 L 123.421875 143.644531 L 128.339844 145.175781 L 128.742188 145.203125 L 136.019531 143.851562 L 143.222656 144.679688 L 142.699219 145.613281 L 146.03125 145.640625 L 156.683594 144.691406 L 164.628906 147.777344 L 180.035156 160.136719 L 184.238281 169.054688 L 183.898438 182.710938 L 184.652344 182.261719 C 189.316406 188.773438 195.269531 198.894531 195.269531 198.894531 L 200.324219 207.050781 L 211.257812 227.558594 L 234.59375 256.636719 L 221.679688 267.863281 L 209.253906 274.851562 L 191.710938 278.242188 L 191.671875 277.839844 L 187.578125 271.726562 L 187.433594 271.300781 L 177.070312 278.96875 L 159.890625 284.425781 L 143.804688 289.699219 C 143.804688 289.699219 134.113281 293.953125 129.3125 295.664062 C 125.644531 296.976562 119.765625 299.964844 115.792969 299.417969 C 115.683594 299.40625 115.195312 297.742188 114.613281 295.53125 L 108.199219 296.902344 L 92.210938 300.683594 C 92.210938 300.683594 80.0625 303.816406 78.566406 300.839844 C 78.96875 297.632812 85.1875 285.007812 85.1875 285.007812 L 92.867188 277.292969 L 107.433594 274.351562 C 105.648438 270.695312 104.359375 268.519531 104.359375 268.519531 L 104.601562 264.351562 L 117.699219 258.679688 L 131.730469 256.890625 L 144.074219 251.945312 L 147.257812 250.039062 L 148.363281 253.695312 L 148.460938 253.914062 L 148.15625 254.109375 L 142.179688 257.695312 L 130.152344 261.59375 L 117.261719 263.34375 C 117.261719 263.34375 111.308594 265.507812 107.175781 267.609375 C 111.1875 274.085938 113.167969 276.320312 116.398438 284.851562 C 116.265625 284.71875 116.691406 288.664062 117.019531 291.910156 L 118.453125 294.730469 L 117.296875 294.972656 C 117.347656 295.652344 117.371094 296.066406 117.320312 296.015625 C 119.144531 296.273438 121.074219 293.539062 122.851562 293.125 C 127.003906 292.152344 135 289.101562 135 289.101562 L 150.902344 282.980469 L 175.332031 275.726562 L 187.894531 266.261719 L 192.707031 257.886719 L 187.832031 230.523438 L 183.460938 216.054688 L 181.25 210.316406 L 181.1875 205.140625 L 181.808594 199.734375 L 182.039062 195.761719 L 181.117188 192.019531 L 180.3125 186.964844 L 177.566406 165.324219 L 160.402344 149.769531 L 157.59375 150 C 153.855469 156.355469 146.636719 165.300781 146.636719 165.300781 L 137.488281 174.910156 L 122.21875 195.796875 L 105.609375 213.757812 L 100.253906 218.910156 L 106.414062 223.574219 L 120.117188 231.203125 L 129.058594 238.53125 L 134.78125 242.445312 L 137.792969 248.023438 C 137.792969 248.023438 139.992188 250.402344 140.757812 250.464844 C 138.863281 252.457031 133.347656 254.109375 133.347656 254.109375 L 126.347656 252.773438 L 118.0625 247.828125 L 111.574219 245.640625 L 94.007812 231.617188 L 90.582031 229.210938 L 90.945312 241.507812 L 92.390625 254.535156 L 93.511719 268.800781 L 91.566406 273.222656 L 89.707031 273.5625 L 89.292969 258.871094 L 87.023438 246.054688 L 86.914062 231.339844 L 77.242188 240.34375 L 64.132812 251.847656 C 64.132812 251.847656 56.722656 260.0625 51.585938 262.773438 L 53.152344 273.476562 L 54.488281 294.839844 C 57.28125 296.746094 60.78125 298.703125 60.78125 298.703125 L 69.457031 302.3125 L 84.167969 305.519531 L 100.375 304.195312 L 123.847656 299.773438 L 133.554688 295.421875 C 133.554688 295.421875 144.511719 291.945312 150.902344 291.484375 C 151.835938 298.507812 155.019531 308.777344 155.019531 308.777344 C 155.019531 308.777344 157.65625 316.003906 159.261719 322.3125 L 160.449219 321.617188 C 163.574219 326.550781 166.511719 339.335938 166.511719 339.335938 L 164.980469 364.195312 L 163.257812 375.617188 L 161.8125 386.734375 Z M 113.871094 241.4375 C 116.421875 242.152344 118.742188 243.597656 121.308594 244.375 C 123.992188 245.203125 126.53125 246.210938 129.167969 247.183594 C 126.714844 244.875 124.828125 241.8125 122.523438 239.347656 C 121.246094 237.984375 119.300781 236.515625 118.402344 234.851562 C 118.816406 235.203125 114.988281 239.515625 113.871094 241.4375 Z M 65.566406 244.023438 C 64.925781 241.886719 63.015625 239.90625 61.65625 238.375 C 61.085938 236.953125 58.460938 240.707031 58.011719 241.203125 C 55.035156 244.523438 53.019531 248.53125 51.304688 252.84375 C 52.652344 251.875 54.113281 250.828125 55.546875 249.964844 C 58.777344 248.046875 62.601562 246.441406 65.566406 244.023438 Z M 82.296875 229.832031 C 80.609375 228.640625 77.632812 224.425781 75.664062 224.730469 C 70.78125 228.375 67.121094 234.363281 66.855469 240.074219 C 68.910156 237.804688 71.265625 236.441406 73.925781 234.800781 C 76.015625 233.511719 78.117188 232.25 80.171875 230.914062 C 80.851562 230.476562 81.484375 229.90625 82.296875 229.820312 Z M 72.710938 197.304688 L 86.707031 207.28125 L 87.300781 206.722656 L 86.5 202.992188 L 87.328125 197.339844 L 88.164062 193.234375 C 88.164062 193.234375 88.335938 191.945312 88.394531 191.144531 C 88.394531 191.09375 88.40625 190.683594 88.40625 190.683594 L 88.433594 189.480469 L 88.359375 185.300781 L 88.308594 176.757812 L 87.546875 177.863281 L 82.964844 186.792969 L 80.183594 191.582031 L 77.886719 193.683594 L 72.308594 186.003906 L 66.734375 178.019531 L 61.960938 173.621094 L 56.6875 161.214844 L 51.21875 151.351562 L 51.246094 151.15625 L 48.230469 151.75 L 48.390625 152.1875 C 48.390625 152.1875 48.621094 152.261719 48.707031 152.25 L 49.265625 163.003906 L 55.351562 175.261719 L 62.480469 185.382812 L 72.722656 197.304688 Z M 68.992188 199.5625 C 67.0625 197.230469 65.179688 194.851562 63.296875 192.527344 C 61.886719 193.632812 60.027344 196.285156 58.449219 196.660156 C 58.132812 196.855469 58.011719 196.792969 57.851562 196.84375 C 58.4375 199.164062 61.449219 199.308594 63.308594 200.0625 C 66.273438 201.265625 69.054688 203.136719 72.199219 203.804688 C 71.8125 202.371094 69.964844 200.71875 69.007812 199.5625 Z M 39.253906 159.855469 C 39.871094 160.597656 40.296875 161.277344 40.761719 162.128906 C 41.851562 164.121094 42.507812 166.9375 44.296875 168.410156 C 44.453125 164.167969 45.339844 159.648438 44.488281 155.445312 C 42.910156 157.109375 39.996094 157.132812 38.28125 158.335938 C 37.84375 158.375 38.972656 159.515625 39.253906 159.84375 Z M 44.792969 177.109375 C 45.167969 177.8125 46.09375 178.289062 46.652344 178.847656 C 47.550781 179.734375 48.242188 181.023438 48.972656 182.066406 C 50.964844 184.945312 53.757812 185.992188 56.710938 187.488281 C 55.65625 185.191406 53.746094 183.246094 52.703125 180.828125 C 51.695312 178.507812 51.039062 175.738281 49.871094 173.5625 C 48.21875 174.460938 46.664062 176.722656 44.792969 177.109375 Z M 75.664062 213.597656 C 76.792969 214.972656 78.398438 215.871094 80 216.601562 C 81.945312 217.5 84.800781 218.179688 86.949219 219.40625 L 88.554688 219.78125 C 87.96875 218.203125 87.4375 216.5625 86.597656 215.054688 C 85.371094 212.855469 83.71875 210.875 82.175781 208.90625 C 80.777344 209.769531 76.050781 213.476562 75.675781 213.574219 Z M 100.898438 223.34375 C 100.410156 223.78125 99.816406 224.265625 99.269531 224.714844 C 98.089844 225.726562 95.210938 228.894531 94.917969 228.773438 C 95.929688 229.855469 98.101562 230.136719 99.476562 230.632812 C 102.574219 231.75 105.5625 233.441406 108.660156 234.484375 C 107.566406 230.207031 103.109375 227.050781 100.882812 223.34375 Z M 111.601562 201.738281 C 111.746094 200.511719 109.800781 199.710938 109 198.773438 C 108.257812 197.910156 106.523438 196.574219 106.21875 196.027344 C 104.238281 197.183594 102.511719 200.453125 101.566406 201.945312 C 99.925781 204.535156 98.285156 207.171875 96.523438 209.625 C 99.449219 208.058594 102.414062 206.585938 105.390625 205.09375 C 106.933594 204.316406 108.476562 203.660156 109.910156 202.6875 C 110.507812 202.285156 111.503906 202.433594 111.585938 201.726562 Z M 138.65625 152.152344 L 139.191406 151.570312 L 138.921875 151.59375 Z M 125.886719 186.695312 C 125.121094 186.050781 124.234375 185.359375 123.445312 184.617188 C 122.460938 183.707031 120.214844 182.324219 119.691406 181.460938 C 119.21875 181.203125 116.691406 185.929688 116.132812 186.78125 C 114.601562 189.101562 112.328125 192.359375 111.964844 195.105469 C 114.003906 193.34375 116.53125 191.726562 118.9375 190.4375 C 121.089844 189.285156 123.613281 187.472656 125.875 186.707031 Z M 139.820312 168.773438 C 137.441406 167.15625 134.402344 165.882812 131.804688 164.703125 C 131.414062 165.519531 130.199219 168.640625 129.226562 170.464844 C 127.710938 173.320312 126.714844 176.210938 126.398438 179.429688 C 128.472656 177.035156 129.933594 175.128906 132.738281 173.390625 C 135.109375 171.921875 137.332031 170.011719 139.820312 168.785156 Z M 144.949219 151.105469 L 141.304688 151.410156 C 141.4375 155.394531 138.316406 158.46875 138.167969 161.882812 C 140.40625 159.464844 143.769531 158.105469 146.332031 156.027344 C 148.144531 154.570312 149.84375 152.90625 151.75 151.703125 C 149.480469 151.554688 147.207031 151.324219 144.949219 151.105469 Z M 94.167969 169.308594 L 95.054688 170.378906 L 101.019531 181.179688 C 101.019531 181.179688 103.398438 185.457031 105.234375 188.007812 C 106.910156 185.359375 109.742188 181.859375 109.742188 181.859375 L 118.292969 174.875 L 124.148438 166.695312 L 131.886719 157.390625 L 135.777344 151.433594 L 122.644531 149.382812 L 122.144531 147.886719 L 118.890625 150.789062 L 113.335938 156.769531 L 101.03125 165.808594 L 94.152344 169.308594 Z M 93.339844 173.9375 L 93.390625 174.449219 L 92.308594 189.710938 L 91.082031 199.964844 L 90.59375 203.660156 L 99.339844 195.53125 L 103.714844 190.996094 L 100.445312 185.847656 L 96.898438 178.933594 L 93.328125 173.925781 Z M 69.578125 147.132812 L 69.527344 147.097656 L 62.980469 148.808594 L 53.878906 150.621094 C 53.941406 150.753906 53.988281 150.875 54.050781 151.007812 C 54.851562 152.832031 55.738281 154.910156 55.738281 154.910156 L 59.46875 159.769531 L 65.046875 171.070312 L 67.886719 174.265625 L 71.8125 179.746094 L 75.238281 184.921875 L 77.011719 187.074219 C 77.011719 187.074219 78.019531 188.179688 78.554688 188.457031 C 80.121094 186.1875 82.222656 181.996094 82.222656 181.996094 L 85.40625 175.738281 L 89.378906 169.890625 L 89.511719 169.199219 C 86.523438 168.785156 83.535156 168.167969 83.535156 168.167969 L 77.28125 164.339844 L 71.703125 155.820312 L 69.578125 147.109375 Z M 26.132812 325.265625 C 30.226562 325.652344 36.945312 326.757812 36.945312 326.757812 L 41.695312 326.066406 L 44.609375 321.65625 L 48.363281 309.734375 L 50.855469 296.601562 L 49.566406 267.109375 L 47.054688 252.03125 L 45.558594 236.988281 C 45.558594 236.988281 45.277344 222.808594 45.097656 212.40625 L 45.011719 212.214844 L 45.011719 207.144531 L 45.265625 205.542969 L 47.683594 207.144531 L 48.621094 241.617188 L 56.019531 234.375 L 69.007812 224.316406 L 75.105469 218.335938 L 59.761719 203.429688 L 52.253906 195.640625 L 42.875 181.53125 L 37.320312 167.292969 L 34.757812 158.578125 L 33.96875 159.683594 L 33.082031 174.265625 L 32.195312 196.476562 L 29.097656 218.664062 L 25.585938 245.882812 L 24.808594 270.390625 L 26.351562 288.507812 L 25.683594 308.324219 C 25.683594 308.324219 25.113281 318.957031 26.144531 325.289062 Z M 152.164062 312.507812 C 148.628906 313.902344 145.214844 315.019531 141.765625 316.164062 C 138.316406 317.28125 134.863281 318.351562 131.402344 319.394531 C 127.941406 320.441406 124.476562 321.449219 120.980469 322.421875 C 119.21875 322.90625 117.527344 323.394531 115.597656 323.832031 C 113.726562 324.253906 111.878906 324.582031 110.03125 324.851562 C 109.582031 325.445312 109.121094 326.042969 108.648438 326.636719 C 110.566406 326.492188 112.488281 326.320312 114.453125 326.03125 C 115.425781 325.90625 116.421875 325.726562 117.429688 325.53125 C 118.453125 325.347656 119.277344 325.15625 120.214844 324.960938 C 123.847656 324.195312 127.429688 323.378906 131.027344 322.542969 C 134.621094 321.703125 138.207031 320.828125 141.789062 319.90625 C 145.398438 318.96875 148.957031 318.035156 152.734375 316.84375 C 152.566406 315.386719 152.382812 313.925781 152.175781 312.492188 Z M 150.816406 306.734375 C 147.960938 307.914062 145.847656 309.214844 142.808594 310.234375 C 139.761719 311.242188 135.714844 311.945312 132.628906 312.894531 C 129.542969 313.84375 126.457031 314.765625 123.359375 315.652344 L 118.707031 316.964844 C 117.152344 317.402344 115.597656 317.816406 114.113281 318.15625 C 113.726562 318.871094 113.324219 319.578125 112.898438 320.28125 C 116.167969 319.871094 119.898438 319.761719 123.117188 319.078125 C 126.335938 318.363281 129.058594 316.964844 132.265625 316.199219 C 138.703125 314.632812 145.070312 313.101562 151.53125 311.046875 C 151.3125 309.601562 151.097656 308.179688 150.816406 306.746094 Z M 118.464844 306.042969 C 123.324219 304.972656 131.160156 301.65625 135.996094 300.453125 C 138.398438 299.84375 140.210938 300.378906 142.554688 299.734375 C 143.722656 299.417969 144.898438 299.089844 145.992188 298.761719 C 147.109375 298.433594 148.167969 298.09375 148.882812 297.851562 C 148.789062 297.511719 148.570312 297.207031 148.410156 296.890625 L 148.132812 296.429688 L 148.046875 296.296875 C 147.71875 295.652344 147.390625 295.019531 147.097656 294.375 L 146.953125 294.0625 L 146.964844 294.0625 C 146.964844 294.0625 147 294.035156 147 294.035156 L 147.0625 294.011719 L 146.671875 294.183594 L 146.46875 294.28125 L 146.140625 294.414062 L 145.484375 294.667969 C 144.546875 295.03125 143.515625 295.410156 142.445312 295.773438 C 140.320312 296.515625 137.003906 296.953125 134.753906 297.667969 C 130.261719 299.117188 126.773438 300.816406 122.207031 302.152344 C 121.769531 303.125 118.9375 305.09375 118.464844 306.042969 Z M 117.164062 313.210938 C 122.765625 312.03125 128.402344 310.730469 134.015625 309.371094 C 136.808594 308.679688 139.578125 307.246094 142.347656 306.503906 C 145.09375 305.761719 147.960938 305.726562 150.441406 304.863281 C 150.113281 303.453125 149.832031 302.03125 149.320312 300.707031 C 148.957031 300.867188 148.507812 301.085938 147.914062 301.304688 C 147.367188 301.523438 146.769531 301.753906 146.152344 301.972656 C 144.9375 302.421875 143.660156 302.871094 142.371094 303.308594 C 139.808594 304.183594 135.519531 305.519531 132.898438 306.34375 C 127.636719 307.996094 123.980469 309.089844 118.683594 310.585938 C 118.195312 311.472656 117.6875 312.347656 117.175781 313.210938 Z M 108.148438 308.105469 C 109.472656 308.011719 110.785156 307.902344 112 307.730469 C 113.300781 307.574219 114.199219 307.425781 115.792969 307.097656 L 117.007812 304.378906 C 113.703125 305.3125 111.855469 305.773438 109.085938 306.199219 C 108.804688 306.855469 108.488281 307.488281 108.148438 308.105469 Z M 105.332031 313.1875 C 104.953125 313.734375 104.445312 314.972656 104.042969 315.496094 C 106.984375 315.398438 111.636719 314.472656 114.429688 314.097656 C 114.832031 313.320312 113.59375 312.589844 113.90625 311.789062 C 111.257812 312.421875 108.308594 312.859375 105.332031 313.175781 Z M 104.261719 309.527344 C 104.542969 308.996094 104.84375 307.667969 105.136719 307.125 C 102.550781 307.414062 99.828125 308.421875 97.128906 308.53125 L 96.449219 310.378906 C 99.011719 310.441406 101.746094 309.601562 104.261719 309.527344 Z M 100.835938 322.433594 C 103.703125 322.382812 107.007812 321.351562 109.875 321.085938 C 110.421875 320.429688 111.976562 319.164062 112.414062 318.449219 C 109.632812 318.910156 105.660156 319.734375 102.816406 319.964844 C 102.304688 320.5 101.359375 321.921875 100.835938 322.433594 Z M 105.707031 327.085938 C 106.375 326.539062 107.019531 325.992188 107.664062 325.433594 C 104.589844 325.800781 99.972656 325.128906 96.910156 325.277344 L 96.597656 328.070312 C 99.328125 328.121094 102.949219 327.195312 105.707031 327.085938 Z M 155.238281 323.269531 L 154.765625 318.910156 C 150.621094 320.476562 146.769531 321.726562 142.847656 322.992188 C 138.945312 324.230469 135.046875 325.421875 131.136719 326.578125 L 125.242188 328.277344 L 122.265625 329.105469 C 121.269531 329.371094 120.324219 329.636719 119.082031 329.929688 C 114.441406 331.046875 110.140625 331.570312 105.828125 331.972656 C 105.34375 332.445312 104.855469 332.917969 104.382812 333.394531 C 108.769531 333.285156 110.578125 334.242188 115.355469 333.503906 C 115.949219 333.417969 119.191406 332.042969 119.800781 331.933594 L 121.539062 331.59375 L 124.625 330.9375 L 130.722656 329.578125 C 134.769531 328.652344 139.542969 328.3125 143.585938 327.292969 C 147.65625 326.261719 150.878906 324.609375 155.238281 323.269531 Z M 76.332031 138.980469 C 75.347656 139.660156 73.683594 140.257812 72.613281 140.839844 L 74.035156 142.539062 L 86.304688 149.625 L 93.109375 155.421875 C 93.109375 155.421875 93.121094 155.433594 93.132812 155.445312 C 93.765625 155.394531 94.617188 155.433594 95.625 155.445312 C 96.160156 154.945312 97.96875 153.5625 97.96875 153.5625 L 104.722656 148.082031 L 112.535156 141.046875 L 114.601562 140.109375 C 114.394531 139.734375 114.164062 138.421875 113.980469 138.042969 L 109.171875 141.519531 L 103.070312 146.390625 L 94.289062 148.90625 L 82.917969 145.007812 L 76.355469 138.980469 Z M 222.496094 170.160156 L 220.515625 171.011719 L 220.34375 171.230469 C 220.34375 171.230469 220.199219 171.230469 219.957031 171.253906 L 219.105469 171.617188 L 221.414062 175.90625 L 230.183594 185.929688 L 230.414062 185.929688 C 230.414062 185.929688 231.230469 183.792969 231.230469 183.792969 L 228.351562 181.59375 L 225.640625 176.832031 L 227.464844 172.089844 L 223.792969 171.167969 Z M 231.253906 173.050781 L 233.390625 177.972656 L 232.566406 183.5625 L 235.566406 184.910156 L 235.566406 186.246094 C 235.566406 186.246094 244.582031 186.757812 244.582031 186.757812 L 256.328125 185.628906 L 267.519531 179.125 L 267.796875 179.042969 L 265.550781 177.046875 L 265.671875 171.472656 L 269.789062 166.390625 L 265.390625 160.28125 C 265.390625 160.28125 264.625 158.277344 263.628906 155.578125 L 262.644531 156.378906 L 256.28125 157.8125 L 242.578125 161.144531 L 230.792969 155.410156 L 229.855469 152.90625 C 230.160156 155.371094 230.355469 158.03125 230.355469 158.03125 L 228.167969 167.511719 L 228.726562 168.8125 L 227.453125 172.128906 L 231.242188 173.085938 Z M 275.5 172.03125 L 274.941406 174.035156 L 273.070312 177.363281 L 276.082031 176.417969 L 277.335938 173.101562 C 276.679688 172.746094 276.058594 172.382812 275.5 172.03125 Z M 256.753906 234.183594 L 269.292969 215.578125 C 271.78125 209.636719 273.433594 205.226562 273.433594 205.226562 L 278.5 185.03125 C 278.5 185.03125 280.1875 178.617188 281.828125 173.949219 L 281.257812 173.792969 L 281.125 173.828125 L 280.6875 174.070312 L 279.679688 174.8125 L 279.191406 178.058594 L 272 182.46875 L 275.925781 185.324219 L 275.574219 192.019531 L 270.167969 196.003906 L 273.335938 201.277344 L 268.902344 206.296875 L 267.3125 211.945312 L 263.886719 219.019531 L 261.976562 209.734375 L 262.234375 204.023438 L 269.390625 196.585938 L 270.167969 196.015625 L 268.613281 193.429688 L 267.519531 188.628906 L 267.957031 185.675781 L 268.722656 184.507812 L 257.761719 191.230469 L 234.535156 190.875 L 233.757812 191.640625 L 239.492188 194.4375 L 238.761719 197.269531 L 235.726562 199.503906 L 239.480469 200.234375 L 240.207031 203.730469 L 235.492188 207.535156 L 237.097656 208.910156 L 242.128906 212.773438 L 243.5 220.148438 C 243.5 220.148438 241.386719 226.136719 239.273438 228.035156 C 238.398438 226.453125 238.664062 223.050781 237.71875 220.902344 C 236.050781 217.121094 233.332031 214.65625 233.332031 214.65625 L 233.855469 208.847656 L 235.480469 207.535156 L 232.941406 205.371094 L 233.488281 201.144531 L 235.726562 199.503906 L 231.316406 198.640625 L 229.773438 195.519531 L 233.769531 191.628906 L 229.140625 189.371094 L 229.226562 189.140625 L 227.777344 188.542969 L 223.296875 184.765625 L 217.183594 181.386719 L 216.773438 174.289062 L 210.03125 176.050781 L 208.074219 176.515625 L 211.816406 190.902344 L 231.996094 224.449219 L 246.878906 244.933594 L 256.789062 234.195312 Z M 288.875 364.085938 L 293.324219 360.78125 L 294.039062 360.078125 L 295.167969 358.449219 L 292.289062 356.757812 L 291.109375 355.910156 L 288.171875 353.585938 L 282.824219 359.007812 L 287.003906 362.859375 L 288.898438 364.097656 Z M 297.246094 355.445312 L 301.0625 349.917969 C 299.664062 348.996094 298.253906 348.046875 297.257812 347.292969 C 296.238281 346.515625 294.78125 345.289062 293.46875 344.132812 L 290.261719 350.332031 L 293.359375 352.726562 Z M 262.074219 354.195312 L 262.304688 354.621094 L 265.378906 353.175781 L 267.335938 351.910156 L 268.890625 350.429688 L 266.363281 347.902344 L 261.238281 344.121094 L 262.074219 354.183594 Z M 270.347656 363.792969 L 277.261719 358.75 L 274.441406 356.019531 L 271.382812 352.945312 L 269.121094 355.347656 L 264.238281 358.144531 L 266.414062 362.117188 L 270.335938 363.792969 Z M 276.859375 353.515625 L 280.214844 356.601562 L 281.355469 355.773438 L 284.636719 352.710938 L 285.644531 351.582031 L 283.917969 350.222656 L 278.0625 345.859375 L 277.664062 345.617188 L 276.265625 347.78125 L 273.785156 350.417969 L 274.867188 351.496094 L 276.859375 353.527344 Z M 312.335938 348.339844 L 312.421875 345.652344 L 308.324219 341.265625 L 306.382812 339.25 L 306.199219 344.195312 L 304.777344 347.160156 L 308.898438 350.464844 L 312.214844 351.703125 L 312.324219 348.339844 Z M 307.136719 360.078125 L 312.03125 357.28125 L 312.082031 355.714844 L 310.148438 354.4375 L 306.347656 353.273438 C 306.347656 353.273438 304.960938 352.421875 303.199219 351.304688 C 302.375 353.429688 301.28125 355.96875 300.257812 357.5625 L 300.976562 358.058594 L 302.191406 358.824219 L 306.296875 359.773438 Z M 285.484375 366.613281 L 285.8125 366.371094 L 283.105469 364.4375 L 280.152344 361.558594 L 274.527344 365.582031 L 277.492188 366.855469 Z M 296.296875 366.285156 L 302.566406 362.699219 L 301.9375 362.421875 L 298.265625 360.257812 C 296.394531 362.566406 294.195312 364.960938 294.195312 364.960938 L 292.167969 366.238281 L 292.433594 366.40625 Z M 303.660156 331.351562 L 302.640625 331.523438 C 303.078125 331.984375 303.492188 332.410156 303.832031 332.773438 Z M 262.925781 340.585938 L 266.910156 343.515625 L 271.429688 348.035156 L 273.519531 346.042969 L 275.027344 343.988281 L 268.855469 340.183594 C 267.261719 340.320312 265.113281 340.476562 262.925781 340.585938 Z M 278.511719 339.261719 L 279.097656 337.609375 L 273.105469 339.445312 L 273.640625 339.871094 L 276.777344 341.632812 Z M 291.425781 342.589844 L 291.476562 342.359375 C 290.710938 341.667969 290.199219 341.207031 290.199219 341.207031 L 286.324219 335.398438 L 283.25 336.332031 L 281.988281 338.886719 L 279.300781 343.054688 L 284.976562 346.25 L 287.917969 348.53125 L 291.414062 342.601562 Z M 299.507812 332.03125 L 295.035156 332.761719 L 294.234375 338.714844 L 302.542969 345.375 L 303.636719 340.355469 L 303.832031 336.601562 L 302.917969 335.652344 L 299.617188 332.105469 Z M 312.75 336.054688 L 309.40625 328.921875 L 307.839844 329.882812 L 306.371094 330.914062 L 306.601562 333.964844 L 306.550781 335.386719 L 311.144531 339.335938 L 312.601562 340.867188 L 312.761719 336.054688 Z M 293.078125 334.425781 L 293.03125 333.355469 L 289.214844 334.523438 L 289.421875 334.851562 L 292.496094 337.316406 L 293.078125 334.4375 Z M 261.417969 325.15625 C 266.910156 324.742188 273.421875 324.402344 273.421875 324.402344 L 290.359375 318.507812 C 290.359375 318.507812 296.066406 317.4375 300.804688 316.46875 L 298.835938 313.925781 L 290.578125 308.3125 C 290.578125 308.3125 287.941406 306.625 287.054688 305.410156 C 286.128906 304.144531 285.777344 302.519531 285.800781 300.9375 L 280.238281 300.9375 C 280.238281 300.9375 280.117188 300.960938 279.945312 301.023438 C 279.898438 301.035156 279.875 301.046875 279.824219 301.058594 C 279.800781 301.058594 279.765625 301.085938 279.738281 301.085938 C 279.617188 301.121094 279.484375 301.167969 279.328125 301.21875 C 279.144531 301.277344 278.9375 301.339844 278.707031 301.414062 C 278.695312 301.414062 278.671875 301.414062 278.660156 301.425781 C 278.441406 301.496094 278.222656 301.558594 277.976562 301.632812 C 277.941406 301.644531 277.894531 301.65625 277.84375 301.667969 C 277.625 301.726562 277.40625 301.800781 277.175781 301.875 C 277.117188 301.898438 277.042969 301.910156 276.980469 301.933594 C 276.761719 301.996094 276.542969 302.070312 276.324219 302.128906 C 276.265625 302.152344 276.191406 302.164062 276.132812 302.191406 C 275.890625 302.261719 275.65625 302.324219 275.414062 302.394531 C 275.21875 303.707031 274.953125 304.949219 274.722656 305.921875 C 274.710938 305.992188 274.6875 306.066406 274.671875 306.140625 C 274.613281 306.382812 274.550781 306.601562 274.503906 306.796875 C 274.503906 306.84375 274.480469 306.867188 274.46875 306.917969 C 274.308594 307.5 273.96875 308.023438 273.507812 308.421875 L 272.9375 308.898438 L 265.71875 314.960938 L 261.648438 323.257812 L 261.445312 325.144531 Z M 261.417969 325.15625 " fill-opacity="1" fill-rule="nonzero"/></g></svg>