<svg xmlns="http://www.w3.org/2000/svg" xmlns:xlink="http://www.w3.org/1999/xlink" width="500" zoomAndPan="magnify" viewBox="0 0 375 374.999991" height="500" preserveAspectRatio="xMidYMid meet" version="1.0"><defs><g/><clipPath id="c7f9820419"><path d="M 0 29 L 50 29 L 50 120 L 0 120 Z M 0 29 " clip-rule="nonzero"/></clipPath><clipPath id="96ab77b68a"><path d="M 324 8 L 375 8 L 375 98 L 324 98 Z M 324 8 " clip-rule="nonzero"/></clipPath><clipPath id="ec7c95b6b1"><rect x="0" width="375" y="0" height="158"/></clipPath><clipPath id="b0e624c25a"><path d="M 27.761719 196 L 337.511719 196 L 337.511719 307.195312 L 27.761719 307.195312 Z M 27.761719 196 " clip-rule="nonzero"/></clipPath><clipPath id="eb75511c05"><path d="M 0 28 L 50 28 L 50 119 L 0 119 Z M 0 28 " clip-rule="nonzero"/></clipPath><clipPath id="79f13d2d1c"><path d="M 324 7 L 375 7 L 375 97 L 324 97 Z M 324 7 " clip-rule="nonzero"/></clipPath><clipPath id="5f2bf3c08d"><rect x="0" width="375" y="0" height="147"/></clipPath></defs><rect x="-37.5" width="450" fill="#ffffff" y="-37.499999" height="449.999989" fill-opacity="1"/><rect x="-37.5" width="450" fill="#5d0000" y="-37.499999" height="449.999989" fill-opacity="1"/><g transform="matrix(1, 0, 0, 1, 0, 36)"><g clip-path="url(#ec7c95b6b1)"><g clip-path="url(#c7f9820419)"><g fill="#ffffff" fill-opacity="1"><g transform="translate(-10.396069, 122.848138)"><g><path d="M 54.953125 -87.828125 L 53.84375 -76.296875 L 17.90625 -72.015625 L 26.5625 -21.328125 L 57.734375 -23.859375 L 58.421875 -13.25 L 15.5625 -4.03125 L 0.421875 -89.59375 Z M 54.953125 -87.828125 "/></g></g></g></g><g fill="#ffffff" fill-opacity="1"><g transform="translate(54.664867, 118.666759)"><g><path d="M 51.484375 -92.34375 L 61.71875 -7.140625 L 10.671875 -6.203125 L 2.015625 -89.5625 L 12.25 -90.359375 L 25.484375 -25.484375 L 41.28125 -23.71875 L 39.296875 -91.5625 Z M 51.484375 -92.34375 "/></g></g></g><g fill="#ffffff" fill-opacity="1"><g transform="translate(123.923281, 114.215613)"><g><path d="M 17.171875 -75 L 21.25 -50.765625 L 53.328125 -55.59375 L 58.125 -7.546875 L 8.34375 -3.5625 L 8.640625 -11.09375 L 39.03125 -19.765625 L 39.421875 -38.109375 L 8 -33.453125 L 1.21875 -89.65625 L 46 -91.734375 L 45.953125 -80.015625 Z M 17.171875 -75 "/></g></g></g><g fill="#ffffff" fill-opacity="1"><g transform="translate(189.115354, 110.025806)"><g><path d="M 54.953125 -87.828125 L 53.84375 -76.296875 L 17.90625 -72.015625 L 26.5625 -21.328125 L 57.734375 -23.859375 L 58.421875 -13.25 L 15.5625 -4.03125 L 0.421875 -89.59375 Z M 54.953125 -87.828125 "/></g></g></g><g fill="#ffffff" fill-opacity="1"><g transform="translate(254.176291, 105.844428)"><g><path d="M 51.484375 -92.34375 L 61.71875 -7.140625 L 10.671875 -6.203125 L 2.015625 -89.5625 L 12.25 -90.359375 L 25.484375 -25.484375 L 41.28125 -23.71875 L 39.296875 -91.5625 Z M 51.484375 -92.34375 "/></g></g></g><g clip-path="url(#96ab77b68a)"><g fill="#ffffff" fill-opacity="1"><g transform="translate(323.434705, 101.393282)"><g><path d="M 32.765625 -76.390625 L 7.015625 -77.375 L 6.265625 -89.046875 L 49.359375 -92.75 L 52.828125 -77.6875 L 22.125 -18.546875 L 58.421875 -21.40625 L 59.0625 -11.3125 L 6.75 -3.609375 L 5.828125 -18.03125 Z M 32.765625 -76.390625 "/></g></g></g></g></g></g><g clip-path="url(#b0e624c25a)"><path fill="#825026" d="M 337.3125 251.730469 C 337.3125 252.640625 337.25 253.546875 337.125 254.453125 C 337.003906 255.359375 336.816406 256.265625 336.566406 257.167969 C 336.320312 258.070312 336.011719 258.972656 335.640625 259.871094 C 335.265625 260.765625 334.835938 261.660156 334.339844 262.550781 C 333.847656 263.441406 333.292969 264.328125 332.675781 265.207031 C 332.0625 266.089844 331.386719 266.960938 330.652344 267.832031 C 329.917969 268.699219 329.125 269.5625 328.269531 270.417969 C 327.417969 271.269531 326.507812 272.117188 325.539062 272.957031 C 324.570312 273.792969 323.542969 274.625 322.460938 275.445312 C 321.378906 276.265625 320.242188 277.074219 319.050781 277.875 C 317.855469 278.675781 316.609375 279.464844 315.308594 280.246094 C 314.003906 281.023438 312.652344 281.789062 311.246094 282.546875 C 309.839844 283.300781 308.382812 284.042969 306.875 284.769531 C 305.367188 285.5 303.808594 286.214844 302.203125 286.917969 C 300.597656 287.617188 298.945312 288.304688 297.246094 288.976562 C 295.542969 289.652344 293.800781 290.308594 292.007812 290.949219 C 290.21875 291.59375 288.386719 292.21875 286.511719 292.828125 C 284.636719 293.4375 282.71875 294.03125 280.761719 294.605469 C 278.804688 295.179688 276.8125 295.738281 274.777344 296.28125 C 272.746094 296.820312 270.675781 297.34375 268.570312 297.847656 C 266.464844 298.351562 264.328125 298.835938 262.15625 299.304688 C 259.984375 299.769531 257.785156 300.21875 255.550781 300.644531 C 253.320312 301.074219 251.058594 301.480469 248.769531 301.871094 C 246.480469 302.257812 244.167969 302.625 241.828125 302.972656 C 239.492188 303.320312 237.128906 303.648438 234.746094 303.953125 C 232.363281 304.257812 229.960938 304.542969 227.539062 304.808594 C 225.113281 305.070312 222.675781 305.3125 220.21875 305.53125 C 217.765625 305.753906 215.296875 305.953125 212.8125 306.128906 C 210.332031 306.304688 207.835938 306.460938 205.332031 306.59375 C 202.828125 306.726562 200.316406 306.839844 197.796875 306.929688 C 195.277344 307.015625 192.753906 307.082031 190.226562 307.128906 C 187.699219 307.171875 185.167969 307.195312 182.636719 307.195312 C 180.105469 307.195312 177.578125 307.171875 175.046875 307.128906 C 172.519531 307.082031 169.996094 307.015625 167.476562 306.929688 C 164.957031 306.839844 162.445312 306.726562 159.941406 306.59375 C 157.4375 306.460938 154.945312 306.304688 152.460938 306.128906 C 149.980469 305.953125 147.511719 305.753906 145.054688 305.53125 C 142.597656 305.3125 140.160156 305.070312 137.738281 304.808594 C 135.316406 304.542969 132.914062 304.257812 130.527344 303.953125 C 128.144531 303.648438 125.785156 303.320312 123.445312 302.972656 C 121.105469 302.625 118.792969 302.257812 116.503906 301.871094 C 114.21875 301.480469 111.957031 301.074219 109.722656 300.644531 C 107.492188 300.21875 105.289062 299.769531 103.117188 299.304688 C 100.945312 298.835938 98.808594 298.351562 96.703125 297.847656 C 94.601562 297.34375 92.53125 296.820312 90.496094 296.28125 C 88.464844 295.738281 86.46875 295.179688 84.511719 294.605469 C 82.554688 294.03125 80.640625 293.4375 78.765625 292.828125 C 76.886719 292.21875 75.054688 291.59375 73.265625 290.949219 C 71.476562 290.308594 69.730469 289.652344 68.03125 288.976562 C 66.332031 288.304688 64.675781 287.617188 63.070312 286.917969 C 61.464844 286.214844 59.910156 285.5 58.402344 284.769531 C 56.894531 284.042969 55.4375 283.300781 54.03125 282.546875 C 52.625 281.789062 51.269531 281.023438 49.96875 280.246094 C 48.667969 279.464844 47.417969 278.675781 46.226562 277.875 C 45.03125 277.074219 43.894531 276.265625 42.8125 275.445312 C 41.730469 274.625 40.703125 273.792969 39.734375 272.957031 C 38.765625 272.117188 37.855469 271.269531 37.003906 270.417969 C 36.152344 269.5625 35.355469 268.699219 34.621094 267.832031 C 33.886719 266.960938 33.210938 266.089844 32.597656 265.207031 C 31.980469 264.328125 31.429688 263.441406 30.933594 262.550781 C 30.441406 261.660156 30.007812 260.765625 29.636719 259.871094 C 29.265625 258.972656 28.953125 258.070312 28.707031 257.167969 C 28.457031 256.265625 28.273438 255.359375 28.148438 254.453125 C 28.023438 253.546875 27.960938 252.640625 27.960938 251.730469 C 27.960938 250.824219 28.023438 249.917969 28.148438 249.007812 C 28.273438 248.101562 28.457031 247.199219 28.707031 246.292969 C 28.953125 245.390625 29.265625 244.492188 29.636719 243.59375 C 30.007812 242.695312 30.441406 241.800781 30.933594 240.910156 C 31.429688 240.019531 31.980469 239.136719 32.597656 238.253906 C 33.210938 237.375 33.886719 236.5 34.621094 235.628906 C 35.355469 234.761719 36.152344 233.902344 37.003906 233.046875 C 37.855469 232.191406 38.765625 231.34375 39.734375 230.507812 C 40.703125 229.667969 41.730469 228.835938 42.8125 228.015625 C 43.894531 227.195312 45.03125 226.386719 46.226562 225.585938 C 47.417969 224.785156 48.667969 223.996094 49.96875 223.21875 C 51.269531 222.4375 52.625 221.671875 54.03125 220.917969 C 55.4375 220.164062 56.894531 219.421875 58.402344 218.691406 C 59.910156 217.960938 61.464844 217.246094 63.070312 216.546875 C 64.675781 215.84375 66.332031 215.15625 68.03125 214.484375 C 69.730469 213.8125 71.476562 213.152344 73.265625 212.511719 C 75.054688 211.871094 76.886719 211.246094 78.765625 210.636719 C 80.640625 210.027344 82.554688 209.433594 84.511719 208.855469 C 86.46875 208.28125 88.464844 207.722656 90.496094 207.183594 C 92.53125 206.640625 94.601562 206.117188 96.703125 205.613281 C 98.808594 205.109375 100.945312 204.625 103.117188 204.15625 C 105.289062 203.691406 107.492188 203.246094 109.722656 202.816406 C 111.957031 202.386719 114.21875 201.980469 116.503906 201.59375 C 118.792969 201.203125 121.105469 200.835938 123.445312 200.488281 C 125.785156 200.140625 128.144531 199.816406 130.527344 199.507812 C 132.914062 199.203125 135.316406 198.917969 137.738281 198.65625 C 140.160156 198.390625 142.597656 198.148438 145.054688 197.929688 C 147.511719 197.707031 149.980469 197.511719 152.460938 197.332031 C 154.945312 197.15625 157.4375 197 159.941406 196.867188 C 162.445312 196.734375 164.957031 196.625 167.476562 196.535156 C 169.996094 196.445312 172.519531 196.378906 175.046875 196.335938 C 177.578125 196.289062 180.105469 196.265625 182.636719 196.265625 C 185.167969 196.265625 187.699219 196.289062 190.226562 196.335938 C 192.753906 196.378906 195.277344 196.445312 197.796875 196.535156 C 200.316406 196.625 202.828125 196.734375 205.332031 196.867188 C 207.835938 197 210.332031 197.15625 212.8125 197.332031 C 215.296875 197.511719 217.765625 197.707031 220.21875 197.929688 C 222.675781 198.148438 225.113281 198.390625 227.539062 198.65625 C 229.960938 198.917969 232.363281 199.203125 234.746094 199.507812 C 237.128906 199.816406 239.492188 200.140625 241.828125 200.488281 C 244.167969 200.835938 246.480469 201.203125 248.769531 201.59375 C 251.058594 201.980469 253.320312 202.386719 255.550781 202.816406 C 257.785156 203.246094 259.984375 203.691406 262.15625 204.15625 C 264.328125 204.625 266.464844 205.109375 268.570312 205.613281 C 270.675781 206.117188 272.746094 206.640625 274.777344 207.183594 C 276.8125 207.722656 278.804688 208.28125 280.761719 208.855469 C 282.71875 209.433594 284.636719 210.027344 286.511719 210.636719 C 288.386719 211.246094 290.21875 211.871094 292.007812 212.511719 C 293.800781 213.152344 295.542969 213.8125 297.246094 214.484375 C 298.945312 215.15625 300.597656 215.84375 302.203125 216.546875 C 303.808594 217.246094 305.367188 217.960938 306.875 218.691406 C 308.382812 219.421875 309.839844 220.164062 311.246094 220.917969 C 312.652344 221.671875 314.003906 222.4375 315.308594 223.21875 C 316.609375 223.996094 317.855469 224.785156 319.050781 225.585938 C 320.242188 226.386719 321.378906 227.195312 322.460938 228.015625 C 323.542969 228.835938 324.570312 229.667969 325.539062 230.507812 C 326.507812 231.34375 327.417969 232.191406 328.269531 233.046875 C 329.125 233.902344 329.917969 234.761719 330.652344 235.628906 C 331.386719 236.5 332.0625 237.375 332.675781 238.253906 C 333.292969 239.136719 333.847656 240.019531 334.339844 240.910156 C 334.835938 241.800781 335.265625 242.695312 335.640625 243.59375 C 336.011719 244.492188 336.320312 245.390625 336.566406 246.292969 C 336.816406 247.199219 337.003906 248.101562 337.125 249.007812 C 337.25 249.917969 337.3125 250.824219 337.3125 251.730469 Z M 337.3125 251.730469 " fill-opacity="1" fill-rule="nonzero"/></g><path fill="#af6e3e" d="M 318.433594 251.007812 C 318.433594 251.804688 318.378906 252.601562 318.269531 253.398438 C 318.160156 254.191406 317.996094 254.988281 317.777344 255.78125 C 317.5625 256.574219 317.289062 257.367188 316.960938 258.15625 C 316.636719 258.945312 316.257812 259.730469 315.824219 260.511719 C 315.390625 261.292969 314.902344 262.070312 314.363281 262.84375 C 313.824219 263.617188 313.230469 264.386719 312.585938 265.148438 C 311.941406 265.914062 311.242188 266.667969 310.496094 267.417969 C 309.746094 268.171875 308.945312 268.914062 308.09375 269.652344 C 307.246094 270.386719 306.34375 271.117188 305.394531 271.835938 C 304.445312 272.558594 303.445312 273.269531 302.398438 273.972656 C 301.351562 274.675781 300.253906 275.371094 299.113281 276.054688 C 297.96875 276.738281 296.78125 277.410156 295.546875 278.074219 C 294.3125 278.738281 293.03125 279.390625 291.710938 280.027344 C 290.386719 280.667969 289.019531 281.296875 287.609375 281.914062 C 286.199219 282.53125 284.746094 283.132812 283.253906 283.726562 C 281.761719 284.316406 280.230469 284.894531 278.660156 285.457031 C 277.085938 286.019531 275.476562 286.570312 273.832031 287.105469 C 272.183594 287.640625 270.503906 288.164062 268.785156 288.667969 C 267.066406 289.175781 265.316406 289.664062 263.53125 290.140625 C 261.746094 290.613281 259.929688 291.074219 258.082031 291.515625 C 256.234375 291.960938 254.355469 292.386719 252.449219 292.796875 C 250.542969 293.207031 248.609375 293.597656 246.652344 293.972656 C 244.691406 294.351562 242.707031 294.707031 240.699219 295.050781 C 238.6875 295.390625 236.65625 295.714844 234.605469 296.019531 C 232.550781 296.324219 230.476562 296.609375 228.386719 296.878906 C 226.292969 297.148438 224.183594 297.398438 222.058594 297.628906 C 219.929688 297.859375 217.789062 298.074219 215.632812 298.265625 C 213.476562 298.460938 211.308594 298.636719 209.128906 298.792969 C 206.949219 298.945312 204.761719 299.082031 202.5625 299.199219 C 200.363281 299.316406 198.160156 299.414062 195.949219 299.492188 C 193.734375 299.570312 191.519531 299.628906 189.300781 299.667969 C 187.082031 299.707031 184.859375 299.726562 182.636719 299.726562 C 180.414062 299.726562 178.195312 299.707031 175.972656 299.667969 C 173.753906 299.628906 171.539062 299.570312 169.328125 299.492188 C 167.117188 299.414062 164.910156 299.316406 162.710938 299.199219 C 160.515625 299.082031 158.324219 298.945312 156.144531 298.792969 C 153.964844 298.636719 151.796875 298.460938 149.640625 298.265625 C 147.484375 298.074219 145.34375 297.859375 143.21875 297.628906 C 141.089844 297.398438 138.980469 297.148438 136.890625 296.878906 C 134.796875 296.609375 132.722656 296.324219 130.671875 296.019531 C 128.617188 295.714844 126.585938 295.390625 124.578125 295.050781 C 122.570312 294.707031 120.585938 294.351562 118.625 293.972656 C 116.664062 293.597656 114.730469 293.207031 112.824219 292.796875 C 110.917969 292.386719 109.042969 291.960938 107.195312 291.515625 C 105.347656 291.074219 103.53125 290.613281 101.746094 290.140625 C 99.960938 289.664062 98.207031 289.175781 96.488281 288.667969 C 94.773438 288.164062 93.089844 287.640625 91.441406 287.105469 C 89.796875 286.570312 88.1875 286.019531 86.617188 285.457031 C 85.042969 284.894531 83.511719 284.316406 82.019531 283.726562 C 80.527344 283.132812 79.078125 282.53125 77.667969 281.914062 C 76.257812 281.296875 74.890625 280.667969 73.566406 280.027344 C 72.242188 279.390625 70.960938 278.738281 69.726562 278.074219 C 68.492188 277.410156 67.304688 276.738281 66.164062 276.054688 C 65.019531 275.371094 63.925781 274.675781 62.878906 273.972656 C 61.828125 273.269531 60.832031 272.558594 59.878906 271.835938 C 58.929688 271.117188 58.03125 270.386719 57.179688 269.652344 C 56.328125 268.914062 55.53125 268.171875 54.78125 267.417969 C 54.03125 266.667969 53.335938 265.914062 52.691406 265.148438 C 52.042969 264.386719 51.453125 263.617188 50.914062 262.84375 C 50.371094 262.070312 49.886719 261.292969 49.453125 260.511719 C 49.019531 259.730469 48.636719 258.945312 48.3125 258.15625 C 47.984375 257.367188 47.714844 256.574219 47.496094 255.78125 C 47.277344 254.988281 47.117188 254.191406 47.007812 253.398438 C 46.898438 252.601562 46.84375 251.804688 46.84375 251.007812 C 46.84375 250.207031 46.898438 249.410156 47.007812 248.617188 C 47.117188 247.820312 47.277344 247.023438 47.496094 246.230469 C 47.714844 245.4375 47.984375 244.644531 48.3125 243.855469 C 48.636719 243.070312 49.019531 242.28125 49.453125 241.5 C 49.886719 240.71875 50.371094 239.941406 50.914062 239.167969 C 51.453125 238.394531 52.042969 237.625 52.691406 236.863281 C 53.335938 236.101562 54.03125 235.34375 54.78125 234.59375 C 55.53125 233.839844 56.328125 233.097656 57.179688 232.359375 C 58.03125 231.625 58.929688 230.894531 59.878906 230.175781 C 60.832031 229.453125 61.828125 228.742188 62.878906 228.039062 C 63.925781 227.335938 65.019531 226.640625 66.164062 225.957031 C 67.304688 225.273438 68.492188 224.601562 69.726562 223.9375 C 70.960938 223.273438 72.242188 222.625 73.566406 221.984375 C 74.890625 221.34375 76.257812 220.714844 77.667969 220.097656 C 79.078125 219.480469 80.527344 218.878906 82.019531 218.285156 C 83.511719 217.695312 85.042969 217.117188 86.617188 216.554688 C 88.1875 215.992188 89.796875 215.441406 91.441406 214.90625 C 93.089844 214.371094 94.773438 213.851562 96.488281 213.34375 C 98.207031 212.839844 99.960938 212.347656 101.746094 211.871094 C 103.53125 211.398438 105.347656 210.9375 107.195312 210.496094 C 109.042969 210.054688 110.917969 209.625 112.824219 209.214844 C 114.730469 208.804688 116.664062 208.414062 118.625 208.039062 C 120.585938 207.660156 122.570312 207.304688 124.578125 206.960938 C 126.585938 206.621094 128.617188 206.296875 130.671875 205.992188 C 132.722656 205.6875 134.796875 205.402344 136.890625 205.132812 C 138.980469 204.863281 141.089844 204.613281 143.21875 204.382812 C 145.34375 204.152344 147.484375 203.9375 149.640625 203.746094 C 151.796875 203.550781 153.964844 203.375 156.144531 203.222656 C 158.324219 203.066406 160.515625 202.929688 162.710938 202.8125 C 164.910156 202.695312 167.117188 202.597656 169.328125 202.519531 C 171.539062 202.441406 173.753906 202.382812 175.972656 202.34375 C 178.195312 202.304688 180.414062 202.285156 182.636719 202.285156 C 184.859375 202.285156 187.082031 202.304688 189.300781 202.34375 C 191.519531 202.382812 193.734375 202.441406 195.949219 202.519531 C 198.160156 202.597656 200.363281 202.695312 202.5625 202.8125 C 204.761719 202.929688 206.949219 203.066406 209.128906 203.222656 C 211.308594 203.375 213.476562 203.550781 215.632812 203.746094 C 217.789062 203.9375 219.929688 204.152344 222.058594 204.382812 C 224.183594 204.613281 226.292969 204.863281 228.386719 205.132812 C 230.476562 205.402344 232.550781 205.6875 234.605469 205.992188 C 236.65625 206.296875 238.6875 206.621094 240.699219 206.960938 C 242.707031 207.304688 244.691406 207.660156 246.652344 208.039062 C 248.609375 208.414062 250.542969 208.804688 252.449219 209.214844 C 254.355469 209.625 256.234375 210.054688 258.082031 210.496094 C 259.929688 210.9375 261.746094 211.398438 263.53125 211.871094 C 265.316406 212.347656 267.066406 212.839844 268.785156 213.34375 C 270.503906 213.851562 272.183594 214.371094 273.832031 214.90625 C 275.476562 215.441406 277.085938 215.992188 278.660156 216.554688 C 280.230469 217.117188 281.761719 217.695312 283.253906 218.285156 C 284.746094 218.878906 286.199219 219.480469 287.609375 220.097656 C 289.019531 220.714844 290.386719 221.34375 291.710938 221.984375 C 293.03125 222.625 294.3125 223.273438 295.546875 223.9375 C 296.78125 224.601562 297.96875 225.273438 299.113281 225.957031 C 300.253906 226.640625 301.351562 227.335938 302.398438 228.039062 C 303.445312 228.742188 304.445312 229.453125 305.394531 230.175781 C 306.34375 230.894531 307.246094 231.625 308.09375 232.359375 C 308.945312 233.097656 309.746094 233.839844 310.496094 234.59375 C 311.242188 235.34375 311.941406 236.101562 312.585938 236.863281 C 313.230469 237.625 313.824219 238.394531 314.363281 239.167969 C 314.902344 239.941406 315.390625 240.71875 315.824219 241.5 C 316.257812 242.28125 316.636719 243.070312 316.960938 243.855469 C 317.289062 244.644531 317.5625 245.4375 317.777344 246.230469 C 317.996094 247.023438 318.160156 247.820312 318.269531 248.617188 C 318.378906 249.410156 318.433594 250.207031 318.433594 251.007812 Z M 318.433594 251.007812 " fill-opacity="1" fill-rule="nonzero"/><path fill="#fdcb0a" d="M 90.121094 253.109375 C 87.652344 251.804688 86.128906 249.195312 86.128906 246.4375 L 86.128906 184.8125 C 86.128906 184.8125 85.621094 176.691406 92.808594 175.023438 C 93.609375 174.808594 94.40625 174.515625 95.132812 174.082031 C 95.421875 173.863281 95.785156 173.648438 96.148438 173.429688 C 100 170.601562 101.523438 166.902344 102.539062 164.945312 C 103.921875 162.191406 106.679688 159.726562 112.054688 154.796875 C 120.914062 146.675781 132.3125 141.964844 137.976562 139.933594 C 138.195312 139.859375 138.414062 139.789062 138.558594 139.714844 L 156.351562 134.859375 C 157.222656 134.640625 158.09375 134.207031 158.820312 133.699219 C 159.253906 133.40625 159.691406 133.046875 160.125 132.683594 C 161.289062 131.667969 164.339844 128.914062 165.789062 124.636719 C 166.515625 122.316406 165.863281 122.53125 166.589844 120.71875 C 166.953125 119.777344 167.824219 117.964844 172.253906 114.121094 C 174.433594 112.238281 175.519531 111.296875 176.828125 110.570312 C 183.074219 106.945312 189.753906 108.03125 191.0625 108.324219 C 194.039062 108.902344 195.925781 109.917969 199.484375 111.875 C 205.875 115.425781 209.214844 117.3125 210.957031 121.15625 C 212.121094 123.691406 212.046875 126.011719 214.445312 130.507812 C 215.386719 132.175781 215.894531 132.902344 216.113281 133.117188 C 218.726562 136.234375 222.359375 137.179688 224.394531 137.539062 C 224.394531 137.539062 247.265625 142.253906 264.839844 159.144531 C 266.800781 161.105469 267.964844 162.988281 268.6875 164.292969 C 270.578125 167.628906 270.503906 169.515625 272.972656 173.792969 C 273.992188 175.53125 274.5 176.402344 275.441406 177.273438 C 277.039062 178.792969 278.128906 178.867188 280.597656 180.75 C 281.253906 181.257812 282.339844 182.128906 283.285156 183.21875 C 284.15625 184.230469 285.609375 186.191406 286.261719 189.453125 C 286.335938 189.886719 286.40625 190.320312 286.40625 190.828125 C 286.480469 195.90625 286.84375 227.226562 278.785156 243.320312 C 276.605469 247.671875 274.5 252.746094 274.0625 253.90625 C 273.992188 254.050781 273.917969 254.269531 273.84375 254.414062 C 272.972656 256.226562 272.101562 257.964844 271.230469 259.488281 C 269.5625 262.605469 265.929688 264.203125 262.515625 263.257812 C 260.191406 262.605469 257.507812 262.027344 254.527344 261.445312 C 248.066406 260.214844 233.398438 258.109375 214.878906 261.445312 C 201.734375 263.839844 204.203125 265.796875 193.53125 267.390625 C 180.097656 269.347656 175.375 266.375 154.605469 265 C 136.234375 263.765625 136.453125 265.941406 125.195312 264.5625 C 116.335938 263.402344 104.28125 260.648438 90.121094 253.109375 Z M 90.121094 253.109375 " fill-opacity="1" fill-rule="nonzero"/><path fill="#fea600" d="M 88.816406 177.199219 C 88.816406 177.199219 202.097656 201.632812 281.976562 181.839844 C 281.90625 181.839844 197.160156 218.671875 88.816406 177.199219 Z M 88.816406 177.199219 " fill-opacity="1" fill-rule="nonzero"/><path fill="#fea600" d="M 158.890625 133.554688 C 158.890625 133.554688 185.105469 146.75 216.113281 133.335938 C 216.113281 133.335938 186.632812 153.707031 158.890625 133.554688 Z M 158.890625 133.554688 " fill-opacity="1" fill-rule="nonzero"/><path fill="#fea600" d="M 187.429688 226.355469 L 186.269531 222.222656 L 192.730469 215.191406 L 197.378906 220.484375 Z M 187.429688 226.355469 " fill-opacity="0.8" fill-rule="nonzero"/><path fill="#fea600" d="M 192.152344 233.316406 C 192.152344 233.316406 194.472656 238.027344 193.3125 240.929688 C 193.3125 240.929688 196.796875 236.214844 199.195312 236.867188 C 201.519531 237.449219 195.707031 231.574219 197.453125 230.996094 C 199.121094 230.414062 192.152344 233.316406 192.152344 233.316406 Z M 192.152344 233.316406 " fill-opacity="0.8" fill-rule="nonzero"/><path fill="#fea600" d="M 222.214844 221.570312 L 226.5 221.496094 L 231.507812 229.617188 L 225.191406 232.664062 Z M 222.214844 221.570312 " fill-opacity="0.8" fill-rule="nonzero"/><path fill="#fea600" d="M 214.226562 224.179688 C 214.226562 224.179688 209.070312 225.195312 206.601562 223.238281 C 206.601562 223.238281 210.160156 227.878906 208.996094 229.980469 C 207.835938 232.082031 215.023438 228.023438 215.097656 229.835938 C 215.097656 231.71875 214.226562 224.179688 214.226562 224.179688 Z M 214.226562 224.179688 " fill-opacity="0.8" fill-rule="nonzero"/><path fill="#fea600" d="M 167.171875 226.933594 L 169.640625 223.457031 L 179.152344 224.109375 L 177.988281 231.066406 Z M 167.171875 226.933594 " fill-opacity="0.8" fill-rule="nonzero"/><path fill="#fea600" d="M 164.628906 234.984375 C 164.628906 234.984375 162.449219 239.769531 159.398438 240.636719 C 159.398438 240.636719 165.28125 240.421875 166.296875 242.667969 C 167.316406 244.84375 168.1875 236.652344 169.785156 237.664062 C 171.308594 238.609375 164.628906 234.984375 164.628906 234.984375 Z M 164.628906 234.984375 " fill-opacity="0.8" fill-rule="nonzero"/><path fill="#fea600" d="M 192.660156 251.078125 L 195.34375 254.339844 L 192.222656 263.332031 L 185.832031 260.359375 Z M 192.660156 251.078125 " fill-opacity="0.8" fill-rule="nonzero"/><path fill="#fea600" d="M 185.613281 246.4375 C 185.613281 246.4375 181.621094 243.03125 181.546875 239.914062 C 181.546875 239.914062 180.167969 245.570312 177.773438 246.003906 C 175.375 246.367188 183.074219 249.484375 181.695312 250.714844 C 180.3125 251.875 185.613281 246.4375 185.613281 246.4375 Z M 185.613281 246.4375 " fill-opacity="0.8" fill-rule="nonzero"/><path fill="#fea600" d="M 145.820312 261.082031 L 141.535156 261.589844 L 135.582031 254.195312 L 141.535156 250.355469 Z M 145.820312 261.082031 " fill-opacity="0.8" fill-rule="nonzero"/><path fill="#fea600" d="M 153.445312 257.53125 C 153.445312 257.53125 158.457031 255.9375 161.144531 257.53125 C 161.144531 257.53125 157.074219 253.324219 158.019531 251.152344 C 158.964844 248.902344 152.285156 253.832031 151.992188 252.019531 C 151.628906 250.136719 153.445312 257.53125 153.445312 257.53125 Z M 153.445312 257.53125 " fill-opacity="0.8" fill-rule="nonzero"/><path fill="#fea600" d="M 146.402344 225.992188 L 146.980469 221.789062 L 155.769531 218.089844 L 157.875 224.832031 Z M 146.402344 225.992188 " fill-opacity="0.8" fill-rule="nonzero"/><path fill="#fea600" d="M 147.707031 234.332031 C 147.707031 234.332031 147.925781 239.550781 145.601562 241.726562 C 145.601562 241.726562 150.757812 238.898438 152.648438 240.421875 C 154.535156 241.945312 151.628906 234.1875 153.445312 234.402344 C 155.332031 234.621094 147.707031 234.332031 147.707031 234.332031 Z M 147.707031 234.332031 " fill-opacity="0.8" fill-rule="nonzero"/><path fill="#fea600" d="M 89.90625 228.894531 L 88.742188 224.761719 L 95.207031 217.800781 L 99.851562 223.019531 Z M 89.90625 228.894531 " fill-opacity="0.8" fill-rule="nonzero"/><path fill="#fea600" d="M 94.625 235.925781 C 94.625 235.925781 96.949219 240.636719 95.785156 243.539062 C 95.785156 243.539062 99.273438 238.824219 101.667969 239.476562 C 103.992188 240.058594 98.183594 234.1875 99.925781 233.605469 C 101.597656 232.953125 94.625 235.925781 94.625 235.925781 Z M 94.625 235.925781 " fill-opacity="0.8" fill-rule="nonzero"/><path fill="#fea600" d="M 124.6875 224.109375 L 128.972656 224.109375 L 133.984375 232.15625 L 127.667969 235.273438 Z M 124.6875 224.109375 " fill-opacity="0.8" fill-rule="nonzero"/><path fill="#fea600" d="M 116.699219 226.71875 C 116.699219 226.71875 111.542969 227.734375 109.074219 225.777344 C 109.074219 225.777344 112.632812 230.414062 111.472656 232.519531 C 110.308594 234.621094 117.5 230.5625 117.570312 232.375 C 117.570312 234.257812 116.699219 226.71875 116.699219 226.71875 Z M 116.699219 226.71875 " fill-opacity="0.8" fill-rule="nonzero"/><path fill="#fea600" d="M 92.664062 190.902344 L 94.261719 186.988281 L 103.628906 185.320312 L 104.136719 192.351562 Z M 92.664062 190.902344 " fill-opacity="0.8" fill-rule="nonzero"/><path fill="#fea600" d="M 92.082031 199.386719 C 92.082031 199.386719 91.066406 204.53125 88.378906 206.128906 C 88.378906 206.128906 94.042969 204.53125 95.496094 206.417969 C 97.019531 208.300781 95.933594 200.109375 97.675781 200.691406 C 99.492188 201.34375 92.082031 199.386719 92.082031 199.386719 Z M 92.082031 199.386719 " fill-opacity="0.8" fill-rule="nonzero"/><path fill="#fea600" d="M 123.164062 208.300781 L 126.578125 210.914062 L 125.632812 220.335938 L 118.734375 218.960938 Z M 123.164062 208.300781 " fill-opacity="0.8" fill-rule="nonzero"/><path fill="#fea600" d="M 115.25 205.476562 C 115.25 205.476562 110.601562 203.15625 109.730469 200.109375 C 109.730469 200.109375 109.730469 205.984375 107.476562 206.925781 C 105.226562 207.867188 113.433594 209.027344 112.417969 210.550781 C 111.328125 212.074219 115.25 205.476562 115.25 205.476562 Z M 115.25 205.476562 " fill-opacity="0.8" fill-rule="nonzero"/><path fill="#fea600" d="M 132.96875 208.953125 L 131.296875 205.039062 L 136.816406 197.28125 L 142.117188 201.996094 Z M 132.96875 208.953125 " fill-opacity="0.8" fill-rule="nonzero"/><path fill="#fea600" d="M 138.414062 215.40625 C 138.414062 215.40625 141.316406 219.757812 140.519531 222.804688 C 140.519531 222.804688 143.425781 217.726562 145.820312 218.019531 C 148.21875 218.308594 141.679688 213.234375 143.351562 212.433594 C 145.023438 211.636719 138.414062 215.40625 138.414062 215.40625 Z M 138.414062 215.40625 " fill-opacity="0.8" fill-rule="nonzero"/><path fill="#fea600" d="M 166.878906 200.039062 L 171.164062 199.53125 L 177.117188 206.925781 L 171.164062 210.769531 Z M 166.878906 200.039062 " fill-opacity="0.8" fill-rule="nonzero"/><path fill="#fea600" d="M 159.253906 203.589844 C 159.253906 203.589844 154.242188 205.183594 151.558594 203.589844 C 151.558594 203.589844 155.625 207.796875 154.753906 209.96875 C 153.808594 212.21875 160.488281 207.289062 160.78125 209.101562 C 161.070312 210.984375 159.253906 203.589844 159.253906 203.589844 Z M 159.253906 203.589844 " fill-opacity="0.8" fill-rule="nonzero"/><path fill="#fea600" d="M 195.78125 210.113281 L 195.128906 205.910156 L 202.390625 199.746094 L 206.382812 205.546875 Z M 195.78125 210.113281 " fill-opacity="0.8" fill-rule="nonzero"/><path fill="#fea600" d="M 199.558594 217.65625 C 199.558594 217.65625 201.300781 222.585938 199.773438 225.339844 C 199.773438 225.339844 203.84375 221.136719 206.09375 222.003906 C 208.34375 222.875 203.261719 216.351562 205.078125 215.988281 C 206.890625 215.625 199.558594 217.65625 199.558594 217.65625 Z M 199.558594 217.65625 " fill-opacity="0.8" fill-rule="nonzero"/><path fill="#fea600" d="M 230.855469 209.753906 L 235.140625 210.261719 L 239.0625 218.886719 L 232.378906 221.136719 Z M 230.855469 209.753906 " fill-opacity="0.8" fill-rule="nonzero"/><path fill="#fea600" d="M 222.578125 211.347656 C 222.578125 211.347656 217.347656 211.710938 215.097656 209.460938 C 215.097656 209.460938 218.074219 214.539062 216.621094 216.421875 C 215.171875 218.378906 222.867188 215.261719 222.722656 217.074219 C 222.578125 218.886719 222.578125 211.347656 222.578125 211.347656 Z M 222.578125 211.347656 " fill-opacity="0.8" fill-rule="nonzero"/><path fill="#fea600" d="M 202.679688 247.164062 L 201.519531 243.101562 L 207.980469 236.070312 L 212.628906 241.363281 Z M 202.679688 247.164062 " fill-opacity="0.8" fill-rule="nonzero"/><path fill="#fea600" d="M 207.398438 254.195312 C 207.398438 254.195312 209.722656 258.910156 208.5625 261.808594 C 208.5625 261.808594 212.046875 257.097656 214.445312 257.75 C 216.839844 258.402344 210.957031 252.457031 212.703125 251.875 C 214.445312 251.296875 207.398438 254.195312 207.398438 254.195312 Z M 207.398438 254.195312 " fill-opacity="0.8" fill-rule="nonzero"/><path fill="#fea600" d="M 237.535156 242.378906 L 241.75 242.378906 L 246.832031 250.5 L 240.441406 253.542969 Z M 237.535156 242.378906 " fill-opacity="0.8" fill-rule="nonzero"/><path fill="#fea600" d="M 229.476562 245.0625 C 229.476562 245.0625 224.320312 246.074219 221.851562 244.117188 C 221.851562 244.117188 225.410156 248.757812 224.246094 250.859375 C 223.085938 252.964844 230.273438 248.902344 230.347656 250.714844 C 230.421875 252.601562 229.476562 245.0625 229.476562 245.0625 Z M 229.476562 245.0625 " fill-opacity="0.8" fill-rule="nonzero"/><path fill="#fea600" d="M 277.765625 192.132812 L 281.832031 193.292969 L 284.449219 202.503906 L 277.476562 203.664062 Z M 277.765625 192.132812 " fill-opacity="0.8" fill-rule="nonzero"/><path fill="#fea600" d="M 269.34375 192.425781 C 269.34375 192.425781 264.113281 191.917969 262.300781 189.378906 C 262.300781 189.378906 264.40625 194.816406 262.664062 196.484375 C 260.917969 198.152344 268.980469 196.265625 268.542969 198.078125 C 268.109375 199.890625 269.34375 192.425781 269.34375 192.425781 Z M 269.34375 192.425781 " fill-opacity="0.8" fill-rule="nonzero"/><path fill="#fea600" d="M 263.386719 224.109375 L 261.136719 227.734375 L 251.625 227.734375 L 252.351562 220.699219 Z M 263.386719 224.109375 " fill-opacity="0.8" fill-rule="nonzero"/><path fill="#fea600" d="M 265.421875 215.988281 C 265.421875 215.988281 267.308594 211.128906 270.285156 209.96875 C 270.285156 209.96875 264.476562 210.550781 263.316406 208.375 C 262.152344 206.273438 261.789062 214.539062 260.191406 213.59375 C 258.523438 212.726562 265.421875 215.988281 265.421875 215.988281 Z M 265.421875 215.988281 " fill-opacity="0.8" fill-rule="nonzero"/><path fill="#fea600" d="M 240.296875 238.972656 L 239.132812 234.839844 L 245.597656 227.878906 L 250.246094 233.097656 Z M 240.296875 238.972656 " fill-opacity="0.8" fill-rule="nonzero"/><path fill="#fea600" d="M 253.222656 251.441406 C 253.222656 251.441406 255.546875 256.152344 254.382812 259.054688 C 254.382812 259.054688 257.871094 254.339844 260.265625 254.992188 C 262.589844 255.574219 256.78125 249.699219 258.523438 249.121094 C 260.265625 248.542969 253.222656 251.441406 253.222656 251.441406 Z M 253.222656 251.441406 " fill-opacity="0.8" fill-rule="nonzero"/><path fill="#fea600" d="M 242.113281 203.953125 L 246.324219 203.953125 L 251.40625 212 L 245.015625 215.117188 Z M 242.113281 203.953125 " fill-opacity="0.8" fill-rule="nonzero"/><path fill="#fea600" d="M 229.476562 198.296875 C 229.476562 198.296875 224.320312 199.3125 221.851562 197.355469 C 221.851562 197.355469 225.410156 201.996094 224.246094 204.097656 C 223.085938 206.199219 230.273438 202.140625 230.347656 203.953125 C 230.421875 205.910156 229.476562 198.296875 229.476562 198.296875 Z M 229.476562 198.296875 " fill-opacity="0.8" fill-rule="nonzero"/><path fill="#fea600" d="M 100 255.792969 L 98.835938 251.730469 L 105.300781 244.699219 L 109.949219 249.992188 Z M 100 255.792969 " fill-opacity="0.8" fill-rule="nonzero"/><path fill="#fea600" d="M 178.0625 213.378906 C 178.0625 213.378906 180.386719 218.089844 179.222656 220.992188 C 179.222656 220.992188 182.710938 216.277344 185.105469 216.929688 C 187.429688 217.511719 181.621094 211.636719 183.363281 211.058594 C 185.105469 210.476562 178.0625 213.378906 178.0625 213.378906 Z M 178.0625 213.378906 " fill-opacity="0.8" fill-rule="nonzero"/><path fill="#fea600" d="M 99.925781 212.21875 L 104.210938 212.144531 L 109.222656 220.265625 L 102.902344 223.382812 Z M 99.925781 212.21875 " fill-opacity="0.8" fill-rule="nonzero"/><path fill="#fea600" d="M 255.183594 196.917969 C 255.183594 196.917969 250.027344 197.933594 247.558594 195.976562 C 247.558594 195.976562 251.117188 200.617188 249.953125 202.71875 C 248.792969 204.824219 255.980469 200.761719 256.054688 202.574219 C 256.054688 204.460938 255.183594 196.917969 255.183594 196.917969 Z M 255.183594 196.917969 " fill-opacity="0.8" fill-rule="nonzero"/><path fill="#fea600" d="M 132.09375 247.597656 L 130.933594 243.464844 L 137.398438 236.433594 L 142.042969 241.726562 Z M 132.09375 247.597656 " fill-opacity="0.8" fill-rule="nonzero"/><path fill="#fea600" d="M 119.386719 254.632812 C 119.386719 254.632812 121.710938 259.34375 120.550781 262.242188 C 120.550781 262.242188 124.035156 257.53125 126.429688 258.183594 C 128.753906 258.765625 122.945312 252.890625 124.6875 252.3125 C 126.359375 251.660156 119.386719 254.632812 119.386719 254.632812 Z M 119.386719 254.632812 " fill-opacity="0.8" fill-rule="nonzero"/><path fill="#fea600" d="M 168.695312 251.585938 L 172.980469 251.511719 L 177.988281 259.632812 L 171.671875 262.75 Z M 168.695312 251.585938 " fill-opacity="0.8" fill-rule="nonzero"/><path fill="#fea600" d="M 121.277344 239.914062 C 121.277344 239.914062 116.121094 240.929688 113.652344 238.972656 C 113.652344 238.972656 117.210938 243.609375 116.046875 245.714844 C 114.886719 247.816406 122.074219 243.757812 122.148438 245.570312 C 122.21875 247.453125 121.277344 239.914062 121.277344 239.914062 Z M 121.277344 239.914062 " fill-opacity="0.8" fill-rule="nonzero"/><path fill="#fea600" d="M 118.445312 193.800781 C 118.445312 193.800781 120.765625 198.515625 119.605469 201.414062 C 119.605469 201.414062 123.089844 196.703125 125.488281 197.355469 C 127.882812 198.007812 122 192.0625 123.746094 191.480469 C 125.488281 190.828125 118.445312 193.800781 118.445312 193.800781 Z M 118.445312 193.800781 " fill-opacity="0.8" fill-rule="nonzero"/><path fill="#fea600" d="M 190.042969 201.996094 C 190.042969 201.996094 184.890625 203.011719 182.417969 201.050781 C 182.417969 201.050781 185.976562 205.691406 184.816406 207.796875 C 183.652344 209.898438 190.84375 205.835938 190.914062 207.648438 C 190.988281 209.535156 190.042969 201.996094 190.042969 201.996094 Z M 190.042969 201.996094 " fill-opacity="0.8" fill-rule="nonzero"/><path fill="#fea600" d="M 269.632812 236.578125 L 268.472656 232.519531 L 274.933594 225.484375 L 279.582031 230.777344 Z M 269.632812 236.578125 " fill-opacity="0.8" fill-rule="nonzero"/><path fill="#fea600" d="M 266.074219 242.667969 C 266.074219 242.667969 268.398438 247.382812 267.238281 250.28125 C 267.238281 250.28125 270.722656 245.570312 273.117188 246.222656 C 275.441406 246.800781 269.632812 240.929688 271.375 240.347656 C 273.117188 239.769531 266.074219 242.667969 266.074219 242.667969 Z M 266.074219 242.667969 " fill-opacity="0.8" fill-rule="nonzero"/><path fill="#fea600" d="M 275.078125 209.460938 L 279.363281 209.460938 L 284.375 217.511719 L 278.058594 220.628906 Z M 275.078125 209.460938 " fill-opacity="0.8" fill-rule="nonzero"/><path fill="#fea600" d="M 259.757812 238.101562 C 259.757812 238.101562 254.601562 239.117188 252.132812 237.160156 C 252.132812 237.160156 255.691406 241.796875 254.527344 243.902344 C 253.367188 246.003906 260.554688 241.941406 260.628906 243.757812 C 260.628906 245.640625 259.757812 238.101562 259.757812 238.101562 Z M 259.757812 238.101562 " fill-opacity="0.8" fill-rule="nonzero"/><path fill="#fea600" d="M 122.4375 158.277344 L 123.382812 154.144531 L 132.457031 151.097656 L 133.984375 157.984375 Z M 122.4375 158.277344 " fill-opacity="0.8" fill-rule="nonzero"/><path fill="#fea600" d="M 123.089844 166.6875 C 123.089844 166.6875 122.875 171.90625 120.402344 173.9375 C 120.402344 173.9375 125.777344 171.542969 127.519531 173.210938 C 129.261719 174.878906 127.011719 166.902344 128.828125 167.265625 C 130.714844 167.554688 123.089844 166.6875 123.089844 166.6875 Z M 123.089844 166.6875 " fill-opacity="0.8" fill-rule="nonzero"/><path fill="#fea600" d="M 155.1875 170.964844 L 158.964844 172.992188 L 159.398438 182.492188 L 152.355469 182.128906 Z M 155.1875 170.964844 " fill-opacity="0.8" fill-rule="nonzero"/><path fill="#fea600" d="M 146.910156 169.367188 C 146.910156 169.367188 141.898438 167.773438 140.664062 164.875 C 140.664062 164.875 141.535156 170.675781 139.429688 171.90625 C 137.398438 173.140625 145.675781 173.140625 144.804688 174.808594 C 143.933594 176.472656 146.910156 169.367188 146.910156 169.367188 Z M 146.910156 169.367188 " fill-opacity="0.8" fill-rule="nonzero"/><path fill="#fea600" d="M 163.464844 165.816406 L 166.808594 163.132812 L 175.8125 166.25 L 172.835938 172.632812 Z M 163.464844 165.816406 " fill-opacity="0.8" fill-rule="nonzero"/><path fill="#fea600" d="M 187.359375 144.5 C 187.359375 144.5 184.015625 148.488281 180.820312 148.5625 C 180.820312 148.5625 186.484375 149.9375 186.921875 152.332031 C 187.285156 154.722656 190.335938 147.039062 191.570312 148.417969 C 192.804688 149.792969 187.359375 144.5 187.359375 144.5 Z M 187.359375 144.5 " fill-opacity="0.8" fill-rule="nonzero"/><path fill="#fea600" d="M 161.503906 156.390625 L 163.25 160.304688 L 157.800781 168.136719 L 152.429688 163.570312 Z M 161.503906 156.390625 " fill-opacity="0.8" fill-rule="nonzero"/><path fill="#fea600" d="M 155.914062 150.082031 C 155.914062 150.082031 152.9375 145.734375 153.734375 142.6875 C 153.734375 142.6875 150.902344 147.761719 148.507812 147.546875 C 146.109375 147.257812 152.71875 152.257812 151.050781 153.128906 C 149.378906 153.925781 155.914062 150.082031 155.914062 150.082031 Z M 155.914062 150.082031 " fill-opacity="0.8" fill-rule="nonzero"/><path fill="#fea600" d="M 169.710938 161.683594 L 170.21875 157.480469 L 178.789062 153.417969 L 181.183594 160.015625 Z M 169.710938 161.683594 " fill-opacity="0.8" fill-rule="nonzero"/><path fill="#fea600" d="M 105.300781 174.808594 L 106.316406 170.675781 L 115.320312 167.628906 L 116.847656 174.515625 Z M 105.300781 174.808594 " fill-opacity="0.8" fill-rule="nonzero"/><path fill="#fea600" d="M 139.359375 148.5625 L 143.0625 150.589844 L 143.570312 160.089844 L 136.523438 159.726562 Z M 139.359375 148.5625 " fill-opacity="0.8" fill-rule="nonzero"/><path fill="#fea600" d="M 132.023438 174.878906 C 132.023438 174.878906 131.804688 180.097656 129.335938 182.128906 C 129.335938 182.128906 134.710938 179.738281 136.453125 181.40625 C 138.195312 183.070312 135.945312 175.097656 137.761719 175.460938 C 139.574219 175.75 132.023438 174.878906 132.023438 174.878906 Z M 132.023438 174.878906 " fill-opacity="0.8" fill-rule="nonzero"/><path fill="#fea600" d="M 120.621094 157.480469 C 120.621094 157.480469 115.613281 155.882812 114.378906 152.984375 C 114.378906 152.984375 115.25 158.785156 113.140625 160.015625 C 111.109375 161.25 119.386719 161.25 118.515625 162.917969 C 117.789062 164.511719 120.621094 157.480469 120.621094 157.480469 Z M 120.621094 157.480469 " fill-opacity="0.8" fill-rule="nonzero"/><path fill="#fea600" d="M 164.410156 141.382812 C 164.410156 141.382812 164.191406 146.601562 161.722656 148.632812 C 161.722656 148.632812 167.097656 146.242188 168.839844 147.910156 C 170.582031 149.574219 168.332031 141.601562 170.148438 141.964844 C 172.035156 142.253906 164.410156 141.382812 164.410156 141.382812 Z M 164.410156 141.382812 " fill-opacity="0.8" fill-rule="nonzero"/><path fill="#fea600" d="M 165.789062 184.957031 L 164.554688 180.824219 L 171.019531 173.792969 L 175.738281 179.085938 Z M 165.789062 184.957031 " fill-opacity="0.8" fill-rule="nonzero"/><path fill="#fea600" d="M 183.292969 157.1875 C 183.292969 157.1875 185.613281 161.902344 184.453125 164.800781 C 184.453125 164.800781 187.9375 160.089844 190.335938 160.742188 C 192.660156 161.320312 186.847656 155.449219 188.59375 154.867188 C 190.335938 154.214844 183.292969 157.1875 183.292969 157.1875 Z M 183.292969 157.1875 " fill-opacity="0.8" fill-rule="nonzero"/><path fill="#fea600" d="M 232.671875 156.320312 L 236.882812 156.320312 L 241.964844 164.4375 L 235.574219 167.484375 Z M 232.671875 156.320312 " fill-opacity="0.8" fill-rule="nonzero"/><path fill="#fea600" d="M 227.371094 161.683594 C 227.371094 161.683594 222.214844 162.699219 219.746094 160.742188 C 219.746094 160.742188 223.304688 165.382812 222.140625 167.484375 C 220.980469 169.585938 228.167969 165.527344 228.242188 167.339844 C 228.3125 169.222656 227.371094 161.683594 227.371094 161.683594 Z M 227.371094 161.683594 " fill-opacity="0.8" fill-rule="nonzero"/><path fill="#fea600" d="M 207.035156 147.910156 L 208.632812 143.921875 L 218.003906 142.324219 L 218.511719 149.359375 Z M 207.035156 147.910156 " fill-opacity="0.8" fill-rule="nonzero"/><path fill="#fea600" d="M 182.636719 168.210938 C 182.636719 168.210938 181.621094 173.355469 178.933594 174.953125 C 178.933594 174.953125 184.597656 173.355469 186.050781 175.242188 C 187.574219 177.125 186.484375 168.933594 188.230469 169.515625 C 189.972656 170.167969 182.636719 168.210938 182.636719 168.210938 Z M 182.636719 168.210938 " fill-opacity="0.8" fill-rule="nonzero"/><path fill="#fea600" d="M 222.867188 174.445312 L 226.28125 177.054688 L 225.335938 186.480469 L 218.4375 185.101562 Z M 222.867188 174.445312 " fill-opacity="0.8" fill-rule="nonzero"/><path fill="#fea600" d="M 201.15625 167.050781 C 201.15625 167.050781 196.507812 164.730469 195.636719 161.683594 C 195.636719 161.683594 195.636719 167.554688 193.386719 168.5 C 191.132812 169.441406 199.339844 170.601562 198.324219 172.125 C 197.304688 173.574219 201.15625 167.050781 201.15625 167.050781 Z M 201.15625 167.050781 " fill-opacity="0.8" fill-rule="nonzero"/><path fill="#fea600" d="M 223.449219 156.753906 L 221.777344 152.839844 L 227.371094 145.082031 L 232.671875 149.792969 Z M 223.449219 156.753906 " fill-opacity="0.8" fill-rule="nonzero"/><path fill="#fea600" d="M 185.90625 188.074219 L 184.742188 183.941406 L 191.207031 176.980469 L 195.855469 182.203125 Z M 185.90625 188.074219 " fill-opacity="0.8" fill-rule="nonzero"/><path fill="#fea600" d="M 196 147.183594 L 200.210938 147.183594 L 205.292969 155.230469 L 198.902344 158.347656 Z M 196 147.183594 " fill-opacity="0.8" fill-rule="nonzero"/><path fill="#fea600" d="M 232.816406 174.007812 C 232.816406 174.007812 235.140625 178.722656 233.976562 181.621094 C 233.976562 181.621094 237.464844 176.910156 239.859375 177.5625 C 242.183594 178.140625 236.375 172.269531 238.117188 171.6875 C 239.859375 171.109375 232.816406 174.007812 232.816406 174.007812 Z M 232.816406 174.007812 " fill-opacity="0.8" fill-rule="nonzero"/><path fill="#fea600" d="M 212.703125 174.007812 C 212.703125 174.007812 207.546875 175.023438 205.078125 173.066406 C 205.078125 173.066406 208.632812 177.707031 207.472656 179.808594 C 206.3125 181.910156 213.5 177.851562 213.574219 179.664062 C 213.644531 181.550781 212.703125 174.007812 212.703125 174.007812 Z M 212.703125 174.007812 " fill-opacity="0.8" fill-rule="nonzero"/><path fill="#fea600" d="M 208.925781 159 C 208.925781 159 211.25 163.714844 210.085938 166.613281 C 210.085938 166.613281 213.574219 161.902344 215.96875 162.554688 C 218.292969 163.132812 212.484375 157.261719 214.226562 156.679688 C 215.96875 156.101562 208.925781 159 208.925781 159 Z M 208.925781 159 " fill-opacity="0.8" fill-rule="nonzero"/><path fill="#fea600" d="M 165.789062 133.699219 L 164.554688 129.566406 L 171.019531 122.53125 L 175.738281 127.824219 Z M 165.789062 133.699219 " fill-opacity="0.8" fill-rule="nonzero"/><path fill="#fea600" d="M 181.476562 130.582031 C 181.476562 130.582031 183.800781 135.292969 182.636719 138.191406 C 182.636719 138.191406 186.125 133.480469 188.519531 134.132812 C 190.84375 134.714844 185.035156 128.839844 186.777344 128.261719 C 188.445312 127.679688 181.476562 130.582031 181.476562 130.582031 Z M 181.476562 130.582031 " fill-opacity="0.8" fill-rule="nonzero"/><path fill="#fea600" d="M 246.105469 169.367188 L 250.246094 168.355469 L 256.996094 175.023438 L 251.550781 179.519531 Z M 246.105469 169.367188 " fill-opacity="0.8" fill-rule="nonzero"/><path fill="#fea600" d="M 205.367188 181.839844 C 205.367188 181.839844 200.210938 182.855469 197.742188 180.898438 C 197.742188 180.898438 201.300781 185.535156 200.136719 187.640625 C 198.976562 189.742188 206.164062 185.683594 206.238281 187.496094 C 206.3125 189.378906 205.367188 181.839844 205.367188 181.839844 Z M 205.367188 181.839844 " fill-opacity="0.8" fill-rule="nonzero"/><path fill="#fea600" d="M 237.683594 145.296875 C 237.683594 145.296875 236.664062 150.445312 233.976562 152.042969 C 233.976562 152.042969 239.640625 150.445312 241.09375 152.332031 C 242.621094 154.214844 241.53125 146.023438 243.273438 146.601562 C 245.015625 147.328125 237.683594 145.296875 237.683594 145.296875 Z M 237.683594 145.296875 " fill-opacity="0.8" fill-rule="nonzero"/><path fill="#fea600" d="M 195.34375 112.164062 L 198.757812 114.773438 L 197.816406 124.199219 L 190.914062 122.824219 Z M 195.34375 112.164062 " fill-opacity="0.8" fill-rule="nonzero"/><path fill="#fea600" d="M 268.109375 170.746094 C 268.109375 170.746094 263.460938 168.425781 262.589844 165.382812 C 262.589844 165.382812 262.589844 171.253906 260.339844 172.195312 C 258.085938 173.140625 266.292969 174.300781 265.277344 175.820312 C 264.257812 177.273438 268.109375 170.746094 268.109375 170.746094 Z M 268.109375 170.746094 " fill-opacity="0.8" fill-rule="nonzero"/><path fill="#fea600" d="M 246.394531 154.507812 L 250.679688 154.507812 L 255.691406 162.554688 L 249.375 165.671875 Z M 246.394531 154.507812 " fill-opacity="0.8" fill-rule="nonzero"/><path fill="#fea600" d="M 175.957031 114.484375 C 175.957031 114.484375 178.28125 119.199219 177.117188 122.097656 C 177.117188 122.097656 180.605469 117.386719 183 118.039062 C 185.324219 118.617188 179.515625 112.746094 181.257812 112.164062 C 183 111.585938 175.957031 114.484375 175.957031 114.484375 Z M 175.957031 114.484375 " fill-opacity="0.8" fill-rule="nonzero"/><path fill="#fea600" d="M 207.183594 127.316406 C 207.183594 127.316406 202.027344 128.332031 199.558594 126.375 C 199.558594 126.375 203.117188 131.015625 201.953125 133.117188 C 200.792969 135.21875 207.980469 131.160156 208.054688 132.972656 C 208.125 134.859375 207.183594 127.316406 207.183594 127.316406 Z M 207.183594 127.316406 " fill-opacity="0.8" fill-rule="nonzero"/><path fill="#fea600" d="M 241.09375 179.085938 C 241.09375 179.085938 243.417969 183.796875 242.257812 186.695312 C 242.257812 186.695312 245.816406 182.058594 248.136719 182.636719 C 250.460938 183.21875 244.652344 177.34375 246.394531 176.765625 C 248.136719 176.257812 241.09375 179.085938 241.09375 179.085938 Z M 241.09375 179.085938 " fill-opacity="0.8" fill-rule="nonzero"/><g transform="matrix(1, 0, 0, 1, 0, 228)"><g clip-path="url(#5f2bf3c08d)"><g clip-path="url(#eb75511c05)"><g fill="#ffffff" fill-opacity="1"><g transform="translate(-10.396069, 121.856733)"><g><path d="M 54.953125 -87.828125 L 53.84375 -76.296875 L 17.90625 -72.015625 L 26.5625 -21.328125 L 57.734375 -23.859375 L 58.421875 -13.25 L 15.5625 -4.03125 L 0.421875 -89.59375 Z M 54.953125 -87.828125 "/></g></g></g></g><g fill="#ffffff" fill-opacity="1"><g transform="translate(54.664867, 117.675355)"><g><path d="M 51.484375 -92.34375 L 61.71875 -7.140625 L 10.671875 -6.203125 L 2.015625 -89.5625 L 12.25 -90.359375 L 25.484375 -25.484375 L 41.28125 -23.71875 L 39.296875 -91.5625 Z M 51.484375 -92.34375 "/></g></g></g><g fill="#ffffff" fill-opacity="1"><g transform="translate(123.923281, 113.224209)"><g><path d="M 17.171875 -75 L 21.25 -50.765625 L 53.328125 -55.59375 L 58.125 -7.546875 L 8.34375 -3.5625 L 8.640625 -11.09375 L 39.03125 -19.765625 L 39.421875 -38.109375 L 8 -33.453125 L 1.21875 -89.65625 L 46 -91.734375 L 45.953125 -80.015625 Z M 17.171875 -75 "/></g></g></g><g fill="#ffffff" fill-opacity="1"><g transform="translate(189.115354, 109.034402)"><g><path d="M 54.953125 -87.828125 L 53.84375 -76.296875 L 17.90625 -72.015625 L 26.5625 -21.328125 L 57.734375 -23.859375 L 58.421875 -13.25 L 15.5625 -4.03125 L 0.421875 -89.59375 Z M 54.953125 -87.828125 "/></g></g></g><g fill="#ffffff" fill-opacity="1"><g transform="translate(254.176291, 104.853023)"><g><path d="M 51.484375 -92.34375 L 61.71875 -7.140625 L 10.671875 -6.203125 L 2.015625 -89.5625 L 12.25 -90.359375 L 25.484375 -25.484375 L 41.28125 -23.71875 L 39.296875 -91.5625 Z M 51.484375 -92.34375 "/></g></g></g><g clip-path="url(#79f13d2d1c)"><g fill="#ffffff" fill-opacity="1"><g transform="translate(323.434705, 100.401878)"><g><path d="M 32.765625 -76.390625 L 7.015625 -77.375 L 6.265625 -89.046875 L 49.359375 -92.75 L 52.828125 -77.6875 L 22.125 -18.546875 L 58.421875 -21.40625 L 59.0625 -11.3125 L 6.75 -3.609375 L 5.828125 -18.03125 Z M 32.765625 -76.390625 "/></g></g></g></g></g></g></svg>