<svg xmlns="http://www.w3.org/2000/svg" xmlns:xlink="http://www.w3.org/1999/xlink" width="500" zoomAndPan="magnify" viewBox="0 0 375 374.999991" height="500" preserveAspectRatio="xMidYMid meet" version="1.0"><defs><clipPath id="8ca766ed8a"><path d="M 58 29 L 317.484375 29 L 317.484375 375 L 58 375 Z M 58 29 " clip-rule="nonzero"/></clipPath><clipPath id="1e67bcd205"><path d="M 57.234375 27.664062 L 313 27.664062 L 313 375 L 57.234375 375 Z M 57.234375 27.664062 " clip-rule="nonzero"/></clipPath></defs><rect x="-37.5" width="450" fill="#ffffff" y="-37.499999" height="449.999989" fill-opacity="1"/><rect x="-37.5" width="450" fill="#5d0000" y="-37.499999" height="449.999989" fill-opacity="1"/><g clip-path="url(#8ca766ed8a)"><path fill="#000000" d="M 308.144531 268.867188 L 308.386719 268.929688 L 308.332031 268.628906 L 312.121094 266.730469 L 309.925781 254.847656 L 300.628906 250.539062 L 301.304688 225.132812 L 298.664062 210.6875 L 296.214844 198.519531 L 281.902344 187.375 L 281.015625 180.089844 L 281.109375 180.109375 L 281.839844 179.890625 L 284.453125 175.355469 L 283.671875 172.414062 L 283.703125 169.539062 L 280.320312 169.164062 L 281.007812 161.90625 L 278.726562 133.757812 C 278.726562 133.757812 282.683594 121.4375 281.777344 109.625 L 280.921875 110.730469 L 266.546875 118.777344 L 259.8125 134.792969 L 257.179688 153.253906 L 252.191406 165.566406 L 245.332031 159.570312 L 228.6875 138.472656 L 218.035156 126.941406 C 218.035156 126.941406 208.4375 118.832031 203.285156 114.765625 C 202.847656 120.820312 203.941406 132.414062 203.941406 132.414062 L 208.648438 151.730469 L 213.351562 164.285156 L 220.546875 178.023438 L 217.714844 181.265625 L 216.757812 183.550781 C 216.757812 183.550781 216.734375 183.933594 216.726562 184.121094 C 216.746094 183.839844 216.726562 184.226562 216.726562 184.226562 L 216.726562 184.78125 C 216.726562 184.78125 216.789062 185.769531 216.789062 185.769531 L 216.308594 188.773438 L 213.851562 182.464844 L 210.332031 174.25 L 201.402344 152.765625 L 194.519531 141.984375 L 189.023438 133.1875 L 181.089844 121.9375 L 172.910156 113.753906 L 171.585938 113.242188 L 166.464844 110.53125 L 162.757812 107.894531 L 162.488281 105.519531 L 158.128906 102.972656 L 149.113281 100.035156 L 148.550781 97.730469 L 146.613281 94.886719 L 144.761719 87.273438 L 146.6875 84.917969 L 154.402344 68.519531 L 153.902344 60.972656 L 155.566406 61.265625 L 156.441406 60.386719 L 158.117188 58.78125 C 158.085938 61.367188 156.960938 64.714844 156.960938 64.714844 L 156.535156 67.789062 L 157.660156 71.898438 L 159.1875 75.496094 L 159.886719 78.421875 C 159.886719 78.421875 160.386719 80.5 160.824219 81.382812 C 160.832031 80.121094 161.125 77.789062 161.125 77.789062 L 160.492188 73.765625 L 158.292969 69.917969 L 158.730469 65.246094 C 158.730469 65.246094 158.605469 63.152344 158.492188 61.453125 C 158.6875 62.828125 159.148438 64.351562 159.148438 64.351562 L 159.773438 66.832031 C 159.773438 66.832031 159.792969 69.8125 159.71875 71.367188 C 160.105469 70.082031 160.605469 67.539062 160.605469 67.539062 L 160.832031 64.382812 C 160.832031 64.382812 159.9375 63.421875 159.730469 62.589844 C 159.511719 61.703125 159.761719 60.941406 159.867188 60.066406 C 160 59.03125 159.429688 58.210938 158.90625 57.292969 L 158.792969 56.90625 L 157.542969 53.238281 L 155.023438 49.683594 L 153.253906 48.191406 L 149.757812 43.65625 L 145.886719 37.078125 L 141.167969 31.960938 L 133.527344 29.1875 L 124.253906 29.8125 L 117.445312 32.875 L 112.03125 38.359375 L 109.96875 42.46875 L 107.503906 50.839844 L 107.273438 51.984375 L 104.316406 55.476562 L 101.457031 63.746094 L 97.6875 71.355469 L 98.445312 72.753906 L 99.300781 73.960938 C 99.25 77.132812 98.695312 81.070312 98.695312 81.070312 L 97.230469 85.472656 L 93.148438 92.039062 C 93.148438 92.039062 92.730469 94.457031 94.042969 95.800781 C 93.917969 94.46875 94.417969 92.496094 94.417969 92.496094 L 96.582031 89.046875 L 98.59375 85.242188 L 100.675781 80.550781 C 100.675781 80.550781 99.820312 76.222656 100.257812 74.523438 C 101.476562 76.191406 102.039062 80.582031 102.039062 80.582031 C 102.039062 80.582031 101.953125 85.460938 101.953125 87.617188 C 102.421875 87.179688 103.183594 82.71875 103.183594 82.71875 L 103.164062 77.109375 C 103.164062 77.109375 102.652344 75.753906 102.046875 74.296875 L 106.515625 73.847656 L 107.886719 72.886719 C 109.160156 73.480469 112.425781 74.941406 113.65625 74.773438 C 114.71875 76.121094 116.195312 77.765625 117.695312 79.371094 L 119.609375 84.117188 L 119.195312 89.566406 L 115.894531 94.738281 L 115.871094 94.757812 L 113.625 93.789062 L 112.082031 93.789062 L 106.097656 97.105469 L 99.644531 102.308594 L 99.808594 105.257812 L 100.707031 105.863281 L 100.496094 105.925781 L 93.710938 111.023438 L 86.539062 117.109375 L 77.3125 128.996094 L 71.089844 144.683594 L 70.570312 152.441406 C 70.515625 152.878906 70.464844 153.296875 70.433594 153.714844 L 68.550781 165.265625 L 69.132812 174.9375 L 65.101562 192.117188 L 63.925781 207.171875 L 60.710938 225.550781 L 59.855469 241.1875 L 60.460938 246.476562 L 58.992188 251.3125 L 58.117188 259.234375 L 60.710938 261.933594 L 64.90625 263.375 L 76.003906 262.914062 L 79.085938 262.882812 L 77.1875 265.96875 L 71.222656 287.183594 L 70.734375 300.277344 L 74.523438 317.175781 L 77.34375 327.832031 L 79.3125 354.125 L 79.3125 381.488281 C 79.3125 381.488281 76.980469 402.746094 76.980469 402.746094 L 83.632812 428.046875 L 87.214844 447.863281 L 93.4375 465.503906 L 94.105469 476.261719 L 99.03125 481.140625 C 99.03125 481.140625 106.390625 482.675781 110.179688 481.578125 C 110.65625 479.714844 110.898438 476.386719 110.898438 476.386719 L 105.433594 461.699219 L 99.257812 448.417969 L 94.699219 430.328125 L 93.480469 404.726562 L 95.167969 386.273438 L 101.101562 366.789062 L 103.402344 354.375 C 103.402344 354.375 103.621094 345.742188 103.671875 339.976562 C 104.160156 344.34375 108.011719 347.085938 111.21875 348.640625 L 111.21875 349.152344 C 111.21875 349.152344 111.230469 349.246094 111.242188 349.285156 L 112.457031 358.648438 L 108.324219 369.605469 L 104.566406 381.730469 L 105.027344 399.160156 L 105.660156 416.402344 L 105.128906 433.5 L 109.324219 447.511719 L 113.925781 454.078125 L 116.839844 460.574219 L 118.234375 468.757812 L 130.664062 473.800781 L 136.546875 469.328125 L 134.078125 457.902344 L 122.503906 442.714844 L 120.972656 423.273438 C 121.527344 423.855469 122.367188 424.597656 123.367188 425.011719 L 123.710938 425.535156 L 127.53125 430.046875 L 138.722656 434.53125 L 150.589844 435.3125 L 155.992188 435.46875 L 159.929688 434.011719 L 160.738281 429.445312 L 160.355469 422.398438 L 156.210938 416.203125 C 156.617188 414.191406 156.660156 411.398438 156.660156 411.398438 L 154.992188 405.402344 L 149.164062 398.292969 C 149.164062 397.335938 149.164062 396.273438 149.144531 395.144531 L 150.871094 395.375 C 150.964844 395.386719 151.058594 395.417969 151.152344 395.449219 L 160 398.898438 C 160.613281 399.136719 161.300781 398.847656 161.5625 398.253906 L 162.707031 395.636719 C 162.789062 395.449219 162.820312 395.238281 162.8125 395.042969 L 161.03125 373.703125 L 160.824219 371.730469 C 163.851562 372.148438 172.085938 373.253906 175.523438 373.324219 C 175.605469 380.570312 175.417969 395.105469 175.417969 395.105469 L 175.5 421.644531 L 176.09375 439.398438 L 171.898438 453.878906 L 174.210938 471.550781 L 176.230469 490.523438 C 176.230469 490.523438 168.078125 506.265625 173.972656 515.847656 C 169.003906 519.859375 167.808594 535.964844 167.808594 535.964844 L 176.980469 548.925781 L 188.285156 548.332031 L 188.015625 532.671875 L 190.167969 527.761719 L 188.171875 519.933594 L 187.347656 498.886719 L 190.347656 473.738281 L 193.8125 454.109375 L 194.4375 440.253906 L 193.261719 417.152344 L 196.132812 394.332031 L 202.847656 385.523438 L 216.152344 380.488281 C 216.152344 380.488281 216.546875 380.375 217.171875 380.1875 C 216.601562 384.0625 214.832031 389.359375 214.832031 389.359375 L 218.953125 403.933594 L 217.320312 406.65625 C 217.046875 405.769531 216.789062 404.945312 216.578125 404.296875 C 215.882812 405.039062 215.246094 406.476562 214.714844 408.074219 L 211.53125 407.855469 C 212.320312 408.519531 213.195312 409.324219 214.101562 410.136719 C 213.695312 411.648438 213.382812 413.085938 213.195312 414.035156 C 214.257812 413.359375 215.320312 412.710938 216.371094 412.066406 C 217.421875 412.890625 218.484375 413.609375 219.515625 414.035156 C 219.277344 413.234375 218.933594 412.054688 218.546875 410.75 C 219.765625 410.023438 220.984375 409.304688 222.230469 408.59375 L 218.683594 408.34375 L 220.328125 405.613281 C 220.328125 405.613281 220.335938 405.613281 220.347656 405.601562 L 221.585938 406.988281 L 224.074219 411.410156 L 226.261719 415.316406 L 227.90625 414.859375 L 232.070312 430.164062 L 231.183594 443.234375 L 235.578125 453.808594 L 236.546875 469.164062 L 238.117188 484.65625 L 246.644531 501.074219 L 245.933594 516.542969 L 253.578125 521.527344 L 262.871094 524.5 L 271.972656 523.863281 L 275.863281 516.148438 L 271.980469 507.078125 L 261.632812 496.800781 L 254.878906 480.734375 L 253.265625 457.277344 L 248.964844 415.671875 L 249.183594 409.175781 L 251.628906 408.550781 L 260.664062 406.007812 C 260.769531 406.113281 260.863281 406.21875 260.957031 406.3125 C 261.46875 406.675781 261.164062 406.570312 262.644531 407.414062 C 262.808594 407.363281 266.589844 405.507812 266.589844 405.507812 C 266.589844 405.507812 271.429688 402.796875 272.085938 401.546875 L 272.710938 401.277344 L 284.566406 393.945312 L 284.796875 390.007812 L 282.445312 386.640625 L 277.6875 382.457031 L 272.167969 382.207031 C 270.109375 379.777344 266.847656 376.441406 266.847656 376.441406 L 259.363281 373.585938 L 254.710938 377.351562 L 256.40625 370.585938 L 258.96875 360.984375 L 259.574219 360.523438 L 263.820312 351.078125 L 266.609375 339.851562 L 266.722656 339.039062 C 267.515625 339.207031 268.078125 339.320312 268.078125 339.320312 L 279.644531 339.257812 L 289.136719 338.308594 L 297.871094 332.417969 L 305.75 322.710938 L 306.5 306.3125 L 313.671875 299.527344 L 317.273438 286.601562 L 308.15625 268.867188 Z M 268.234375 328.601562 L 269.890625 317.5625 L 269.816406 313.613281 C 271.230469 315.28125 272.574219 316.636719 272.574219 316.636719 L 277.28125 322.085938 L 282.089844 327.089844 C 282.089844 327.089844 282.601562 327.582031 283.328125 328.257812 L 281.683594 328.519531 L 275.0625 328.644531 C 275.0625 328.644531 271.742188 328.570312 268.203125 328.71875 L 268.222656 328.59375 Z M 277.039062 308.660156 L 286.941406 312.039062 L 300.808594 311.703125 L 301.628906 310.933594 L 301.546875 311.191406 L 297.890625 319.960938 L 295.832031 322.015625 L 293.289062 323.683594 L 288.90625 321.421875 L 282.289062 315.269531 L 277.039062 308.671875 Z M 309.382812 262.257812 L 309.363281 262.277344 C 309.351562 262.144531 309.332031 261.996094 309.320312 261.851562 L 309.382812 262.246094 Z M 309.019531 259.933594 L 309.195312 261.070312 C 309.113281 260.632812 309.019531 260.195312 308.90625 259.765625 L 309.019531 259.921875 Z M 216.714844 192.128906 L 217.808594 197.6875 C 217.808594 197.6875 218.183594 198.394531 218.765625 199.542969 L 214.957031 208.359375 L 213.488281 207.589844 L 208.15625 199.886719 L 207.429688 197.976562 L 208.3125 197.59375 L 212.164062 196.214844 L 215.164062 193.941406 L 216.703125 192.117188 Z M 122.335938 411.179688 L 121.214844 413.796875 L 120.640625 419.863281 L 120.621094 419.65625 L 121.097656 397.304688 L 124.761719 396.980469 L 125.023438 400.585938 L 123.773438 407.800781 L 123.472656 408.5 L 122.535156 410.085938 L 122.328125 411.179688 Z M 151.570312 406.40625 C 151.570312 406.40625 152.734375 409.449219 153.609375 412.378906 L 153.578125 412.335938 L 150.320312 405.058594 Z M 261.175781 377.171875 C 261.175781 377.171875 266.515625 379.582031 269.222656 382.375 L 262.746094 383.398438 L 254.410156 381.886719 L 254.566406 380.4375 L 261.175781 377.183594 Z M 261.175781 377.171875 " fill-opacity="1" fill-rule="nonzero"/></g><g clip-path="url(#1e67bcd205)"><path fill="#c6b9ab" d="M 136.371094 102.566406 L 125.898438 99.054688 L 117.871094 95.613281 L 121.578125 89.746094 L 121.410156 83.261719 C 122.703125 84.5625 123.597656 85.449219 123.597656 85.449219 L 129.042969 89.597656 L 141.492188 91.214844 L 142.96875 89.402344 L 144.417969 96.648438 L 146.46875 100.359375 L 141.878906 101.378906 L 136.402344 102.765625 L 136.359375 102.578125 Z M 123.816406 62.878906 L 122.984375 63.160156 L 120.390625 64.703125 L 122.585938 65.777344 L 124.742188 65.902344 L 123.328125 64.359375 L 123.804688 62.871094 Z M 127.167969 62.210938 L 128.605469 63.339844 L 128.023438 63.339844 L 127.78125 65.558594 L 129.34375 64.902344 C 129.34375 64.902344 130.71875 63.785156 131.9375 62.660156 C 130.738281 62.273438 129.5 62.023438 129.5 62.023438 L 127.15625 62.191406 Z M 146.21875 59.972656 L 142.011719 61.429688 L 142.78125 62.003906 L 145.707031 63.152344 L 145 61.328125 L 145.019531 60.890625 L 146.230469 59.949219 Z M 149.476562 63.183594 L 151.152344 62.535156 L 151.621094 62.285156 L 151.601562 60.398438 L 150.996094 59.785156 L 149.152344 59.542969 L 148.863281 59.542969 C 148.863281 59.542969 150.363281 61.097656 150.363281 61.097656 L 149.777344 61.015625 L 149.476562 63.191406 Z M 140.605469 77.921875 C 139.972656 78.164062 137.183594 79.144531 135.828125 78.007812 C 135.183594 78.414062 134.515625 78.757812 133.851562 79.121094 C 134.632812 79.425781 135.433594 79.675781 136.234375 79.925781 C 136.996094 80.164062 137.765625 80.40625 138.503906 80.6875 C 139.472656 79.839844 141.222656 79.371094 142.304688 78.683594 L 141.511719 78.339844 Z M 128.988281 399.261719 L 132.070312 396.335938 L 126.636719 396.8125 L 126.929688 401.191406 L 126.574219 403.320312 Z M 144.292969 395.292969 L 146.726562 396.75 C 146.65625 396.09375 146.582031 395.4375 146.507812 394.78125 L 143.042969 394.3125 C 143.042969 394.3125 142.96875 394.3125 142.9375 394.3125 C 142.90625 394.625 142.886719 394.925781 142.867188 395.21875 L 144.304688 395.28125 Z M 158.316406 423.625 L 155.179688 419.082031 L 148.433594 410.148438 C 148.433594 410.148438 148.007812 407.175781 147.488281 403.070312 L 147.34375 402.789062 C 147.34375 402.789062 147.332031 402.433594 147.300781 401.808594 L 145.144531 399.480469 L 139.066406 398.023438 L 128.574219 404.683594 C 128.574219 404.683594 126.46875 411.410156 124.230469 415.171875 L 123.910156 416.589844 L 123.503906 419.632812 L 123.535156 419.976562 L 123.535156 420.007812 C 123.535156 420.007812 123.796875 420.59375 123.796875 420.59375 L 126.667969 424.441406 L 130.644531 427.847656 L 142.84375 430.496094 L 148.195312 430.738281 L 153.296875 431.132812 L 157.730469 430.789062 L 158.773438 430.289062 L 158.792969 430.308594 L 158.792969 429.195312 C 158.792969 429.195312 158.316406 423.59375 158.316406 423.59375 Z M 223.042969 403.632812 L 226.394531 407.855469 L 226.292969 401.722656 C 225.3125 402.152344 224.117188 402.902344 223.035156 403.632812 Z M 251.652344 389.609375 C 251.652344 389.609375 251.652344 389.558594 251.640625 389.535156 L 249.558594 397.84375 L 249.351562 403.882812 L 257.417969 402.808594 L 257.917969 402.597656 C 256.585938 400.773438 255.429688 399.066406 255.429688 399.066406 C 255.429688 399.066406 252.328125 392.871094 251.640625 389.609375 Z M 219.078125 381.1875 C 219.015625 385.847656 219.847656 393.375 219.847656 393.375 L 222.074219 401.496094 L 222.929688 401.035156 C 222.929688 401.035156 224.855469 399.035156 226.105469 398.523438 C 226.15625 398.503906 226.199219 398.503906 226.238281 398.503906 L 226.15625 393.4375 C 226.15625 393.4375 226.980469 383.273438 226.855469 377.765625 C 224.25 378.894531 221.691406 380.101562 219.078125 381.195312 Z M 276.019531 386.347656 L 268.765625 386.765625 L 253.953125 385.980469 L 253.753906 387.773438 L 259.425781 398.097656 C 259.425781 398.097656 260.613281 399.511719 261.875 400.960938 L 274.480469 395.792969 C 274.480469 395.792969 278.714844 393.1875 281.996094 391.101562 C 281.433594 390.339844 280.976562 389.757812 280.976562 389.757812 Z M 253.304688 205.222656 L 261.675781 213.550781 C 261.675781 213.550781 263.226562 217.234375 263.058594 218.953125 C 261.8125 218.660156 250.234375 216.949219 250.234375 216.949219 L 239.636719 215.085938 L 238.011719 208.726562 L 241.96875 202.636719 L 253.296875 205.234375 Z M 253.628906 213.65625 C 253.054688 209.882812 249.058594 206.160156 245.8125 206.265625 C 243.488281 206.339844 242.1875 208.695312 243.269531 211.226562 C 244.269531 213.550781 252.078125 215.085938 253.921875 213.730469 L 253.640625 213.65625 Z M 294.445312 298.046875 L 294.71875 291.957031 L 292.988281 289.019531 L 291.769531 287.652344 L 288.824219 284.660156 L 288.605469 284.222656 C 287.035156 284.941406 285.554688 288.976562 285.554688 288.976562 L 285.304688 295.441406 L 287.285156 301.820312 C 287.285156 301.820312 290.273438 302.570312 292.425781 303.957031 C 292.71875 301.820312 294.445312 298.058594 294.445312 298.058594 Z M 311.019531 283.117188 C 309.1875 283.515625 307.5 286.195312 307.5 286.195312 L 307.019531 291.449219 C 307.019531 291.449219 307.0625 295.835938 307.167969 297.777344 C 308.761719 297.496094 310.644531 295.972656 310.644531 295.972656 L 312.121094 292.542969 C 312.121094 292.542969 312.320312 287.664062 312.332031 285.316406 L 311.007812 283.117188 Z M 278.4375 191.234375 L 283.027344 196.039062 L 283.859375 207.371094 L 288.285156 216.148438 C 288.285156 216.148438 293.0625 221.882812 295.777344 223.65625 C 295.570312 227.386719 295.652344 233.476562 295.652344 233.476562 L 297.164062 245.121094 L 298.808594 250.800781 L 291.292969 252.824219 L 290.585938 253.167969 L 287.855469 245.796875 L 284.003906 235.082031 L 276.386719 226.867188 L 276.511719 213.230469 L 270.210938 202.542969 C 270.210938 202.542969 266.597656 200.207031 264.332031 199.613281 C 264.914062 195.339844 264.464844 189.054688 264.464844 189.054688 C 264.464844 189.054688 262.914062 183.996094 260.957031 178.859375 L 266.796875 177.628906 L 270.304688 178.234375 L 271.980469 182.058594 L 278.425781 191.222656 Z M 278.070312 198.414062 L 277.382812 195.789062 L 275.105469 193.503906 L 271.316406 192.941406 L 269.796875 195.183594 L 271.335938 198.789062 L 275.21875 200.332031 L 278 198.550781 L 278.070312 198.40625 Z M 283.035156 226.605469 L 284.464844 229.355469 L 288.417969 230.054688 L 291.269531 227.917969 L 290.957031 224.320312 L 291.03125 224.382812 L 290.957031 224.3125 C 290.957031 224.3125 287.679688 221.640625 287.679688 221.640625 L 283.464844 223.425781 L 283.046875 226.613281 Z M 178.457031 243.285156 L 176.917969 239.929688 L 176.90625 239.929688 C 176.90625 239.929688 176.886719 239.84375 176.886719 239.84375 L 173.472656 232.421875 L 171.585938 227.65625 L 170.121094 230.546875 L 167.246094 235.957031 L 165.382812 237.457031 L 161.6875 237.59375 L 154.671875 237.632812 L 153.777344 239.300781 L 153.058594 240.648438 C 153.015625 240.71875 152.984375 240.792969 152.964844 240.867188 L 152.746094 241.574219 C 152.746094 241.574219 152.734375 241.617188 152.722656 241.636719 L 152.527344 242.441406 L 152.402344 243.273438 L 152.320312 244.078125 C 152.320312 244.078125 152.308594 244.484375 152.308594 244.472656 C 152.308594 244.660156 152.308594 245.035156 152.308594 245.035156 L 152.328125 246.171875 C 152.328125 246.171875 152.390625 247.414062 152.351562 246.777344 C 152.371094 247.132812 152.421875 247.839844 152.421875 247.839844 L 152.421875 247.902344 C 152.421875 247.902344 153.347656 259.933594 153.347656 259.933594 C 153.347656 259.984375 153.359375 260.046875 153.371094 260.101562 L 156.410156 274.183594 C 156.441406 274.308594 156.441406 274.445312 156.429688 274.570312 L 155.515625 283.453125 L 154.773438 295.785156 C 154.773438 295.785156 154.773438 295.867188 154.765625 295.898438 L 152.371094 311.027344 L 150.019531 324.027344 L 149.582031 326.613281 C 149.582031 326.613281 149.582031 326.695312 149.582031 326.726562 C 149.988281 327.277344 150.570312 327.882812 151.402344 328.46875 L 155.316406 327.351562 L 160.324219 321.828125 L 164.488281 313.058594 L 170.378906 298.308594 L 171.242188 295.597656 L 174.316406 276.851562 L 180.53125 265.113281 L 185.160156 254.710938 L 186.183594 253.8125 L 178.488281 243.265625 Z M 106.046875 321.972656 L 105.316406 314.019531 C 105.316406 313.945312 105.316406 313.871094 105.316406 313.800781 L 105.535156 311.203125 L 105.578125 310.015625 C 105.578125 309.953125 105.578125 309.902344 105.578125 309.835938 L 105.316406 307.429688 C 105.316406 307.429688 105.308594 307.347656 105.296875 307.304688 L 102.351562 293.5 C 102.328125 293.40625 102.320312 293.3125 102.320312 293.210938 L 102.539062 285.089844 L 103.070312 277.792969 C 103.078125 277.644531 103.070312 277.488281 103.015625 277.34375 L 98.675781 263.101562 C 98.675781 263.101562 93.605469 277.007812 93.605469 277.007812 L 83.707031 298.640625 L 81.425781 308.816406 L 82.09375 311.734375 L 84.050781 314.683594 L 98.644531 322.253906 L 106.910156 324.472656 L 106.117188 322.242188 C 106.085938 322.148438 106.066406 322.046875 106.054688 321.953125 Z M 266.628906 315.644531 L 265.808594 321.066406 C 265.808594 321.066406 265.152344 325.265625 264.132812 329.019531 C 264.808594 328.945312 265.539062 328.875 266.277344 328.832031 L 267.214844 323.078125 C 267.214844 323.078125 268.003906 318.386719 268.035156 314.875 C 267.621094 315.019531 267.183594 315.164062 266.722656 315.3125 C 266.671875 315.519531 266.628906 315.644531 266.628906 315.644531 Z M 242.699219 343.8125 C 242.699219 343.738281 242.71875 343.644531 242.71875 343.636719 C 242.71875 343.582031 242.71875 343.519531 242.71875 343.46875 C 242.71875 343.425781 242.71875 343.417969 242.71875 343.40625 C 242.71875 343.355469 242.71875 343.300781 242.71875 343.300781 L 242.699219 343.113281 L 242.480469 342.28125 L 242.011719 341.269531 L 240.230469 339.300781 L 237.273438 338.757812 L 234.972656 340.539062 L 234.078125 342.132812 L 234.046875 343.050781 L 235.703125 345.117188 L 238.535156 345.960938 L 241.417969 345 L 242.449219 344.460938 C 242.449219 344.460938 242.574219 344.25 242.65625 344.050781 C 242.59375 344.21875 242.707031 343.761719 242.707031 343.824219 Z M 260.351562 353.488281 L 263.808594 343.65625 L 264.652344 338.609375 C 262.914062 338.234375 261.1875 337.851562 261.269531 337.796875 C 260.625 338.496094 258.355469 338.621094 257.875 338.640625 C 256.867188 342.351562 251.808594 346.449219 251.808594 346.449219 C 251.808594 346.449219 246.957031 347.710938 244.664062 346.816406 C 246.832031 348.765625 249.402344 352.476562 249.402344 352.476562 C 249.402344 352.476562 251.027344 356.78125 251.121094 359.617188 C 249.007812 357.867188 244.757812 355.636719 244.757812 355.636719 C 244.757812 355.636719 241.417969 352.839844 241.105469 349.953125 C 241.449219 352.746094 239.941406 357.4375 239.941406 357.4375 C 239.941406 357.4375 237.234375 361.691406 235.203125 363.609375 C 235.234375 361.191406 235.128906 356.363281 235.128906 356.363281 C 235.128906 356.363281 235.546875 353.089844 236.285156 351.539062 C 235.191406 352.539062 232.433594 354.71875 232.433594 354.71875 L 229.195312 358.273438 C 229.195312 358.273438 223.535156 359.667969 221.609375 359.878906 C 222.960938 357.96875 224.199219 355.75 224.855469 354.519531 C 225.1875 353.894531 225.625 353.351562 226.15625 352.882812 C 227.46875 351.734375 230.019531 349.441406 230.902344 348.085938 C 228.1875 348.160156 224.011719 347.691406 224.011719 347.691406 L 218.828125 345.3125 C 218.828125 345.3125 215.882812 342.457031 214.339844 340.164062 C 217.445312 339.339844 224.773438 342.613281 224.773438 342.613281 L 232.652344 343.175781 L 232.277344 342.488281 L 234.941406 338.171875 L 238.042969 336.496094 L 241.417969 338.027344 C 241.417969 338.027344 244.21875 340.707031 244.5 342.730469 C 246.246094 342.40625 247.988281 341.976562 249.664062 341.414062 C 251.796875 340.695312 253.835938 339.769531 255.710938 338.601562 L 245.414062 338.308594 L 232.496094 332.324219 L 221.949219 319.34375 L 221.742188 319.054688 L 213.714844 318.136719 L 208.023438 311.058594 L 200.390625 301.808594 L 195.230469 292.0625 L 190.628906 277.351562 C 190.628906 277.351562 189.691406 271.058594 189.324219 265.9375 C 189.222656 265.90625 188.472656 261.914062 188.640625 260.996094 C 188.015625 261.445312 187.378906 261.894531 186.785156 262.382812 C 186.535156 262.589844 186.296875 262.800781 186.089844 263.039062 C 186.128906 263.28125 186.171875 263.53125 186.203125 263.664062 C 186.566406 265.199219 186.953125 268.285156 186.953125 268.285156 L 188.035156 279.667969 L 188.828125 284.972656 L 190.347656 289.832031 L 192.4375 300.152344 L 196.820312 321.691406 L 199.039062 332.125 L 200.320312 341.601562 L 202.828125 350.578125 L 208.511719 357.167969 L 217.371094 362.328125 L 226.417969 366.050781 L 246.832031 364.921875 L 255.554688 360.417969 L 260.351562 353.539062 Z M 252.367188 329.980469 L 254.449219 327.894531 L 256.210938 324.265625 L 259.03125 317.6875 L 259.082031 317.53125 C 258.449219 317.699219 258.0625 317.800781 258.0625 317.800781 L 242.707031 321.410156 L 239.503906 321.042969 L 246.339844 328.007812 L 252.378906 329.988281 Z M 184.371094 247.476562 L 186.472656 249.988281 L 182.269531 237.695312 L 176.46875 228.785156 L 173.503906 220.160156 L 172.835938 216.523438 C 172.484375 217.171875 172.222656 217.554688 172.222656 217.554688 L 169.671875 215.660156 L 171.554688 221.308594 Z M 167.726562 207.589844 L 167.976562 209.195312 L 167.996094 209.332031 L 168.089844 209.800781 L 168.257812 210.5625 L 169.078125 213.78125 L 169.078125 207.128906 C 169.078125 207.128906 169.558594 205.765625 169.558594 205.765625 L 167.609375 204.546875 L 167.589844 204.753906 L 167.589844 204.691406 C 167.589844 204.691406 167.578125 205.066406 167.578125 205.066406 L 167.578125 205.839844 C 167.578125 205.839844 167.601562 206.277344 167.601562 206.222656 C 167.640625 206.753906 167.734375 207.589844 167.734375 207.589844 Z M 309.375 262.277344 C 309.363281 262.144531 309.34375 261.996094 309.332031 261.851562 L 309.207031 261.058594 C 309.125 260.621094 309.03125 260.183594 308.917969 259.757812 L 306.875 256.921875 L 298.195312 254.917969 L 280.152344 263.382812 L 270.410156 268.042969 L 261.050781 272.589844 L 263.621094 278.394531 L 264.507812 277.917969 L 276.167969 270.171875 L 287.042969 263.457031 L 299.347656 261.925781 L 304.261719 263.5625 L 307.582031 264.832031 L 309.382812 262.269531 Z M 253.003906 284.203125 L 257.636719 281.679688 C 256.636719 279.3125 255.886719 277.375 255.886719 277.375 L 255.449219 276.132812 L 254.792969 276.550781 L 245.5 278.417969 L 234.527344 278.707031 C 234.527344 278.707031 228.414062 276.925781 225.136719 275.96875 C 218.890625 274.144531 207.855469 267.816406 207.855469 267.816406 L 200.277344 261.570312 L 199.214844 260.558594 L 201.941406 265.6875 L 204.265625 269.878906 L 209.386719 274.269531 C 209.386719 274.269531 216.640625 278.34375 220.535156 279.792969 C 224.605469 281.316406 228.8125 282.453125 233.046875 283.390625 C 236.929688 284.253906 244.84375 285.527344 244.84375 285.527344 L 252.992188 284.191406 Z M 218.578125 184.601562 C 218.597656 184.457031 218.609375 184.308594 218.621094 184.152344 C 218.597656 184.351562 218.589844 184.5 218.578125 184.601562 Z M 218.847656 186.21875 C 218.839844 186.136719 218.847656 186.25 218.847656 186.25 L 219.003906 187.011719 C 219.003906 187.011719 222.136719 198.007812 223.9375 203.398438 C 225.53125 208.171875 227.386719 212.96875 228.394531 217.921875 C 229.03125 221.015625 229.457031 224.3125 230.089844 227.230469 C 230.738281 230.179688 231.871094 232.996094 233.226562 235.695312 C 235.929688 241.054688 243.90625 250.257812 243.90625 250.257812 L 250.808594 258.535156 L 255.605469 269.367188 L 259.417969 279.75 C 259.417969 279.75 262.582031 286.078125 264.746094 289.351562 C 265.078125 289.300781 265.402344 289.289062 265.726562 289.300781 L 256.136719 267.605469 L 251.183594 256.398438 L 250.722656 255.367188 L 250.683594 255.335938 L 247.738281 251.3125 L 238.292969 238.449219 L 236.210938 235.621094 L 235.160156 232.546875 L 226.636719 204.847656 C 225.769531 202.042969 225.136719 196.183594 225.136719 196.183594 L 224.03125 188.5 L 223.773438 186.71875 L 224.4375 183.964844 L 225.09375 183.601562 C 225.09375 183.601562 225.84375 183.207031 225.65625 183.402344 C 225.585938 183.808594 226.582031 182.695312 226.582031 182.695312 L 228.6875 181.640625 L 235.066406 180.972656 L 247.089844 177.324219 L 254.386719 175.117188 L 264.652344 174.96875 C 264.652344 174.96875 276.65625 175.742188 280.765625 177.605469 C 281.070312 176.917969 281.246094 174.363281 280.933594 173.65625 C 278.644531 173.15625 274.75 172.4375 274.75 172.4375 L 249.734375 172.832031 L 236.898438 176.492188 L 222.855469 182.289062 L 220.265625 183.746094 L 219.277344 184.433594 L 218.890625 184.75 L 218.722656 184.90625 L 218.652344 184.988281 L 218.765625 185.882812 C 218.765625 185.882812 218.808594 186.113281 218.828125 186.230469 Z M 303.472656 312.601562 L 303.472656 314.757812 C 303.472656 314.757812 302.359375 319.199219 302.359375 319.199219 L 297.226562 328.28125 L 289.59375 333.855469 L 276.664062 334.660156 L 272.136719 335.816406 L 260.601562 334.710938 L 258.3125 333.847656 L 247.308594 336.035156 L 238.148438 329.96875 L 231.269531 324.296875 L 224.65625 315.8125 L 213.363281 301.488281 L 200.734375 276.1875 L 189.636719 252.761719 L 186.933594 242.972656 L 180.738281 230.648438 L 175.625 218.816406 L 175.292969 218.015625 C 175.710938 218.328125 176.835938 218.296875 176.835938 218.296875 C 176.835938 218.296875 176.84375 218.265625 176.875 218.222656 L 185.234375 233.507812 L 190.316406 247.851562 L 197.175781 263.488281 L 204.441406 277.25 C 204.441406 277.25 204.898438 278.050781 204.628906 277.574219 C 204.785156 277.84375 205.078125 278.375 205.078125 278.375 L 206.199219 280.375 L 212.9375 292.199219 L 225.230469 311.945312 L 242.800781 329.980469 L 253.128906 333.722656 L 256.78125 332.261719 L 260.894531 318.875 L 263.714844 310.839844 L 265.539062 305.085938 L 265.734375 294.980469 L 265.734375 294.898438 C 266.089844 295.160156 266.371094 295.328125 266.371094 295.328125 L 268.640625 295.328125 C 268.640625 295.328125 269.296875 297.660156 269.296875 297.660156 L 268.597656 301.570312 L 269.160156 304.738281 L 275.65625 311.839844 L 281.921875 319.679688 L 284.765625 322.410156 L 289.71875 326.582031 L 294.863281 326.007812 L 298.601562 322.484375 C 298.601562 322.484375 302.492188 317.15625 303.292969 312.621094 C 303.355469 312.609375 303.410156 312.589844 303.460938 312.578125 Z M 288.449219 329.53125 L 287.753906 327.457031 L 278.226562 318.375 L 273.875 313.289062 L 268.347656 306.660156 L 267.003906 306.660156 L 265.101562 312.882812 L 264.164062 318.59375 L 261.414062 329.96875 L 261.21875 332.324219 L 262.082031 333.648438 L 275.363281 332.960938 L 287.035156 331.898438 L 287.742188 331.605469 L 288.441406 329.53125 Z M 174.742188 215.816406 L 174.054688 214.03125 C 174.011719 214.117188 173.980469 214.199219 173.941406 214.28125 L 174.023438 214.90625 L 175.03125 217.347656 C 174.90625 216.773438 174.742188 215.804688 174.742188 215.804688 Z M 142.042969 231.285156 L 143.324219 230.898438 L 147.863281 228.878906 L 150.484375 228.09375 L 150.425781 227.761719 L 149.082031 222.613281 L 148.34375 211.550781 L 148.851562 206.265625 L 148.832031 202.460938 L 139.984375 203.417969 L 140.117188 204.785156 L 142.316406 212.40625 L 143.1875 223.625 L 142.054688 230.847656 L 142.054688 231.304688 Z M 128.65625 391.351562 C 128.65625 391.351562 128.707031 391.351562 128.730469 391.339844 L 140.792969 388.621094 C 141.605469 382.824219 141.511719 376.035156 141.511719 376.035156 L 143.84375 348.234375 C 143.84375 348.234375 146.476562 338.246094 147.851562 332.125 L 146.550781 327.664062 C 146.53125 327.589844 146.519531 327.519531 146.507812 327.445312 L 145.769531 320.324219 C 145.761719 320.199219 145.769531 320.085938 145.792969 319.960938 L 148.675781 305.210938 C 148.675781 305.210938 148.675781 305.167969 148.683594 305.148438 L 152.464844 290.3125 C 152.484375 290.25 152.496094 290.175781 152.496094 290.113281 L 152.722656 287.351562 L 152.722656 287.214844 C 152.722656 287.214844 152.753906 286.609375 152.753906 286.609375 L 152.753906 285.507812 C 152.753906 285.507812 152.753906 285.128906 152.753906 285.128906 L 152.546875 283.441406 L 151.859375 277.257812 L 148.539062 253.84375 C 148.527344 253.75 148.519531 253.65625 148.539062 253.554688 L 149.683594 241.355469 C 149.695312 241.210938 149.738281 241.074219 149.800781 240.9375 L 153.265625 233.671875 C 153.496094 233.191406 154.015625 232.910156 154.546875 232.984375 C 154.640625 232.996094 154.734375 233.027344 154.828125 233.066406 C 154.867188 233.089844 154.910156 233.097656 154.953125 233.121094 L 163.882812 233.371094 L 167.414062 230.554688 L 168.203125 228.761719 L 165.019531 231.234375 L 163.332031 230.878906 L 159.179688 221.589844 L 158.574219 220.246094 L 154.898438 209.371094 L 152.910156 204.929688 L 151.828125 202.574219 L 150.953125 202.273438 C 150.953125 202.273438 150.890625 202.292969 150.808594 202.3125 L 150.859375 204.054688 L 151.246094 210.625 L 151.246094 220.539062 C 151.246094 220.539062 153.222656 228.585938 153.222656 228.585938 L 152.566406 231.441406 L 149.320312 232.691406 L 142.011719 235.632812 L 141.992188 237.082031 L 144.769531 258.390625 L 149.839844 269.179688 L 150.308594 274.664062 L 147.5625 299.328125 C 147.5625 299.328125 145.605469 305.011719 143.511719 308.503906 C 145.0625 296.964844 146.9375 289 146.9375 289 L 146.789062 270.921875 L 141.816406 252.207031 L 140.617188 236.175781 L 138.804688 236.582031 L 138.785156 245.714844 L 139.691406 261.933594 L 142.761719 285.558594 L 141.816406 293.617188 C 141.816406 293.617188 138.152344 301.414062 136.246094 304.34375 C 137.597656 297.785156 138.847656 283.234375 138.847656 283.234375 L 138.171875 272.046875 L 135.183594 248.058594 L 136.007812 237.195312 L 130.105469 238.542969 L 123.921875 238.90625 L 124.523438 235.527344 L 131.5625 234.351562 L 136.328125 232.921875 L 136.691406 228.148438 L 133.550781 210.789062 L 134.050781 203.992188 L 129.40625 204.523438 L 129.699219 203.285156 L 129.832031 201.28125 L 134.289062 200.78125 L 134.539062 197.425781 L 134.789062 189.054688 L 135.683594 187.1875 L 130.789062 186.625 L 131 183.402344 L 133.613281 183.464844 L 137.265625 183.882812 L 138.015625 182.308594 C 138.015625 182.308594 139.585938 182.265625 141.566406 182.601562 C 141.417969 182.976562 141.253906 183.582031 141.085938 184.320312 L 148.207031 185.132812 L 145.855469 176.554688 L 145.40625 166.410156 L 144.738281 158.4375 L 143.304688 151.898438 L 140.910156 144.757812 L 140.066406 136.054688 L 137.628906 128.371094 L 137.046875 119.601562 L 136.101562 111.636719 L 136.101562 107.507812 C 136.101562 107.507812 134.050781 115.089844 134.050781 115.089844 L 132.113281 118.945312 L 130.976562 121.21875 L 132.246094 123.179688 C 132.457031 123.617188 132.652344 124.03125 132.832031 124.429688 L 133.183594 125.230469 C 133.214844 125.292969 133.238281 125.347656 133.257812 125.410156 L 133.519531 126.203125 L 133.644531 126.660156 L 133.714844 126.992188 C 133.714844 126.992188 133.777344 127.265625 133.820312 127.402344 C 133.839844 127.347656 133.839844 127.347656 133.820312 127.402344 C 133.851562 127.535156 133.863281 127.609375 133.800781 127.464844 C 133.800781 127.464844 133.800781 127.472656 133.800781 127.484375 C 133.800781 127.546875 133.777344 127.578125 133.769531 127.578125 C 133.757812 127.609375 133.738281 127.683594 133.738281 127.683594 L 133.621094 128.035156 L 133.339844 129.027344 L 132.269531 134 L 129.511719 149.148438 L 128.117188 162.398438 L 128.550781 174.835938 L 127.648438 191.191406 L 126.980469 206.777344 L 123.140625 221.445312 C 123.140625 221.445312 121.171875 239.199219 119.953125 249.050781 C 116.550781 249.433594 110.460938 249.8125 110.460938 249.8125 L 89.410156 257.953125 L 82.132812 258.796875 L 69.402344 261.082031 C 69.402344 261.082031 62.59375 261.015625 59.804688 259.171875 C 59.824219 254.878906 61.386719 246.734375 61.386719 246.734375 L 61.804688 226.65625 L 65.675781 208.121094 L 66.226562 192.828125 L 69.851562 177.097656 L 71.277344 161.699219 L 71.765625 147.824219 L 76.167969 133.132812 L 83.3125 121.738281 L 96.136719 111.304688 L 104.285156 108.113281 L 103.765625 107.8125 L 100.726562 105.746094 L 100.519531 105.808594 L 93.074219 109.761719 L 85.871094 115.464844 L 78.875 123.980469 L 70.195312 142.984375 L 69.695312 152.171875 L 69.664062 152.828125 L 69.558594 153.441406 L 67.675781 164.992188 L 68.257812 174.667969 L 64.269531 191.953125 L 63.09375 207.003906 L 59.878906 225.386719 L 59.085938 241.886719 L 59.691406 247.171875 L 58.222656 252.011719 L 57.347656 259.933594 L 59.941406 262.632812 L 64.136719 264.070312 L 75.234375 263.613281 L 79.09375 262.78125 L 94.6875 259.402344 L 98.28125 257.566406 L 101.851562 255.742188 L 104.808594 269.640625 C 104.808594 269.640625 104.816406 269.722656 104.828125 269.765625 L 106.546875 285.996094 C 106.546875 286.070312 106.546875 286.132812 106.546875 286.203125 C 106.515625 286.714844 106.359375 289.101562 106.273438 290.363281 C 106.304688 289.914062 106.273438 290.761719 106.273438 290.761719 C 106.273438 290.761719 106.273438 291.199219 106.273438 291.5 C 106.273438 291.53125 106.296875 291.832031 106.296875 291.832031 L 106.398438 292.804688 C 106.398438 292.804688 106.410156 292.898438 106.421875 292.949219 L 107.886719 299.246094 L 109.398438 306.367188 C 109.410156 306.429688 109.417969 306.5 109.417969 306.574219 L 109.574219 310.589844 C 109.574219 310.589844 109.574219 310.683594 109.574219 310.734375 L 109.316406 314.007812 C 109.316406 314.089844 109.316406 314.183594 109.316406 314.269531 L 110.167969 320.429688 C 110.167969 320.480469 110.1875 320.542969 110.199219 320.597656 L 112.269531 327.84375 C 112.269531 327.84375 112.28125 327.894531 112.292969 327.925781 L 113.957031 335.640625 C 113.957031 335.640625 113.96875 335.722656 113.976562 335.765625 L 114.882812 343.949219 L 117.289062 360.398438 C 117.289062 360.398438 117.289062 360.453125 117.300781 360.472656 C 117.476562 361.316406 120.816406 377.328125 121.566406 388.390625 C 121.589844 388.652344 121.496094 388.890625 121.371094 389.109375 C 121.277344 389.285156 121.160156 389.628906 121.058594 389.996094 C 120.847656 390.703125 121.316406 391.445312 122.046875 391.550781 C 124.699219 391.914062 128.28125 391.351562 128.6875 391.289062 Z M 138.097656 206.683594 C 137.484375 209.382812 137.390625 214.929688 137.390625 214.929688 L 138.796875 230.328125 L 138.796875 232.253906 C 138.796875 232.253906 140.265625 231.816406 140.265625 231.816406 L 140.109375 229.792969 C 140.109375 229.792969 142.074219 211.550781 138.097656 206.671875 Z M 160.9375 216.597656 C 160.957031 216.648438 160.980469 216.699219 160.988281 216.761719 C 162.238281 220.328125 163.675781 224.144531 164.996094 226.835938 C 166.027344 226.1875 167.453125 224.851562 168.507812 224.238281 C 169.078125 223.90625 169.566406 223.695312 169.964844 223.582031 L 167.328125 216.910156 L 165.226562 205.535156 L 165.976562 203.542969 L 164.050781 202.335938 L 156.917969 201.574219 L 154.585938 201.824219 L 157.816406 207.003906 C 157.816406 207.003906 159.167969 211.53125 160.925781 216.597656 Z M 157.410156 379.289062 L 155.910156 366.457031 L 154.640625 356.417969 L 150.882812 340.257812 L 150.820312 340.089844 L 150.734375 339.882812 C 148.945312 350.152344 145.8125 360.992188 145.8125 360.992188 L 144.957031 377.558594 C 144.957031 377.558594 144.230469 382.644531 143.59375 387.972656 L 144.335938 387.804688 C 144.53125 387.765625 144.738281 387.765625 144.9375 387.828125 C 146.53125 388.285156 154.140625 390.527344 159.429688 392.277344 C 159.3125 391.390625 159.21875 390.757812 159.21875 390.757812 L 157.386719 379.289062 Z M 191.3125 200.261719 L 194.09375 198.8125 L 185.859375 188.761719 L 183.570312 190.742188 L 185.402344 191.734375 L 189.535156 198.90625 L 188.523438 201.585938 L 191.324219 200.269531 Z M 175.84375 212.21875 L 175.9375 213.980469 C 175.9375 213.980469 176.59375 214.667969 176.8125 214.773438 C 177.519531 213.511719 178.175781 212.886719 178.40625 211.09375 C 178.46875 211.175781 178.84375 209.777344 178.90625 209.871094 L 179.75 208.703125 L 180.84375 210.363281 C 180.84375 210.363281 180.863281 210.289062 180.875 210.257812 L 182.363281 212.832031 C 182.363281 212.832031 183.101562 213.1875 184.070312 213.46875 C 185.214844 211.539062 185.660156 207.671875 185.660156 207.671875 L 187.460938 202.074219 L 187.828125 201.90625 L 184.277344 202.503906 L 182.089844 204.703125 L 181.089844 205.652344 L 179.957031 205.878906 L 177.90625 205.714844 L 175.605469 205.128906 L 175.023438 206.671875 L 171.328125 206.777344 L 171.078125 207.589844 L 170.328125 211.832031 C 170.328125 211.832031 170.253906 212.988281 170.277344 213.363281 C 170.277344 213.300781 170.328125 213.867188 170.347656 214.011719 C 170.339844 213.929688 170.410156 214.261719 170.410156 214.261719 L 172.035156 214.960938 L 174.035156 209.652344 L 175.273438 209.488281 L 175.65625 211.457031 C 175.6875 211.363281 175.730469 211.289062 175.679688 211.550781 L 175.8125 212.238281 Z M 160.707031 198.09375 L 167.796875 200.792969 L 170.660156 203.230469 C 170.660156 203.230469 174.261719 203.660156 174.660156 203.542969 C 174.492188 203.917969 176.210938 201.886719 176.210938 201.886719 L 177.90625 202.472656 L 180.507812 202.542969 L 181.152344 202.273438 L 181.539062 201.585938 L 182.113281 200.707031 L 183.546875 199.5 C 183.546875 199.5 185.933594 200.167969 187.535156 200.0625 C 186.902344 198.59375 185.691406 196.101562 185.691406 196.101562 L 180.675781 191.679688 C 180.582031 191.640625 180.476562 191.585938 180.382812 191.546875 L 173.980469 190.191406 L 167.289062 189.660156 L 152.320312 189.179688 L 140.378906 187.792969 C 139.753906 191.265625 139.191406 195.089844 139.191406 195.089844 L 139.679688 200.230469 L 144.324219 199.707031 L 151.683594 198.976562 L 160.71875 198.0625 Z M 97.519531 73.703125 L 97.09375 71.324219 L 100.863281 63.714844 L 103.722656 55.445312 L 106.679688 51.953125 L 106.910156 50.808594 L 109.378906 42.4375 L 111.804688 36.828125 L 117.214844 31.34375 L 124.023438 28.28125 L 133.300781 27.652344 L 140.941406 30.425781 L 145.65625 35.546875 L 149.527344 42.125 L 153.714844 47.574219 L 155.484375 49.066406 L 158.003906 52.621094 L 159.0625 56.9375 L 158.898438 57.25 C 158.699219 56.917969 158.523438 56.5625 158.378906 56.1875 C 157.898438 56.300781 157.722656 56.875 157.960938 57.167969 C 158.085938 57.617188 158.128906 58.148438 158.117188 58.710938 L 157.054688 60.691406 L 155.597656 62.054688 L 153.808594 60.972656 L 153.441406 59.503906 L 149.894531 57.53125 L 147.5 57.40625 L 144.480469 58 L 139.566406 60.734375 L 139.898438 62.054688 L 142.367188 63.933594 L 145.53125 65.351562 L 151.527344 64.539062 L 151.671875 64.453125 L 151.695312 66.496094 L 147.3125 79.820312 L 138.285156 87.890625 L 128.855469 86.574219 L 128.1875 86.480469 C 128.1875 86.480469 128.042969 86.335938 127.792969 86.085938 C 125.835938 84.148438 117.027344 75.371094 114.175781 71.6875 C 114.09375 71.554688 113.96875 71.480469 113.824219 71.46875 C 112.300781 71.929688 110.03125 71.054688 108.972656 70.585938 L 107.566406 73.574219 L 106.953125 74.378906 L 102.046875 74.234375 C 101.519531 72.929688 100.925781 71.53125 100.570312 70.917969 L 102.089844 71.011719 C 102.089844 71.011719 104.902344 71.03125 106.585938 71.125 C 107.742188 67.71875 110.574219 62.503906 110.574219 62.503906 L 115.550781 57.019531 L 128.792969 52.109375 L 136.007812 51.058594 L 141.199219 51.664062 L 146.945312 52.851562 L 151.507812 54.707031 L 154.910156 59.429688 L 155.273438 59.855469 L 155.742188 58.824219 L 157.199219 56.542969 L 157.699219 56.3125 L 156.542969 54.101562 L 155.117188 52.203125 L 151.539062 49.285156 L 142.648438 47.691406 L 133.246094 46.128906 L 124.886719 47.992188 L 116.175781 50.097656 L 108.074219 53.433594 L 105.109375 56.800781 L 103.996094 60.367188 L 101.363281 66.851562 C 101.363281 66.851562 99.996094 68.875 99.09375 70.824219 C 99.101562 70.824219 99.113281 70.824219 99.125 70.824219 C 99.113281 70.84375 99.101562 70.867188 99.09375 70.886719 C 99.269531 71.605469 99.320312 72.699219 99.300781 73.890625 L 97.53125 73.648438 Z M 130.957031 65.988281 L 133.902344 62.621094 L 133.695312 61.191406 L 129.792969 59.898438 L 125.679688 60.054688 L 123.265625 60.804688 L 118.351562 64.328125 L 118.351562 64.808594 L 118.226562 65.851562 L 121.808594 67.695312 L 126.917969 68.125 L 130.9375 65.996094 Z M 141.785156 76.265625 L 140.742188 75.796875 L 140.210938 75.878906 L 139.335938 76.316406 L 137.628906 76.753906 L 135.726562 75.839844 L 133.707031 77.046875 L 131.726562 78.234375 L 130.988281 79.738281 C 130.988281 79.738281 132.351562 80.695312 134.121094 81.445312 C 135.601562 82.074219 137.410156 82.449219 138.429688 82.84375 C 138.515625 82.894531 140.253906 81.71875 141.042969 81.175781 C 142.335938 80.289062 144.179688 78.925781 144.179688 78.925781 L 144.0625 77.601562 L 142.65625 76.746094 L 141.785156 76.277344 Z M 138.183594 62.179688 L 138.058594 59.167969 L 137.472656 58.417969 L 136.371094 60.316406 L 137.472656 66.039062 C 137.472656 66.039062 138.859375 68.144531 139.816406 70.480469 C 138.753906 70.730469 136.722656 71.375 136.722656 71.375 C 136.722656 71.375 135.746094 71.417969 134.976562 71.179688 L 135.015625 68.570312 L 133.613281 69.511719 L 133.152344 70.875 L 133.613281 71.667969 L 134.515625 73.222656 L 137.265625 73.460938 L 141.417969 72.335938 L 141.824219 70.71875 L 139.890625 65.613281 L 138.203125 62.191406 Z M 148.269531 56.65625 L 148.019531 56.519531 L 147.96875 56.519531 C 147.96875 56.519531 148.269531 56.65625 148.269531 56.65625 Z M 108.917969 49.683594 L 118.640625 46.347656 L 123.617188 45.1875 L 128.175781 43.636719 L 132.488281 42.894531 L 137.546875 43.65625 L 142.625 44.5 L 147.851562 44.84375 L 149.070312 45.304688 L 148.914062 45.09375 L 145.675781 39.539062 L 140.003906 33.191406 L 124.867188 31.355469 L 119.027344 33.585938 L 112.886719 39.070312 L 110.59375 44.074219 Z M 165.675781 111.722656 L 170.867188 114.390625 L 172.222656 115.828125 L 172.128906 115.339844 L 179.757812 122.09375 L 188.054688 132.53125 L 201.402344 155.578125 L 206.824219 170.683594 L 214.582031 188.65625 L 215.414062 191.992188 C 215.414062 191.992188 215.332031 192.066406 215.332031 192.066406 L 213.820312 192.984375 L 210.625 195.027344 C 210.625 195.027344 208.34375 195.183594 207.199219 195.234375 C 205.078125 190.023438 199.351562 180.660156 199.351562 180.660156 L 193.3125 167.527344 L 187.640625 158.363281 L 182.070312 148.238281 L 178.0625 139.554688 L 177.25 138.160156 C 177.25 138.160156 176.773438 137.316406 177.0625 137.847656 C 177.0625 137.855469 177.0625 137.878906 177.050781 137.886719 C 177.019531 137.785156 176.980469 137.679688 176.925781 137.597656 L 176.53125 138.761719 L 176.074219 140.128906 L 182.652344 154.535156 L 190.492188 166.304688 L 196.863281 179.621094 L 205.359375 197.070312 L 206.230469 199.269531 L 206.992188 198.9375 L 210.144531 205.359375 L 212.445312 207.996094 C 212.445312 207.996094 213.238281 208.777344 213.644531 209.183594 C 213.613281 209.246094 213.550781 209.382812 213.550781 209.382812 L 212.863281 211.050781 L 211.613281 214.625 L 209.21875 222.269531 L 207.5625 226.8125 L 206.511719 229.367188 L 206.261719 229.941406 C 206.261719 229.941406 206.261719 229.949219 206.261719 229.960938 C 206.179688 229.847656 206.023438 229.617188 206.023438 229.617188 L 205.441406 228.628906 L 204.078125 226.074219 C 204.078125 226.074219 203.390625 224.78125 202.996094 224.164062 C 203.078125 223.832031 203.097656 223.152344 203.097656 223.152344 L 202.296875 220.902344 L 201.910156 219.328125 L 201.640625 207.601562 L 200.882812 202.503906 L 199.269531 199.53125 L 192.867188 188.542969 L 185.746094 180.316406 L 177.34375 170.957031 L 175.5 166.273438 L 172.085938 159.84375 L 167.246094 154.234375 L 160.855469 147.175781 L 155.546875 139.066406 L 153.371094 133.75 L 149.632812 130.609375 C 147.28125 127.484375 144.21875 123.625 141.667969 121.105469 C 142.347656 120.375 143.199219 119.40625 144.023438 118.464844 L 142.222656 116.277344 L 140.886719 114.660156 L 138.390625 110.84375 L 139.753906 116.683594 L 139.679688 123.929688 L 140.804688 128.097656 L 142.316406 136.398438 L 143.335938 144.363281 L 146.664062 153.203125 L 147.007812 159.632812 L 147.914062 168.695312 L 149.121094 176.917969 L 150.578125 185.488281 L 158.222656 186.363281 L 171.066406 186.636719 L 171.378906 186.6875 C 169.078125 178.816406 167.171875 171.820312 167.246094 169.121094 C 167.351562 165.265625 166.445312 164.085938 164.519531 161.074219 C 163.070312 158.800781 163.34375 156.203125 161.894531 154.066406 C 161.957031 154.222656 161.730469 154.035156 161.082031 152.492188 C 161.78125 152.503906 162.46875 152.546875 163.164062 152.597656 L 167.527344 159.976562 L 175.34375 170.964844 L 181.488281 179.578125 L 189.929688 188.21875 L 196.082031 198.007812 L 198.714844 202.660156 L 199.964844 205.234375 L 200.265625 210.539062 L 200.320312 217.378906 C 200.320312 217.378906 200.320312 217.441406 200.320312 217.546875 C 200.359375 218.265625 200.539062 221.070312 201.007812 222.476562 C 200.859375 222.539062 200.695312 222.652344 200.589844 222.726562 L 193.636719 215.847656 L 179.125 217.453125 L 180.445312 220.507812 L 181.820312 222.945312 L 184.289062 220.726562 L 190.605469 220.089844 L 199.277344 227.5625 L 199.902344 234.789062 L 189.898438 238.636719 L 193.15625 247.632812 L 198.195312 243.117188 L 204.046875 236.371094 L 205.035156 233.152344 L 205.160156 232.160156 L 205.441406 232.660156 L 206.503906 233.390625 L 207.253906 232.253906 L 207.398438 231.910156 L 208.335938 229.660156 L 211.386719 220.921875 L 213.621094 213.960938 L 215.101562 210.863281 L 214.933594 208.351562 L 214.839844 206.996094 L 209.273438 200.1875 L 208.542969 198.28125 L 209.429688 197.894531 L 213.28125 196.519531 L 216.171875 194.734375 L 216.695312 192.109375 L 216.839844 191.398438 L 216.296875 188.730469 L 214.863281 181.683594 L 211.050781 173.613281 L 202.410156 151.910156 L 195.21875 141.339844 L 189.960938 130.882812 L 181.601562 120.5625 L 171.921875 111.699219 L 171.859375 112.179688 L 166.882812 108.917969 L 162.738281 107.832031 L 162.78125 108.167969 L 161.28125 110.511719 L 165.664062 111.699219 Z M 133.746094 127.527344 C 133.746094 127.527344 133.746094 127.496094 133.757812 127.484375 C 133.746094 127.496094 133.746094 127.503906 133.738281 127.515625 C 133.738281 127.515625 133.738281 127.515625 133.738281 127.527344 C 133.738281 127.515625 133.738281 127.503906 133.738281 127.503906 C 133.738281 127.503906 133.738281 127.515625 133.738281 127.527344 Z M 133.769531 127.472656 C 133.769531 127.496094 133.757812 127.515625 133.746094 127.535156 C 133.757812 127.503906 133.757812 127.496094 133.769531 127.472656 Z M 133.738281 127.558594 C 133.738281 127.558594 133.738281 127.558594 133.738281 127.566406 C 133.738281 127.566406 133.738281 127.566406 133.738281 127.558594 C 133.738281 127.546875 133.738281 127.535156 133.738281 127.527344 C 133.683594 127.597656 133.683594 127.652344 133.707031 127.652344 C 133.714844 127.621094 133.726562 127.578125 133.738281 127.558594 Z M 70.171875 218.808594 L 70.246094 205.683594 L 72.808594 197.394531 L 74.859375 177.304688 L 77.054688 166.015625 L 77.742188 153.972656 L 77.242188 151.984375 L 76.367188 153.109375 L 74.847656 162.949219 L 71.660156 180.484375 L 70.464844 189.292969 L 69.171875 202 L 67.0625 220.089844 L 66.195312 226.53125 L 66.914062 229.160156 L 77.199219 233.765625 L 87.308594 234.640625 L 92.855469 232.347656 L 94.480469 228.042969 L 96.855469 191.671875 L 99.019531 176.273438 L 99.683594 157.964844 L 102.589844 141.160156 L 102.339844 138.953125 L 101.371094 139.535156 L 97.707031 154.277344 L 97.144531 171.46875 L 95.707031 187.65625 L 93.316406 208.246094 C 93.316406 208.246094 93.8125 220.734375 92.441406 228.1875 C 89.941406 226.59375 85.703125 224.519531 85.703125 224.519531 L 75.722656 224.570312 L 69.578125 225.386719 L 67.820312 225.769531 L 68.007812 224.40625 L 70.183594 218.808594 Z M 124.773438 140.964844 L 124.410156 134.46875 L 121.234375 130.703125 L 114.78125 132.851562 L 108.855469 129.808594 L 109.097656 122.199219 L 113.644531 118.289062 L 115.394531 119.84375 L 114.300781 121.53125 L 114.550781 123.605469 L 116.207031 118.738281 L 112.886719 116.003906 L 108.722656 119.71875 L 107.578125 127.328125 L 109.785156 134.199219 L 116.777344 133.980469 L 122.597656 133.738281 L 123.972656 139.222656 L 121.359375 145.4375 L 116.945312 145.875 L 116.945312 144.144531 C 116.945312 144.144531 117.363281 143.632812 117.363281 143.632812 L 118.058594 143.671875 L 119.453125 145.207031 L 119.933594 143.351562 C 119.933594 143.351562 118.578125 141.785156 117.769531 141.152344 C 117.683594 141.097656 117.601562 141.097656 117.519531 141.152344 C 115.800781 142.746094 116.519531 147.792969 116.519531 147.792969 L 122.804688 146.351562 L 124.761719 140.953125 Z M 111.40625 233.996094 L 117.113281 229.472656 L 119.902344 219.984375 L 118.882812 210.371094 L 113.976562 204.429688 L 109.667969 200.605469 L 112.6875 197.601562 L 116.164062 199.4375 L 115.75 200.136719 C 115.75 200.136719 115.445312 200.207031 115.144531 200.25 L 115.144531 200.125 L 114.882812 200.269531 C 114.800781 200.269531 114.726562 200.269531 114.664062 200.269531 C 114.664062 200.3125 114.675781 200.34375 114.6875 200.386719 L 114.332031 200.582031 L 114.664062 202.417969 L 116.496094 202.125 L 117.246094 199.25 L 112.207031 195.507812 L 107.816406 200.40625 L 113.738281 207.382812 L 117.464844 214.875 L 116.894531 223.144531 L 113.40625 231.015625 L 104.953125 230.296875 L 103.351562 221.757812 L 106.085938 218.921875 L 108.980469 222.777344 L 110.09375 220.921875 L 110.261719 219.453125 L 105.171875 217.148438 L 101.132812 222.277344 L 103.652344 231.296875 L 111.375 234.027344 Z M 116.257812 164.242188 L 118.964844 161.605469 L 120.402344 156.839844 L 119.058594 154.234375 L 114.101562 153.460938 L 113.957031 157.277344 L 115.933594 158.152344 L 115.351562 155.945312 L 118.277344 157.632812 L 114.175781 164.304688 L 114.59375 167.285156 L 118.558594 171.246094 L 116.832031 174.6875 L 114.28125 176.542969 L 113.59375 180.378906 L 117.925781 183.582031 L 118.214844 187.074219 L 115.964844 189.21875 L 113.03125 187.929688 L 114.632812 186.269531 L 116.207031 188.167969 L 116.457031 186.09375 L 114.613281 184.007812 L 110.375 187.574219 L 115.351562 191.359375 L 120.410156 186.988281 L 118.390625 181.640625 L 115.902344 179.265625 L 115.207031 178.597656 C 115.207031 178.597656 114.875 178.078125 114.882812 178.191406 C 114.820312 177.511719 116.839844 176.855469 116.839844 176.855469 L 120.121094 171.738281 L 118.964844 169.152344 L 116.300781 166.683594 L 115.300781 165.796875 L 115.613281 165.148438 L 116.269531 164.253906 Z M 166.589844 127.808594 L 167.882812 124.816406 L 165.402344 118.113281 L 160.824219 115.796875 L 161.699219 118.476562 L 159.71875 117.976562 L 158.917969 115.121094 L 162.332031 113.304688 L 166.539062 117.371094 L 168.785156 124.105469 L 166.734375 129.953125 L 160.53125 129.578125 L 160.136719 137.753906 L 163.425781 139.984375 L 163.269531 138.617188 L 164.425781 135.9375 L 166.695312 136.4375 L 167.101562 141.078125 L 162.21875 142.226562 L 159.0625 138.574219 L 157.347656 133.164062 L 158.347656 128.433594 L 163.414062 127.890625 Z M 163.519531 140.046875 L 164.53125 140.734375 L 166.394531 139.703125 C 166.394531 139.703125 165.394531 138.542969 164.769531 138.074219 C 164.445312 138.722656 164.09375 139.722656 164.09375 139.722656 L 163.519531 140.066406 Z M 173.566406 150.335938 C 173.566406 150.335938 174.398438 147.199219 173.804688 146.132812 C 173.292969 145.226562 170.722656 144.433594 170.722656 144.433594 L 169.847656 147.15625 L 170.578125 150.410156 L 175.042969 153.335938 L 176.554688 154.546875 C 176.554688 154.546875 176.6875 154.921875 176.742188 154.828125 C 176.699219 155.066406 176.53125 155.445312 176.53125 155.445312 L 176.09375 158.875 L 177.707031 162.4375 L 179.101562 163.410156 L 181.152344 163.503906 L 181.507812 166.996094 L 183.601562 172.613281 L 186.535156 174.425781 L 189.167969 170.925781 L 185.722656 167.996094 L 184.414062 169.871094 L 184.414062 170.445312 C 184.414062 170.445312 184.351562 170.820312 184.453125 170.496094 C 184.234375 171.183594 185.277344 171.582031 185.277344 171.582031 L 185.371094 170.238281 L 185.703125 169.726562 L 186.828125 171.925781 L 184.671875 171.96875 L 182.519531 167.066406 L 182.070312 161.960938 L 179.757812 161.269531 L 177.3125 159.21875 L 177.199219 156.964844 L 177.699219 154.746094 L 171.472656 149.105469 L 170.867188 146.800781 C 170.867188 146.800781 171.398438 146.195312 171.890625 146.425781 C 172.441406 146.675781 173.191406 147.769531 173.191406 147.769531 L 173.511719 148.542969 L 173.316406 148.269531 L 173.566406 150.347656 Z M 128.824219 121.542969 C 130.53125 118.996094 132.851562 113.273438 132.851562 113.273438 C 132.851562 113.273438 134.539062 108.363281 135.132812 105.621094 L 134.976562 105.332031 C 130.769531 103.859375 121.359375 99.785156 121.359375 99.785156 C 121.359375 99.785156 113.957031 96.84375 113.167969 96.488281 L 106.785156 99.960938 C 106.785156 99.960938 104.308594 101.660156 102.257812 103.339844 C 105.203125 104.933594 112.230469 107.851562 112.230469 107.851562 L 116.457031 111.210938 L 120.660156 113.078125 C 120.660156 113.078125 124.523438 116.296875 126.96875 120.039062 C 127.617188 120.550781 128.300781 121.09375 128.8125 121.53125 Z M 149.550781 103.015625 L 142.367188 104.445312 C 142.367188 104.445312 139.160156 105.769531 137.484375 106.082031 C 139.648438 108.5 143.054688 112.660156 143.054688 112.660156 L 143.398438 113.085938 C 143.398438 113.085938 146.1875 117.601562 148.238281 120.613281 C 150.578125 118.488281 154.160156 114.160156 154.160156 114.160156 C 154.816406 114.222656 156.585938 112.910156 156.585938 112.910156 C 156.585938 112.910156 159.386719 109.269531 160.59375 107.71875 C 158.554688 106.582031 155.992188 105.332031 155.992188 105.332031 L 149.539062 103.015625 Z M 149.550781 103.015625 " fill-opacity="1" fill-rule="nonzero"/></g></svg>