<svg xmlns="http://www.w3.org/2000/svg" xmlns:xlink="http://www.w3.org/1999/xlink" width="500" zoomAndPan="magnify" viewBox="0 0 375 374.999991" height="500" preserveAspectRatio="xMidYMid meet" version="1.0"><defs><g/><clipPath id="f940ffa5b8"><path d="M 95 171 L 110 171 L 110 180 L 95 180 Z M 95 171 " clip-rule="nonzero"/></clipPath><clipPath id="36776b7c91"><path d="M 36.675781 132.957031 L 115.625 123.597656 L 123.925781 193.605469 L 44.976562 202.964844 Z M 36.675781 132.957031 " clip-rule="nonzero"/></clipPath><clipPath id="5b55a5247b"><path d="M 36.675781 132.957031 L 115.625 123.597656 L 123.925781 193.605469 L 44.976562 202.964844 Z M 36.675781 132.957031 " clip-rule="nonzero"/></clipPath><clipPath id="baa46e2303"><path d="M 36.675781 132.957031 L 115.625 123.597656 L 123.925781 193.605469 L 44.976562 202.964844 Z M 36.675781 132.957031 " clip-rule="nonzero"/></clipPath><clipPath id="c68c524946"><path d="M 85 179 L 90 179 L 90 192 L 85 192 Z M 85 179 " clip-rule="nonzero"/></clipPath><clipPath id="19234f1746"><path d="M 36.675781 132.957031 L 115.625 123.597656 L 123.925781 193.605469 L 44.976562 202.964844 Z M 36.675781 132.957031 " clip-rule="nonzero"/></clipPath><clipPath id="95995d5951"><path d="M 36.675781 132.957031 L 115.625 123.597656 L 123.925781 193.605469 L 44.976562 202.964844 Z M 36.675781 132.957031 " clip-rule="nonzero"/></clipPath><clipPath id="8240918754"><path d="M 36.675781 132.957031 L 115.625 123.597656 L 123.925781 193.605469 L 44.976562 202.964844 Z M 36.675781 132.957031 " clip-rule="nonzero"/></clipPath><clipPath id="e7fcd28ea8"><path d="M 70 181 L 74 181 L 74 194 L 70 194 Z M 70 181 " clip-rule="nonzero"/></clipPath><clipPath id="0e0c88dd36"><path d="M 36.675781 132.957031 L 115.625 123.597656 L 123.925781 193.605469 L 44.976562 202.964844 Z M 36.675781 132.957031 " clip-rule="nonzero"/></clipPath><clipPath id="f002eca474"><path d="M 36.675781 132.957031 L 115.625 123.597656 L 123.925781 193.605469 L 44.976562 202.964844 Z M 36.675781 132.957031 " clip-rule="nonzero"/></clipPath><clipPath id="31a3afc92e"><path d="M 36.675781 132.957031 L 115.625 123.597656 L 123.925781 193.605469 L 44.976562 202.964844 Z M 36.675781 132.957031 " clip-rule="nonzero"/></clipPath><clipPath id="ab6376c5d5"><path d="M 51 173 L 66 173 L 66 182 L 51 182 Z M 51 173 " clip-rule="nonzero"/></clipPath><clipPath id="d0e0c2fbcf"><path d="M 36.675781 132.957031 L 115.625 123.597656 L 123.925781 193.605469 L 44.976562 202.964844 Z M 36.675781 132.957031 " clip-rule="nonzero"/></clipPath><clipPath id="18e8f6972d"><path d="M 36.675781 132.957031 L 115.625 123.597656 L 123.925781 193.605469 L 44.976562 202.964844 Z M 36.675781 132.957031 " clip-rule="nonzero"/></clipPath><clipPath id="bcffe7f3a9"><path d="M 36.675781 132.957031 L 115.625 123.597656 L 123.925781 193.605469 L 44.976562 202.964844 Z M 36.675781 132.957031 " clip-rule="nonzero"/></clipPath><clipPath id="c9fe624d08"><path d="M 49 158 L 63 158 L 63 163 L 49 163 Z M 49 158 " clip-rule="nonzero"/></clipPath><clipPath id="5b0931ac5a"><path d="M 36.675781 132.957031 L 115.625 123.597656 L 123.925781 193.605469 L 44.976562 202.964844 Z M 36.675781 132.957031 " clip-rule="nonzero"/></clipPath><clipPath id="99bd39d261"><path d="M 36.675781 132.957031 L 115.625 123.597656 L 123.925781 193.605469 L 44.976562 202.964844 Z M 36.675781 132.957031 " clip-rule="nonzero"/></clipPath><clipPath id="e9855cf63f"><path d="M 36.675781 132.957031 L 115.625 123.597656 L 123.925781 193.605469 L 44.976562 202.964844 Z M 36.675781 132.957031 " clip-rule="nonzero"/></clipPath><clipPath id="ded97b2b81"><path d="M 62 138 L 71 138 L 71 153 L 62 153 Z M 62 138 " clip-rule="nonzero"/></clipPath><clipPath id="5be7c88022"><path d="M 36.675781 132.957031 L 115.625 123.597656 L 123.925781 193.605469 L 44.976562 202.964844 Z M 36.675781 132.957031 " clip-rule="nonzero"/></clipPath><clipPath id="715408302b"><path d="M 36.675781 132.957031 L 115.625 123.597656 L 123.925781 193.605469 L 44.976562 202.964844 Z M 36.675781 132.957031 " clip-rule="nonzero"/></clipPath><clipPath id="c2b890ef1e"><path d="M 36.675781 132.957031 L 115.625 123.597656 L 123.925781 193.605469 L 44.976562 202.964844 Z M 36.675781 132.957031 " clip-rule="nonzero"/></clipPath><clipPath id="a15729eecd"><path d="M 82 135 L 89 135 L 89 150 L 82 150 Z M 82 135 " clip-rule="nonzero"/></clipPath><clipPath id="70af84fab5"><path d="M 36.675781 132.957031 L 115.625 123.597656 L 123.925781 193.605469 L 44.976562 202.964844 Z M 36.675781 132.957031 " clip-rule="nonzero"/></clipPath><clipPath id="9580825321"><path d="M 36.675781 132.957031 L 115.625 123.597656 L 123.925781 193.605469 L 44.976562 202.964844 Z M 36.675781 132.957031 " clip-rule="nonzero"/></clipPath><clipPath id="35d7cc046a"><path d="M 36.675781 132.957031 L 115.625 123.597656 L 123.925781 193.605469 L 44.976562 202.964844 Z M 36.675781 132.957031 " clip-rule="nonzero"/></clipPath><clipPath id="e28c9a51ec"><path d="M 96 155 L 109 155 L 109 160 L 96 160 Z M 96 155 " clip-rule="nonzero"/></clipPath><clipPath id="d4234c0909"><path d="M 36.675781 132.957031 L 115.625 123.597656 L 123.925781 193.605469 L 44.976562 202.964844 Z M 36.675781 132.957031 " clip-rule="nonzero"/></clipPath><clipPath id="5347ab7020"><path d="M 36.675781 132.957031 L 115.625 123.597656 L 123.925781 193.605469 L 44.976562 202.964844 Z M 36.675781 132.957031 " clip-rule="nonzero"/></clipPath><clipPath id="7af72185cd"><path d="M 36.675781 132.957031 L 115.625 123.597656 L 123.925781 193.605469 L 44.976562 202.964844 Z M 36.675781 132.957031 " clip-rule="nonzero"/></clipPath><clipPath id="32952fe089"><path d="M 60 174 L 72 174 L 72 196 L 60 196 Z M 60 174 " clip-rule="nonzero"/></clipPath><clipPath id="4982702e22"><path d="M 36.675781 132.957031 L 115.625 123.597656 L 123.925781 193.605469 L 44.976562 202.964844 Z M 36.675781 132.957031 " clip-rule="nonzero"/></clipPath><clipPath id="e1e9589acf"><path d="M 36.675781 132.957031 L 115.625 123.597656 L 123.925781 193.605469 L 44.976562 202.964844 Z M 36.675781 132.957031 " clip-rule="nonzero"/></clipPath><clipPath id="8959a5db8e"><path d="M 36.675781 132.957031 L 115.625 123.597656 L 123.925781 193.605469 L 44.976562 202.964844 Z M 36.675781 132.957031 " clip-rule="nonzero"/></clipPath><clipPath id="ede868bfe4"><path d="M 42 163 L 65 163 L 65 179 L 42 179 Z M 42 163 " clip-rule="nonzero"/></clipPath><clipPath id="ca29ea15b3"><path d="M 36.675781 132.957031 L 115.625 123.597656 L 123.925781 193.605469 L 44.976562 202.964844 Z M 36.675781 132.957031 " clip-rule="nonzero"/></clipPath><clipPath id="bb2f3a44eb"><path d="M 36.675781 132.957031 L 115.625 123.597656 L 123.925781 193.605469 L 44.976562 202.964844 Z M 36.675781 132.957031 " clip-rule="nonzero"/></clipPath><clipPath id="07dc7a0f37"><path d="M 36.675781 132.957031 L 115.625 123.597656 L 123.925781 193.605469 L 44.976562 202.964844 Z M 36.675781 132.957031 " clip-rule="nonzero"/></clipPath><clipPath id="bfb9b9d0bc"><path d="M 74 180 L 84 180 L 84 199 L 74 199 Z M 74 180 " clip-rule="nonzero"/></clipPath><clipPath id="b7ee01e2ca"><path d="M 36.675781 132.957031 L 115.625 123.597656 L 123.925781 193.605469 L 44.976562 202.964844 Z M 36.675781 132.957031 " clip-rule="nonzero"/></clipPath><clipPath id="774347518a"><path d="M 36.675781 132.957031 L 115.625 123.597656 L 123.925781 193.605469 L 44.976562 202.964844 Z M 36.675781 132.957031 " clip-rule="nonzero"/></clipPath><clipPath id="e6c9b26fac"><path d="M 36.675781 132.957031 L 115.625 123.597656 L 123.925781 193.605469 L 44.976562 202.964844 Z M 36.675781 132.957031 " clip-rule="nonzero"/></clipPath><clipPath id="b5f3d0ef2e"><path d="M 87 173 L 104 173 L 104 191 L 87 191 Z M 87 173 " clip-rule="nonzero"/></clipPath><clipPath id="9784e8e7bd"><path d="M 36.675781 132.957031 L 115.625 123.597656 L 123.925781 193.605469 L 44.976562 202.964844 Z M 36.675781 132.957031 " clip-rule="nonzero"/></clipPath><clipPath id="be5c4dcfb2"><path d="M 36.675781 132.957031 L 115.625 123.597656 L 123.925781 193.605469 L 44.976562 202.964844 Z M 36.675781 132.957031 " clip-rule="nonzero"/></clipPath><clipPath id="b100c978cc"><path d="M 36.675781 132.957031 L 115.625 123.597656 L 123.925781 193.605469 L 44.976562 202.964844 Z M 36.675781 132.957031 " clip-rule="nonzero"/></clipPath><clipPath id="80f454c337"><path d="M 96 160 L 121 160 L 121 171 L 96 171 Z M 96 160 " clip-rule="nonzero"/></clipPath><clipPath id="94425ae5a6"><path d="M 36.675781 132.957031 L 115.625 123.597656 L 123.925781 193.605469 L 44.976562 202.964844 Z M 36.675781 132.957031 " clip-rule="nonzero"/></clipPath><clipPath id="b541df5445"><path d="M 36.675781 132.957031 L 115.625 123.597656 L 123.925781 193.605469 L 44.976562 202.964844 Z M 36.675781 132.957031 " clip-rule="nonzero"/></clipPath><clipPath id="0ff79fa099"><path d="M 36.675781 132.957031 L 115.625 123.597656 L 123.925781 193.605469 L 44.976562 202.964844 Z M 36.675781 132.957031 " clip-rule="nonzero"/></clipPath><clipPath id="a558be3529"><path d="M 87 132 L 104 132 L 104 157 L 87 157 Z M 87 132 " clip-rule="nonzero"/></clipPath><clipPath id="1b1da52571"><path d="M 36.675781 132.957031 L 115.625 123.597656 L 123.925781 193.605469 L 44.976562 202.964844 Z M 36.675781 132.957031 " clip-rule="nonzero"/></clipPath><clipPath id="7c90017bc9"><path d="M 36.675781 132.957031 L 115.625 123.597656 L 123.925781 193.605469 L 44.976562 202.964844 Z M 36.675781 132.957031 " clip-rule="nonzero"/></clipPath><clipPath id="a0acf1a68e"><path d="M 36.675781 132.957031 L 115.625 123.597656 L 123.925781 193.605469 L 44.976562 202.964844 Z M 36.675781 132.957031 " clip-rule="nonzero"/></clipPath><clipPath id="5c67c49708"><path d="M 72 128 L 82 128 L 82 152 L 72 152 Z M 72 128 " clip-rule="nonzero"/></clipPath><clipPath id="9baa6bc1aa"><path d="M 36.675781 132.957031 L 115.625 123.597656 L 123.925781 193.605469 L 44.976562 202.964844 Z M 36.675781 132.957031 " clip-rule="nonzero"/></clipPath><clipPath id="3f6eca9c51"><path d="M 36.675781 132.957031 L 115.625 123.597656 L 123.925781 193.605469 L 44.976562 202.964844 Z M 36.675781 132.957031 " clip-rule="nonzero"/></clipPath><clipPath id="b10d842254"><path d="M 36.675781 132.957031 L 115.625 123.597656 L 123.925781 193.605469 L 44.976562 202.964844 Z M 36.675781 132.957031 " clip-rule="nonzero"/></clipPath><clipPath id="9920d49824"><path d="M 55 143 L 69 143 L 69 161 L 55 161 Z M 55 143 " clip-rule="nonzero"/></clipPath><clipPath id="168f9656ec"><path d="M 36.675781 132.957031 L 115.625 123.597656 L 123.925781 193.605469 L 44.976562 202.964844 Z M 36.675781 132.957031 " clip-rule="nonzero"/></clipPath><clipPath id="c659363e49"><path d="M 36.675781 132.957031 L 115.625 123.597656 L 123.925781 193.605469 L 44.976562 202.964844 Z M 36.675781 132.957031 " clip-rule="nonzero"/></clipPath><clipPath id="9b9074380a"><path d="M 36.675781 132.957031 L 115.625 123.597656 L 123.925781 193.605469 L 44.976562 202.964844 Z M 36.675781 132.957031 " clip-rule="nonzero"/></clipPath><clipPath id="062dcd7761"><path d="M 63 151 L 96 151 L 96 181 L 63 181 Z M 63 151 " clip-rule="nonzero"/></clipPath><clipPath id="7ca3e81839"><path d="M 36.675781 132.957031 L 115.625 123.597656 L 123.925781 193.605469 L 44.976562 202.964844 Z M 36.675781 132.957031 " clip-rule="nonzero"/></clipPath><clipPath id="c7941f676b"><path d="M 36.675781 132.957031 L 115.625 123.597656 L 123.925781 193.605469 L 44.976562 202.964844 Z M 36.675781 132.957031 " clip-rule="nonzero"/></clipPath><clipPath id="6ec34bf734"><path d="M 36.675781 132.957031 L 115.625 123.597656 L 123.925781 193.605469 L 44.976562 202.964844 Z M 36.675781 132.957031 " clip-rule="nonzero"/></clipPath><clipPath id="4b14dc3329"><path d="M 66 153 L 93 153 L 93 178 L 66 178 Z M 66 153 " clip-rule="nonzero"/></clipPath><clipPath id="cd7d85ff52"><path d="M 36.675781 132.957031 L 115.625 123.597656 L 123.925781 193.605469 L 44.976562 202.964844 Z M 36.675781 132.957031 " clip-rule="nonzero"/></clipPath><clipPath id="b7498115ca"><path d="M 36.675781 132.957031 L 115.625 123.597656 L 123.925781 193.605469 L 44.976562 202.964844 Z M 36.675781 132.957031 " clip-rule="nonzero"/></clipPath><clipPath id="3e24884b78"><path d="M 36.675781 132.957031 L 115.625 123.597656 L 123.925781 193.605469 L 44.976562 202.964844 Z M 36.675781 132.957031 " clip-rule="nonzero"/></clipPath><clipPath id="1ae3b14b43"><path d="M 70 156 L 90 156 L 90 175 L 70 175 Z M 70 156 " clip-rule="nonzero"/></clipPath><clipPath id="1b008b52f0"><path d="M 36.675781 132.957031 L 115.625 123.597656 L 123.925781 193.605469 L 44.976562 202.964844 Z M 36.675781 132.957031 " clip-rule="nonzero"/></clipPath><clipPath id="25fc6b8352"><path d="M 36.675781 132.957031 L 115.625 123.597656 L 123.925781 193.605469 L 44.976562 202.964844 Z M 36.675781 132.957031 " clip-rule="nonzero"/></clipPath><clipPath id="8bd04c24ab"><path d="M 36.675781 132.957031 L 115.625 123.597656 L 123.925781 193.605469 L 44.976562 202.964844 Z M 36.675781 132.957031 " clip-rule="nonzero"/></clipPath><clipPath id="358d202555"><path d="M 72 158 L 88 158 L 88 173 L 72 173 Z M 72 158 " clip-rule="nonzero"/></clipPath><clipPath id="74dd8399c3"><path d="M 36.675781 132.957031 L 115.625 123.597656 L 123.925781 193.605469 L 44.976562 202.964844 Z M 36.675781 132.957031 " clip-rule="nonzero"/></clipPath><clipPath id="031a08dba3"><path d="M 36.675781 132.957031 L 115.625 123.597656 L 123.925781 193.605469 L 44.976562 202.964844 Z M 36.675781 132.957031 " clip-rule="nonzero"/></clipPath><clipPath id="2762bdf7d0"><path d="M 36.675781 132.957031 L 115.625 123.597656 L 123.925781 193.605469 L 44.976562 202.964844 Z M 36.675781 132.957031 " clip-rule="nonzero"/></clipPath><clipPath id="72615f7865"><path d="M 131 0.078125 L 168 0.078125 L 168 74 L 131 74 Z M 131 0.078125 " clip-rule="nonzero"/></clipPath><clipPath id="c394dc0869"><rect x="0" width="265" y="0" height="157"/></clipPath><clipPath id="300c152ceb"><path d="M 215.566406 112 L 274.066406 112 L 274.066406 141.527344 L 215.566406 141.527344 Z M 215.566406 112 " clip-rule="nonzero"/></clipPath><clipPath id="5caf067ea4"><path d="M 226 104.027344 L 264 104.027344 L 264 122 L 226 122 Z M 226 104.027344 " clip-rule="nonzero"/></clipPath><clipPath id="1ed75f2acd"><path d="M 291 190 L 352 190 L 352 262 L 291 262 Z M 291 190 " clip-rule="nonzero"/></clipPath><clipPath id="e13bfa9c49"><path d="M 295.691406 188.851562 L 356.253906 193.617188 L 350.664062 264.648438 L 290.101562 259.882812 Z M 295.691406 188.851562 " clip-rule="nonzero"/></clipPath><clipPath id="eb9c09b01f"><path d="M 295.691406 188.851562 L 356.253906 193.617188 L 350.664062 264.648438 L 290.101562 259.882812 Z M 295.691406 188.851562 " clip-rule="nonzero"/></clipPath><clipPath id="6f99801a71"><path d="M 295.691406 188.851562 L 356.253906 193.617188 L 350.664062 264.648438 L 290.101562 259.882812 Z M 295.691406 188.851562 " clip-rule="nonzero"/></clipPath><clipPath id="0ad3a810eb"><path d="M 308 206 L 342 206 L 342 244 L 308 244 Z M 308 206 " clip-rule="nonzero"/></clipPath><clipPath id="fc087d710f"><path d="M 295.691406 188.851562 L 356.253906 193.617188 L 350.664062 264.648438 L 290.101562 259.882812 Z M 295.691406 188.851562 " clip-rule="nonzero"/></clipPath><clipPath id="2699e2f78e"><path d="M 295.691406 188.851562 L 356.253906 193.617188 L 350.664062 264.648438 L 290.101562 259.882812 Z M 295.691406 188.851562 " clip-rule="nonzero"/></clipPath><clipPath id="72c80e5a7e"><path d="M 295.691406 188.851562 L 356.253906 193.617188 L 350.664062 264.648438 L 290.101562 259.882812 Z M 295.691406 188.851562 " clip-rule="nonzero"/></clipPath><clipPath id="0bb412c308"><path d="M 313 252 L 322 252 L 322 260 L 313 260 Z M 313 252 " clip-rule="nonzero"/></clipPath><clipPath id="1cb81f442d"><path d="M 295.691406 188.851562 L 356.253906 193.617188 L 350.664062 264.648438 L 290.101562 259.882812 Z M 295.691406 188.851562 " clip-rule="nonzero"/></clipPath><clipPath id="9f755305e4"><path d="M 295.691406 188.851562 L 356.253906 193.617188 L 350.664062 264.648438 L 290.101562 259.882812 Z M 295.691406 188.851562 " clip-rule="nonzero"/></clipPath><clipPath id="192905ba07"><path d="M 295.691406 188.851562 L 356.253906 193.617188 L 350.664062 264.648438 L 290.101562 259.882812 Z M 295.691406 188.851562 " clip-rule="nonzero"/></clipPath><clipPath id="962ff3708a"><path d="M 293 246 L 301 246 L 301 254 L 293 254 Z M 293 246 " clip-rule="nonzero"/></clipPath><clipPath id="a9c95bfbef"><path d="M 295.691406 188.851562 L 356.253906 193.617188 L 350.664062 264.648438 L 290.101562 259.882812 Z M 295.691406 188.851562 " clip-rule="nonzero"/></clipPath><clipPath id="b3177df3bb"><path d="M 295.691406 188.851562 L 356.253906 193.617188 L 350.664062 264.648438 L 290.101562 259.882812 Z M 295.691406 188.851562 " clip-rule="nonzero"/></clipPath><clipPath id="cff0df7945"><path d="M 295.691406 188.851562 L 356.253906 193.617188 L 350.664062 264.648438 L 290.101562 259.882812 Z M 295.691406 188.851562 " clip-rule="nonzero"/></clipPath><clipPath id="d7cbf83ab5"><path d="M 341 250 L 349 250 L 349 258 L 341 258 Z M 341 250 " clip-rule="nonzero"/></clipPath><clipPath id="768464a5a2"><path d="M 295.691406 188.851562 L 356.253906 193.617188 L 350.664062 264.648438 L 290.101562 259.882812 Z M 295.691406 188.851562 " clip-rule="nonzero"/></clipPath><clipPath id="255158c1c3"><path d="M 295.691406 188.851562 L 356.253906 193.617188 L 350.664062 264.648438 L 290.101562 259.882812 Z M 295.691406 188.851562 " clip-rule="nonzero"/></clipPath><clipPath id="2114213ba2"><path d="M 295.691406 188.851562 L 356.253906 193.617188 L 350.664062 264.648438 L 290.101562 259.882812 Z M 295.691406 188.851562 " clip-rule="nonzero"/></clipPath><clipPath id="67a908bcc7"><path d="M 302 243 L 317 243 L 317 251 L 302 251 Z M 302 243 " clip-rule="nonzero"/></clipPath><clipPath id="eac0d8a8f5"><path d="M 295.691406 188.851562 L 356.253906 193.617188 L 350.664062 264.648438 L 290.101562 259.882812 Z M 295.691406 188.851562 " clip-rule="nonzero"/></clipPath><clipPath id="df57c8c427"><path d="M 295.691406 188.851562 L 356.253906 193.617188 L 350.664062 264.648438 L 290.101562 259.882812 Z M 295.691406 188.851562 " clip-rule="nonzero"/></clipPath><clipPath id="882fe9658d"><path d="M 295.691406 188.851562 L 356.253906 193.617188 L 350.664062 264.648438 L 290.101562 259.882812 Z M 295.691406 188.851562 " clip-rule="nonzero"/></clipPath><clipPath id="7829676a27"><path d="M 330 246 L 340 246 L 340 254 L 330 254 Z M 330 246 " clip-rule="nonzero"/></clipPath><clipPath id="f21ff87412"><path d="M 295.691406 188.851562 L 356.253906 193.617188 L 350.664062 264.648438 L 290.101562 259.882812 Z M 295.691406 188.851562 " clip-rule="nonzero"/></clipPath><clipPath id="30f21d96f4"><path d="M 295.691406 188.851562 L 356.253906 193.617188 L 350.664062 264.648438 L 290.101562 259.882812 Z M 295.691406 188.851562 " clip-rule="nonzero"/></clipPath><clipPath id="1efb7b6e2a"><path d="M 295.691406 188.851562 L 356.253906 193.617188 L 350.664062 264.648438 L 290.101562 259.882812 Z M 295.691406 188.851562 " clip-rule="nonzero"/></clipPath><clipPath id="8542c83595"><path d="M 302 243 L 313 243 L 313 248 L 302 248 Z M 302 243 " clip-rule="nonzero"/></clipPath><clipPath id="0d9e839cae"><path d="M 295.691406 188.851562 L 356.253906 193.617188 L 350.664062 264.648438 L 290.101562 259.882812 Z M 295.691406 188.851562 " clip-rule="nonzero"/></clipPath><clipPath id="58e9009002"><path d="M 295.691406 188.851562 L 356.253906 193.617188 L 350.664062 264.648438 L 290.101562 259.882812 Z M 295.691406 188.851562 " clip-rule="nonzero"/></clipPath><clipPath id="5319bb6838"><path d="M 295.691406 188.851562 L 356.253906 193.617188 L 350.664062 264.648438 L 290.101562 259.882812 Z M 295.691406 188.851562 " clip-rule="nonzero"/></clipPath><clipPath id="23295c66e0"><path d="M 332 245 L 341 245 L 341 251 L 332 251 Z M 332 245 " clip-rule="nonzero"/></clipPath><clipPath id="8fcfb33c62"><path d="M 295.691406 188.851562 L 356.253906 193.617188 L 350.664062 264.648438 L 290.101562 259.882812 Z M 295.691406 188.851562 " clip-rule="nonzero"/></clipPath><clipPath id="e6e373d8bb"><path d="M 295.691406 188.851562 L 356.253906 193.617188 L 350.664062 264.648438 L 290.101562 259.882812 Z M 295.691406 188.851562 " clip-rule="nonzero"/></clipPath><clipPath id="e5d6f77de7"><path d="M 295.691406 188.851562 L 356.253906 193.617188 L 350.664062 264.648438 L 290.101562 259.882812 Z M 295.691406 188.851562 " clip-rule="nonzero"/></clipPath><clipPath id="a606f17eea"><path d="M 300 241 L 309 241 L 309 246 L 300 246 Z M 300 241 " clip-rule="nonzero"/></clipPath><clipPath id="d5000155f2"><path d="M 295.691406 188.851562 L 356.253906 193.617188 L 350.664062 264.648438 L 290.101562 259.882812 Z M 295.691406 188.851562 " clip-rule="nonzero"/></clipPath><clipPath id="28fde0991a"><path d="M 295.691406 188.851562 L 356.253906 193.617188 L 350.664062 264.648438 L 290.101562 259.882812 Z M 295.691406 188.851562 " clip-rule="nonzero"/></clipPath><clipPath id="5f392b9ed6"><path d="M 295.691406 188.851562 L 356.253906 193.617188 L 350.664062 264.648438 L 290.101562 259.882812 Z M 295.691406 188.851562 " clip-rule="nonzero"/></clipPath><clipPath id="922f2efa30"><path d="M 336 244 L 343 244 L 343 249 L 336 249 Z M 336 244 " clip-rule="nonzero"/></clipPath><clipPath id="6f4ce035f3"><path d="M 295.691406 188.851562 L 356.253906 193.617188 L 350.664062 264.648438 L 290.101562 259.882812 Z M 295.691406 188.851562 " clip-rule="nonzero"/></clipPath><clipPath id="844f643a25"><path d="M 295.691406 188.851562 L 356.253906 193.617188 L 350.664062 264.648438 L 290.101562 259.882812 Z M 295.691406 188.851562 " clip-rule="nonzero"/></clipPath><clipPath id="ea99211b19"><path d="M 295.691406 188.851562 L 356.253906 193.617188 L 350.664062 264.648438 L 290.101562 259.882812 Z M 295.691406 188.851562 " clip-rule="nonzero"/></clipPath><clipPath id="74e6e7d41e"><path d="M 343 253 L 346 253 L 346 258 L 343 258 Z M 343 253 " clip-rule="nonzero"/></clipPath><clipPath id="3ef816541b"><path d="M 295.691406 188.851562 L 356.253906 193.617188 L 350.664062 264.648438 L 290.101562 259.882812 Z M 295.691406 188.851562 " clip-rule="nonzero"/></clipPath><clipPath id="5ec3382fad"><path d="M 295.691406 188.851562 L 356.253906 193.617188 L 350.664062 264.648438 L 290.101562 259.882812 Z M 295.691406 188.851562 " clip-rule="nonzero"/></clipPath><clipPath id="2f7b00baa5"><path d="M 295.691406 188.851562 L 356.253906 193.617188 L 350.664062 264.648438 L 290.101562 259.882812 Z M 295.691406 188.851562 " clip-rule="nonzero"/></clipPath><clipPath id="83a1971b63"><path d="M 323 247 L 326 247 L 326 254 L 323 254 Z M 323 247 " clip-rule="nonzero"/></clipPath><clipPath id="fd16f8d81b"><path d="M 295.691406 188.851562 L 356.253906 193.617188 L 350.664062 264.648438 L 290.101562 259.882812 Z M 295.691406 188.851562 " clip-rule="nonzero"/></clipPath><clipPath id="fd909339f4"><path d="M 295.691406 188.851562 L 356.253906 193.617188 L 350.664062 264.648438 L 290.101562 259.882812 Z M 295.691406 188.851562 " clip-rule="nonzero"/></clipPath><clipPath id="5b26b6d241"><path d="M 295.691406 188.851562 L 356.253906 193.617188 L 350.664062 264.648438 L 290.101562 259.882812 Z M 295.691406 188.851562 " clip-rule="nonzero"/></clipPath><clipPath id="4a19fec201"><path d="M 320 247 L 323 247 L 323 252 L 320 252 Z M 320 247 " clip-rule="nonzero"/></clipPath><clipPath id="2bb6dc7182"><path d="M 295.691406 188.851562 L 356.253906 193.617188 L 350.664062 264.648438 L 290.101562 259.882812 Z M 295.691406 188.851562 " clip-rule="nonzero"/></clipPath><clipPath id="e2784fcb2c"><path d="M 295.691406 188.851562 L 356.253906 193.617188 L 350.664062 264.648438 L 290.101562 259.882812 Z M 295.691406 188.851562 " clip-rule="nonzero"/></clipPath><clipPath id="dd703a8c34"><path d="M 295.691406 188.851562 L 356.253906 193.617188 L 350.664062 264.648438 L 290.101562 259.882812 Z M 295.691406 188.851562 " clip-rule="nonzero"/></clipPath><clipPath id="68fcac696d"><path d="M 317 246 L 320 246 L 320 250 L 317 250 Z M 317 246 " clip-rule="nonzero"/></clipPath><clipPath id="ac4a25cf74"><path d="M 295.691406 188.851562 L 356.253906 193.617188 L 350.664062 264.648438 L 290.101562 259.882812 Z M 295.691406 188.851562 " clip-rule="nonzero"/></clipPath><clipPath id="53552d9da4"><path d="M 295.691406 188.851562 L 356.253906 193.617188 L 350.664062 264.648438 L 290.101562 259.882812 Z M 295.691406 188.851562 " clip-rule="nonzero"/></clipPath><clipPath id="5eb64bc75f"><path d="M 295.691406 188.851562 L 356.253906 193.617188 L 350.664062 264.648438 L 290.101562 259.882812 Z M 295.691406 188.851562 " clip-rule="nonzero"/></clipPath><clipPath id="eafd92cf9c"><path d="M 296 250 L 299 250 L 299 254 L 296 254 Z M 296 250 " clip-rule="nonzero"/></clipPath><clipPath id="cfadfabdff"><path d="M 295.691406 188.851562 L 356.253906 193.617188 L 350.664062 264.648438 L 290.101562 259.882812 Z M 295.691406 188.851562 " clip-rule="nonzero"/></clipPath><clipPath id="9a95b6c7d8"><path d="M 295.691406 188.851562 L 356.253906 193.617188 L 350.664062 264.648438 L 290.101562 259.882812 Z M 295.691406 188.851562 " clip-rule="nonzero"/></clipPath><clipPath id="c99134b9be"><path d="M 295.691406 188.851562 L 356.253906 193.617188 L 350.664062 264.648438 L 290.101562 259.882812 Z M 295.691406 188.851562 " clip-rule="nonzero"/></clipPath><clipPath id="5a61d1843b"><path d="M 306 235 L 310 235 L 310 239 L 306 239 Z M 306 235 " clip-rule="nonzero"/></clipPath><clipPath id="a3b5b825bc"><path d="M 295.691406 188.851562 L 356.253906 193.617188 L 350.664062 264.648438 L 290.101562 259.882812 Z M 295.691406 188.851562 " clip-rule="nonzero"/></clipPath><clipPath id="da7938fe35"><path d="M 295.691406 188.851562 L 356.253906 193.617188 L 350.664062 264.648438 L 290.101562 259.882812 Z M 295.691406 188.851562 " clip-rule="nonzero"/></clipPath><clipPath id="6a591a2cc3"><path d="M 295.691406 188.851562 L 356.253906 193.617188 L 350.664062 264.648438 L 290.101562 259.882812 Z M 295.691406 188.851562 " clip-rule="nonzero"/></clipPath><clipPath id="5f5c9209cf"><path d="M 323 235 L 326 235 L 326 241 L 323 241 Z M 323 235 " clip-rule="nonzero"/></clipPath><clipPath id="116b91892a"><path d="M 295.691406 188.851562 L 356.253906 193.617188 L 350.664062 264.648438 L 290.101562 259.882812 Z M 295.691406 188.851562 " clip-rule="nonzero"/></clipPath><clipPath id="fb2c5f3bb4"><path d="M 295.691406 188.851562 L 356.253906 193.617188 L 350.664062 264.648438 L 290.101562 259.882812 Z M 295.691406 188.851562 " clip-rule="nonzero"/></clipPath><clipPath id="bf2e7238a8"><path d="M 295.691406 188.851562 L 356.253906 193.617188 L 350.664062 264.648438 L 290.101562 259.882812 Z M 295.691406 188.851562 " clip-rule="nonzero"/></clipPath><clipPath id="704f104a63"><path d="M 300 227 L 304 227 L 304 232 L 300 232 Z M 300 227 " clip-rule="nonzero"/></clipPath><clipPath id="a3d026fc64"><path d="M 295.691406 188.851562 L 356.253906 193.617188 L 350.664062 264.648438 L 290.101562 259.882812 Z M 295.691406 188.851562 " clip-rule="nonzero"/></clipPath><clipPath id="e1c1d07e24"><path d="M 295.691406 188.851562 L 356.253906 193.617188 L 350.664062 264.648438 L 290.101562 259.882812 Z M 295.691406 188.851562 " clip-rule="nonzero"/></clipPath><clipPath id="5f44613c96"><path d="M 295.691406 188.851562 L 356.253906 193.617188 L 350.664062 264.648438 L 290.101562 259.882812 Z M 295.691406 188.851562 " clip-rule="nonzero"/></clipPath><clipPath id="587a15dcaa"><path d="M 320 202 L 321 202 L 321 208 L 320 208 Z M 320 202 " clip-rule="nonzero"/></clipPath><clipPath id="6e3688542d"><path d="M 295.691406 188.851562 L 356.253906 193.617188 L 350.664062 264.648438 L 290.101562 259.882812 Z M 295.691406 188.851562 " clip-rule="nonzero"/></clipPath><clipPath id="efce5cac4b"><path d="M 295.691406 188.851562 L 356.253906 193.617188 L 350.664062 264.648438 L 290.101562 259.882812 Z M 295.691406 188.851562 " clip-rule="nonzero"/></clipPath><clipPath id="28110a4464"><path d="M 295.691406 188.851562 L 356.253906 193.617188 L 350.664062 264.648438 L 290.101562 259.882812 Z M 295.691406 188.851562 " clip-rule="nonzero"/></clipPath><clipPath id="bb9fcd01b1"><path d="M 322 197 L 324 197 L 324 201 L 322 201 Z M 322 197 " clip-rule="nonzero"/></clipPath><clipPath id="fc5f708fb9"><path d="M 295.691406 188.851562 L 356.253906 193.617188 L 350.664062 264.648438 L 290.101562 259.882812 Z M 295.691406 188.851562 " clip-rule="nonzero"/></clipPath><clipPath id="a137821929"><path d="M 295.691406 188.851562 L 356.253906 193.617188 L 350.664062 264.648438 L 290.101562 259.882812 Z M 295.691406 188.851562 " clip-rule="nonzero"/></clipPath><clipPath id="5c5fabc15d"><path d="M 295.691406 188.851562 L 356.253906 193.617188 L 350.664062 264.648438 L 290.101562 259.882812 Z M 295.691406 188.851562 " clip-rule="nonzero"/></clipPath><clipPath id="3770171bd2"><path d="M 319 218 L 322 218 L 322 225 L 319 225 Z M 319 218 " clip-rule="nonzero"/></clipPath><clipPath id="7ce4664da0"><path d="M 295.691406 188.851562 L 356.253906 193.617188 L 350.664062 264.648438 L 290.101562 259.882812 Z M 295.691406 188.851562 " clip-rule="nonzero"/></clipPath><clipPath id="83cfba4c01"><path d="M 295.691406 188.851562 L 356.253906 193.617188 L 350.664062 264.648438 L 290.101562 259.882812 Z M 295.691406 188.851562 " clip-rule="nonzero"/></clipPath><clipPath id="3415b47626"><path d="M 295.691406 188.851562 L 356.253906 193.617188 L 350.664062 264.648438 L 290.101562 259.882812 Z M 295.691406 188.851562 " clip-rule="nonzero"/></clipPath><clipPath id="66da07f438"><path d="M 311 228 L 313 228 L 313 235 L 311 235 Z M 311 228 " clip-rule="nonzero"/></clipPath><clipPath id="71d1f44591"><path d="M 295.691406 188.851562 L 356.253906 193.617188 L 350.664062 264.648438 L 290.101562 259.882812 Z M 295.691406 188.851562 " clip-rule="nonzero"/></clipPath><clipPath id="541c9f15af"><path d="M 295.691406 188.851562 L 356.253906 193.617188 L 350.664062 264.648438 L 290.101562 259.882812 Z M 295.691406 188.851562 " clip-rule="nonzero"/></clipPath><clipPath id="713f2fa4b0"><path d="M 295.691406 188.851562 L 356.253906 193.617188 L 350.664062 264.648438 L 290.101562 259.882812 Z M 295.691406 188.851562 " clip-rule="nonzero"/></clipPath><clipPath id="290daeaeac"><path d="M 329 235 L 333 235 L 333 241 L 329 241 Z M 329 235 " clip-rule="nonzero"/></clipPath><clipPath id="38416e9492"><path d="M 295.691406 188.851562 L 356.253906 193.617188 L 350.664062 264.648438 L 290.101562 259.882812 Z M 295.691406 188.851562 " clip-rule="nonzero"/></clipPath><clipPath id="824b3df919"><path d="M 295.691406 188.851562 L 356.253906 193.617188 L 350.664062 264.648438 L 290.101562 259.882812 Z M 295.691406 188.851562 " clip-rule="nonzero"/></clipPath><clipPath id="afb4e952a1"><path d="M 295.691406 188.851562 L 356.253906 193.617188 L 350.664062 264.648438 L 290.101562 259.882812 Z M 295.691406 188.851562 " clip-rule="nonzero"/></clipPath><clipPath id="fb90f3efd4"><path d="M 323 213 L 325 213 L 325 220 L 323 220 Z M 323 213 " clip-rule="nonzero"/></clipPath><clipPath id="fe6b60fe5a"><path d="M 295.691406 188.851562 L 356.253906 193.617188 L 350.664062 264.648438 L 290.101562 259.882812 Z M 295.691406 188.851562 " clip-rule="nonzero"/></clipPath><clipPath id="3fa4b38338"><path d="M 295.691406 188.851562 L 356.253906 193.617188 L 350.664062 264.648438 L 290.101562 259.882812 Z M 295.691406 188.851562 " clip-rule="nonzero"/></clipPath><clipPath id="c5a9e3370b"><path d="M 295.691406 188.851562 L 356.253906 193.617188 L 350.664062 264.648438 L 290.101562 259.882812 Z M 295.691406 188.851562 " clip-rule="nonzero"/></clipPath><clipPath id="ecd7456a59"><path d="M 330 222 L 333 222 L 333 227 L 330 227 Z M 330 222 " clip-rule="nonzero"/></clipPath><clipPath id="f38395c78f"><path d="M 295.691406 188.851562 L 356.253906 193.617188 L 350.664062 264.648438 L 290.101562 259.882812 Z M 295.691406 188.851562 " clip-rule="nonzero"/></clipPath><clipPath id="74bc06387e"><path d="M 295.691406 188.851562 L 356.253906 193.617188 L 350.664062 264.648438 L 290.101562 259.882812 Z M 295.691406 188.851562 " clip-rule="nonzero"/></clipPath><clipPath id="1d268ee7ee"><path d="M 295.691406 188.851562 L 356.253906 193.617188 L 350.664062 264.648438 L 290.101562 259.882812 Z M 295.691406 188.851562 " clip-rule="nonzero"/></clipPath><clipPath id="12b289dcc7"><path d="M 310 222 L 312 222 L 312 227 L 310 227 Z M 310 222 " clip-rule="nonzero"/></clipPath><clipPath id="08c511d168"><path d="M 295.691406 188.851562 L 356.253906 193.617188 L 350.664062 264.648438 L 290.101562 259.882812 Z M 295.691406 188.851562 " clip-rule="nonzero"/></clipPath><clipPath id="53b7ac46c3"><path d="M 295.691406 188.851562 L 356.253906 193.617188 L 350.664062 264.648438 L 290.101562 259.882812 Z M 295.691406 188.851562 " clip-rule="nonzero"/></clipPath><clipPath id="ac3cb940ff"><path d="M 295.691406 188.851562 L 356.253906 193.617188 L 350.664062 264.648438 L 290.101562 259.882812 Z M 295.691406 188.851562 " clip-rule="nonzero"/></clipPath><clipPath id="0ad31543c0"><path d="M 334 233 L 337 233 L 337 237 L 334 237 Z M 334 233 " clip-rule="nonzero"/></clipPath><clipPath id="f43feeb7f7"><path d="M 295.691406 188.851562 L 356.253906 193.617188 L 350.664062 264.648438 L 290.101562 259.882812 Z M 295.691406 188.851562 " clip-rule="nonzero"/></clipPath><clipPath id="443d0b3d18"><path d="M 295.691406 188.851562 L 356.253906 193.617188 L 350.664062 264.648438 L 290.101562 259.882812 Z M 295.691406 188.851562 " clip-rule="nonzero"/></clipPath><clipPath id="3665982aa8"><path d="M 295.691406 188.851562 L 356.253906 193.617188 L 350.664062 264.648438 L 290.101562 259.882812 Z M 295.691406 188.851562 " clip-rule="nonzero"/></clipPath><clipPath id="24c56efc01"><path d="M 330 229 L 333 229 L 333 233 L 330 233 Z M 330 229 " clip-rule="nonzero"/></clipPath><clipPath id="5a9360ec97"><path d="M 295.691406 188.851562 L 356.253906 193.617188 L 350.664062 264.648438 L 290.101562 259.882812 Z M 295.691406 188.851562 " clip-rule="nonzero"/></clipPath><clipPath id="9790ecbd12"><path d="M 295.691406 188.851562 L 356.253906 193.617188 L 350.664062 264.648438 L 290.101562 259.882812 Z M 295.691406 188.851562 " clip-rule="nonzero"/></clipPath><clipPath id="66e68389cd"><path d="M 295.691406 188.851562 L 356.253906 193.617188 L 350.664062 264.648438 L 290.101562 259.882812 Z M 295.691406 188.851562 " clip-rule="nonzero"/></clipPath><clipPath id="fbc65866a4"><path d="M 315 254 L 320 254 L 320 259 L 315 259 Z M 315 254 " clip-rule="nonzero"/></clipPath><clipPath id="f2eada1c4f"><path d="M 295.691406 188.851562 L 356.253906 193.617188 L 350.664062 264.648438 L 290.101562 259.882812 Z M 295.691406 188.851562 " clip-rule="nonzero"/></clipPath><clipPath id="cd8c7ec5a8"><path d="M 295.691406 188.851562 L 356.253906 193.617188 L 350.664062 264.648438 L 290.101562 259.882812 Z M 295.691406 188.851562 " clip-rule="nonzero"/></clipPath><clipPath id="2eef953d09"><path d="M 295.691406 188.851562 L 356.253906 193.617188 L 350.664062 264.648438 L 290.101562 259.882812 Z M 295.691406 188.851562 " clip-rule="nonzero"/></clipPath></defs><rect x="-37.5" width="450" fill="#ffffff" y="-37.499999" height="449.999989" fill-opacity="1"/><rect x="-37.5" width="450" fill="#5d0000" y="-37.499999" height="449.999989" fill-opacity="1"/><g clip-path="url(#f940ffa5b8)"><g clip-path="url(#36776b7c91)"><g clip-path="url(#5b55a5247b)"><g clip-path="url(#baa46e2303)"><path fill="#ffffff" d="M 96.351562 171.105469 L 95.734375 172.953125 L 109.1875 179.730469 Z M 96.351562 171.105469 " fill-opacity="1" fill-rule="nonzero"/></g></g></g></g><g clip-path="url(#c68c524946)"><g clip-path="url(#19234f1746)"><g clip-path="url(#95995d5951)"><g clip-path="url(#8240918754)"><path fill="#ffffff" d="M 85.03125 180.613281 L 89.515625 191.375 L 86.402344 179.542969 Z M 85.03125 180.613281 " fill-opacity="1" fill-rule="nonzero"/></g></g></g></g><g clip-path="url(#e7fcd28ea8)"><g clip-path="url(#0e0c88dd36)"><g clip-path="url(#f002eca474)"><g clip-path="url(#31a3afc92e)"><path fill="#ffffff" d="M 72.070312 181.238281 C 72.070312 181.238281 70.796875 193.902344 70.761719 193.589844 C 70.722656 193.277344 73.542969 181.0625 73.542969 181.0625 Z M 72.070312 181.238281 " fill-opacity="1" fill-rule="nonzero"/></g></g></g></g><g clip-path="url(#ab6376c5d5)"><g clip-path="url(#d0e0c2fbcf)"><g clip-path="url(#18e8f6972d)"><g clip-path="url(#bcffe7f3a9)"><path fill="#ffffff" d="M 64.207031 173.203125 L 51.867188 181.644531 L 65.496094 174.765625 Z M 64.207031 173.203125 " fill-opacity="1" fill-rule="nonzero"/></g></g></g></g><g clip-path="url(#c9fe624d08)"><g clip-path="url(#5b0931ac5a)"><g clip-path="url(#99bd39d261)"><g clip-path="url(#e9855cf63f)"><path fill="#ffffff" d="M 62.699219 160.480469 C 62.789062 160.785156 62.039062 162.4375 62.039062 162.4375 L 49.148438 158.71875 Z M 62.699219 160.480469 " fill-opacity="1" fill-rule="nonzero"/></g></g></g></g><g clip-path="url(#ded97b2b81)"><g clip-path="url(#5be7c88022)"><g clip-path="url(#715408302b)"><g clip-path="url(#c2b890ef1e)"><path fill="#ffffff" d="M 68.710938 152.929688 L 70.863281 151.203125 C 70.863281 151.203125 62.046875 137.738281 62.09375 138.15625 C 62.144531 138.570312 68.195312 152.539062 68.195312 152.539062 Z M 68.710938 152.929688 " fill-opacity="1" fill-rule="nonzero"/></g></g></g></g><g clip-path="url(#a15729eecd)"><g clip-path="url(#70af84fab5)"><g clip-path="url(#9580825321)"><g clip-path="url(#35d7cc046a)"><path fill="#ffffff" d="M 82.824219 149.367188 L 85.683594 149.976562 L 88.101562 135.074219 Z M 82.824219 149.367188 " fill-opacity="1" fill-rule="nonzero"/></g></g></g></g><g clip-path="url(#e28c9a51ec)"><g clip-path="url(#d4234c0909)"><g clip-path="url(#5347ab7020)"><g clip-path="url(#7af72185cd)"><path fill="#ffffff" d="M 96.238281 156.925781 L 97.457031 159.703125 L 108.980469 155.414062 L 97.117188 156.820312 Z M 96.238281 156.925781 " fill-opacity="1" fill-rule="nonzero"/></g></g></g></g><g clip-path="url(#32952fe089)"><g clip-path="url(#4982702e22)"><g clip-path="url(#e1e9589acf)"><g clip-path="url(#8959a5db8e)"><path fill="#000000" d="M 65.492188 174.761719 C 65.492188 174.761719 71.089844 180.480469 71.535156 180.707031 C 71.980469 180.933594 60.417969 195.65625 60.417969 195.65625 Z M 65.492188 174.761719 " fill-opacity="1" fill-rule="nonzero"/></g></g></g></g><g clip-path="url(#ede868bfe4)"><g clip-path="url(#ca29ea15b3)"><g clip-path="url(#bb2f3a44eb)"><g clip-path="url(#07dc7a0f37)"><path fill="#000000" d="M 62.542969 163.125 C 62.515625 163.761719 64.675781 172.285156 64.675781 172.285156 L 42.0625 178.382812 Z M 62.542969 163.125 " fill-opacity="1" fill-rule="nonzero"/></g></g></g></g><g clip-path="url(#bfb9b9d0bc)"><g clip-path="url(#b7ee01e2ca)"><g clip-path="url(#774347518a)"><g clip-path="url(#e6c9b26fac)"><path fill="#000000" d="M 74.390625 180.964844 L 83.90625 180.890625 L 79.546875 198.859375 Z M 74.390625 180.964844 " fill-opacity="1" fill-rule="nonzero"/></g></g></g></g><g clip-path="url(#b5f3d0ef2e)"><g clip-path="url(#9784e8e7bd)"><g clip-path="url(#be5c4dcfb2)"><g clip-path="url(#b100c978cc)"><path fill="#000000" d="M 94.351562 173.65625 L 87.472656 179.203125 L 103.675781 190.53125 Z M 94.351562 173.65625 " fill-opacity="1" fill-rule="nonzero"/></g></g></g></g><g clip-path="url(#80f454c337)"><g clip-path="url(#94425ae5a6)"><g clip-path="url(#b541df5445)"><g clip-path="url(#0ff79fa099)"><path fill="#000000" d="M 97.609375 160.972656 L 96.277344 170.484375 L 120.566406 165.292969 Z M 97.609375 160.972656 " fill-opacity="1" fill-rule="nonzero"/></g></g></g></g><g clip-path="url(#a558be3529)"><g clip-path="url(#1b1da52571)"><g clip-path="url(#7c90017bc9)"><g clip-path="url(#a0acf1a68e)"><path fill="#000000" d="M 87.371094 150.089844 C 87.4375 149.765625 103.171875 132.441406 103.171875 132.441406 C 103.171875 132.441406 95.144531 156.527344 94.992188 156.125 C 94.839844 155.722656 87.371094 150.089844 87.371094 150.089844 Z M 87.371094 150.089844 " fill-opacity="1" fill-rule="nonzero"/></g></g></g></g><g clip-path="url(#5c67c49708)"><g clip-path="url(#9baa6bc1aa)"><g clip-path="url(#3f6eca9c51)"><g clip-path="url(#b10d842254)"><path fill="#000000" d="M 72.308594 151.03125 C 72.308594 151.03125 74.625 129.097656 74.484375 128.800781 C 74.347656 128.5 81.351562 149.539062 81.351562 149.539062 Z M 72.308594 151.03125 " fill-opacity="1" fill-rule="nonzero"/></g></g></g></g><g clip-path="url(#9920d49824)"><g clip-path="url(#168f9656ec)"><g clip-path="url(#c659363e49)"><g clip-path="url(#9b9074380a)"><path fill="#000000" d="M 55.449219 143.886719 L 63.992188 160.328125 L 68.445312 154.648438 Z M 55.449219 143.886719 " fill-opacity="1" fill-rule="nonzero"/></g></g></g></g><g clip-path="url(#062dcd7761)"><g clip-path="url(#7ca3e81839)"><g clip-path="url(#c7941f676b)"><g clip-path="url(#6ec34bf734)"><path fill="#ffffff" d="M 71.839844 153.851562 C 71.25 154.367188 63.265625 165.675781 63.265625 165.675781 L 68.824219 175.820312 L 78.859375 180.121094 L 86.925781 177.742188 L 94.042969 172.832031 L 95.792969 162.863281 C 95.792969 162.863281 90.382812 154.75 90.28125 154.800781 C 90.179688 154.855469 81.949219 150.941406 81.621094 151.089844 C 81.289062 151.238281 71.839844 153.851562 71.839844 153.851562 Z M 71.839844 153.851562 " fill-opacity="1" fill-rule="nonzero"/></g></g></g></g><g clip-path="url(#4b14dc3329)"><g clip-path="url(#cd7d85ff52)"><g clip-path="url(#b7498115ca)"><g clip-path="url(#3e24884b78)"><path fill="#000000" d="M 73.4375 155.839844 C 73.4375 155.839844 66.875 165.242188 66.914062 165.550781 C 66.949219 165.863281 69.78125 172.539062 69.78125 172.539062 L 79.390625 177.214844 L 87.511719 174.464844 L 92.277344 170.304688 L 92.921875 162.496094 L 88.710938 156.660156 L 81.859375 153.824219 Z M 73.4375 155.839844 " fill-opacity="1" fill-rule="nonzero"/></g></g></g></g><g clip-path="url(#1ae3b14b43)"><g clip-path="url(#1b008b52f0)"><g clip-path="url(#25fc6b8352)"><g clip-path="url(#8bd04c24ab)"><path fill="#ffffff" d="M 75.117188 158.269531 L 70.332031 165.253906 L 71.546875 171.105469 L 78.335938 174.082031 L 85.660156 172.375 L 89.574219 168.691406 L 87.738281 161.394531 L 84.804688 156.695312 Z M 75.117188 158.269531 " fill-opacity="1" fill-rule="nonzero"/></g></g></g></g><g clip-path="url(#358d202555)"><g clip-path="url(#74dd8399c3)"><g clip-path="url(#031a08dba3)"><g clip-path="url(#2762bdf7d0)"><path fill="#000000" d="M 76.03125 159.453125 L 72.3125 165.175781 L 73.292969 169.992188 L 78.628906 172.472656 L 84.359375 171.101562 L 87.410156 168.089844 L 85.9375 162.078125 L 83.617188 158.203125 Z M 76.03125 159.453125 " fill-opacity="1" fill-rule="nonzero"/></g></g></g></g><g transform="matrix(1, 0, 0, 1, 48, 106)"><g clip-path="url(#c394dc0869)"><g fill="#ffffff" fill-opacity="1"><g transform="translate(43.787577, 75.704828)"><g><path d="M 27.46875 -56.78125 L 33.921875 -56.703125 L 31.078125 -8.875 L 14.90625 0.75 L 0.171875 -19.84375 L 4.6875 -23.109375 L 16.421875 -11.71875 L 21.359375 -14.328125 Z M 27.46875 -56.78125 "/></g></g></g><g fill="#ffffff" fill-opacity="1"><g transform="translate(79.461621, 75.704828)"><g><path d="M 4.359375 -56.953125 L 44.890625 -56.953125 L 39.1875 -4.4375 L 9.546875 -2.34375 Z M 18.421875 -12.234375 L 32.5 -14.328125 L 36.09375 -46.3125 L 13.734375 -44.640625 Z M 18.421875 -12.234375 "/></g></g></g><g clip-path="url(#72615f7865)"><g fill="#ffffff" fill-opacity="1"><g transform="translate(128.45062, 75.704828)"><g><path d="M 36.765625 -55.4375 L 3.34375 -55.4375 L 6.875 -3.4375 L 10.390625 -3.015625 L 13.90625 -17.171875 L 29.140625 -18.671875 L 34.75 -1.921875 L 39.359375 -3.015625 Z M 13.90625 -27.390625 L 17.84375 -45.390625 L 23.03125 -45.890625 L 27.640625 -26.796875 Z M 9.71875 -69.171875 L 25.546875 -69.421875 L 33.5 -74.78125 L 35.921875 -66.75 L 27.140625 -61.046875 L 9.046875 -63.734375 Z M 9.71875 -69.171875 "/></g></g></g></g><g fill="#ffffff" fill-opacity="1"><g transform="translate(172.163883, 75.704828)"><g><path d="M 4.359375 -56.953125 L 44.890625 -56.953125 L 39.1875 -4.4375 L 9.546875 -2.34375 Z M 18.421875 -12.234375 L 32.5 -14.328125 L 36.09375 -46.3125 L 13.734375 -44.640625 Z M 18.421875 -12.234375 "/></g></g></g><g fill="#ffffff" fill-opacity="1"><g transform="translate(1.16138, 135.437996)"><g><path d="M 4.859375 -56.953125 L 44.890625 -53.015625 L 30.234375 -18.34375 L 17.078125 -19.34375 L 12.234375 -2.265625 L 7.78125 -2.6875 Z M 25.875 -28.890625 L 31.65625 -43.71875 L 13.5625 -43.71875 L 16.15625 -29.5625 Z M 25.875 -28.890625 "/></g></g></g><g fill="#ffffff" fill-opacity="1"><g transform="translate(46.88444, 135.437996)"><g><path d="M 35.09375 -49.078125 L 16.5 -47.828125 L 14.484375 -33.5 L 35.09375 -32 L 35.09375 -26.21875 L 16.15625 -23.703125 L 18 -10.796875 L 35.765625 -10.390625 L 36.1875 -4.015625 L 7.78125 -1.921875 L 4.609375 -56.953125 L 36.34375 -56.359375 Z M 35.09375 -49.078125 "/></g></g></g><g fill="#ffffff" fill-opacity="1"><g transform="translate(87.415512, 135.437996)"><g><path d="M 13.984375 -46.984375 L 15.578125 -31.40625 L 36.1875 -33.171875 L 37.265625 -2.421875 L 5.4375 -1.921875 L 5.953125 -6.703125 L 25.625 -10.96875 L 26.625 -22.609375 L 6.453125 -20.9375 L 4.4375 -56.953125 L 33 -56.453125 L 32.5 -49 Z M 13.984375 -46.984375 "/></g></g></g><g fill="#ffffff" fill-opacity="1"><g transform="translate(129.035222, 135.437996)"><g><path d="M 13.984375 -46.984375 L 15.578125 -31.40625 L 36.1875 -33.171875 L 37.265625 -2.421875 L 5.4375 -1.921875 L 5.953125 -6.703125 L 25.625 -10.96875 L 26.625 -22.609375 L 6.453125 -20.9375 L 4.4375 -56.953125 L 33 -56.453125 L 32.5 -49 Z M 13.984375 -46.984375 "/></g></g></g><g fill="#ffffff" fill-opacity="1"><g transform="translate(170.654932, 135.437996)"><g><path d="M 4.359375 -56.953125 L 44.890625 -56.953125 L 39.1875 -4.4375 L 9.546875 -2.34375 Z M 18.421875 -12.234375 L 32.5 -14.328125 L 36.09375 -46.3125 L 13.734375 -44.640625 Z M 18.421875 -12.234375 "/></g></g></g><g fill="#ffffff" fill-opacity="1"><g transform="translate(218.47139, 135.437996)"><g><path d="M 37.9375 -55.4375 L 40.53125 -3.015625 L 35.921875 -1.921875 L 30.3125 -18.671875 L 15.078125 -17.171875 L 11.5625 -3.015625 L 8.046875 -3.4375 L 4.515625 -56.953125 Z M 15.078125 -27.390625 L 28.8125 -26.796875 L 24.203125 -45.890625 L 19.015625 -45.390625 Z M 15.078125 -27.390625 "/></g></g></g></g></g><g clip-path="url(#300c152ceb)"><path fill="#ffffff" d="M 218.816406 141.308594 C 218.445312 141.308594 218.082031 141.242188 217.730469 141.105469 C 217.382812 140.972656 217.070312 140.78125 216.789062 140.53125 C 216.511719 140.277344 216.285156 139.984375 216.113281 139.652344 C 215.941406 139.316406 215.835938 138.964844 215.792969 138.589844 C 215.785156 138.53125 215.765625 138.410156 215.746094 138.304688 C 215.585938 137.59375 215.558594 136.882812 215.660156 136.160156 C 215.726562 135.785156 215.789062 135.410156 215.851562 135.035156 C 216.167969 133.148438 216.496094 131.191406 217.027344 129.25 C 218.179688 125.039062 221.066406 122.1875 223.449219 120.171875 C 227.359375 116.871094 232.046875 114.816406 237.789062 113.875 C 239.75 113.554688 242.332031 113.160156 244.945312 112.96875 C 245.230469 112.945312 245.53125 112.9375 245.835938 112.9375 C 247.160156 112.9375 248.453125 113.140625 249.492188 113.304688 C 252.976562 113.855469 257.078125 114.652344 261.078125 116.382812 C 264.628906 117.921875 267.488281 120.066406 269.574219 122.757812 C 271.71875 125.527344 273.0625 128.882812 273.5625 132.742188 C 273.734375 134.054688 273.886719 135.457031 274.019531 137.03125 C 274.066406 137.652344 273.980469 138.257812 273.765625 138.84375 C 273.765625 138.863281 273.75 138.882812 273.742188 138.90625 C 273.640625 139.296875 273.46875 139.65625 273.226562 139.980469 C 272.984375 140.304688 272.6875 140.566406 272.339844 140.773438 C 271.992188 140.980469 271.617188 141.109375 271.21875 141.167969 C 270.820312 141.222656 270.425781 141.199219 270.035156 141.097656 L 269.964844 141.085938 C 269.234375 140.984375 268.578125 140.707031 267.996094 140.261719 C 266.890625 139.375 265.8125 138.496094 264.796875 137.527344 C 261.90625 134.773438 258.394531 132.832031 254.039062 131.574219 C 250.746094 130.625 248.085938 130.160156 245.917969 130.160156 C 245.640625 130.160156 245.367188 130.160156 245.109375 130.183594 C 245.050781 130.183594 244.992188 130.183594 244.933594 130.183594 L 244.867188 130.183594 C 244.671875 130.183594 244.480469 130.183594 244.289062 130.183594 C 240.5625 130.183594 237.066406 130.949219 232.964844 132.644531 C 229.40625 134.117188 225.976562 136.390625 222.167969 139.796875 C 221.679688 140.214844 221.144531 140.550781 220.554688 140.804688 C 220.445312 140.859375 220.339844 140.90625 220.277344 140.941406 C 219.824219 141.1875 219.335938 141.3125 218.816406 141.308594 Z M 244.695312 121.097656 C 244.722656 121.132812 244.753906 121.164062 244.789062 121.191406 C 244.816406 121.132812 244.835938 121.074219 244.839844 121.011719 C 244.84375 120.992188 244.84375 120.972656 244.839844 120.949219 L 244.75 120.949219 C 244.722656 120.996094 244.707031 121.046875 244.699219 121.097656 Z M 244.695312 121.097656 " fill-opacity="1" fill-rule="nonzero"/></g><g clip-path="url(#5caf067ea4)"><path fill="#ffffff" d="M 229.550781 121.710938 C 229.300781 121.710938 229.050781 121.679688 228.808594 121.617188 C 228.566406 121.554688 228.332031 121.464844 228.109375 121.347656 C 227.890625 121.226562 227.6875 121.082031 227.5 120.914062 C 227.316406 120.742188 227.152344 120.550781 227.011719 120.339844 C 226.875 120.128906 226.761719 119.90625 226.679688 119.667969 C 226.597656 119.429688 226.542969 119.183594 226.519531 118.933594 C 226.496094 118.679688 226.503906 118.429688 226.542969 118.179688 C 226.578125 117.929688 226.648438 117.691406 226.746094 117.457031 C 226.835938 117.242188 226.921875 117.019531 227.015625 116.777344 C 227.261719 116.109375 227.554688 115.457031 227.886719 114.824219 C 228.082031 114.46875 228.273438 114.105469 228.476562 113.71875 C 229.152344 112.421875 229.921875 110.953125 231.007812 109.65625 C 233.222656 107.011719 236.34375 105.265625 240.28125 104.464844 C 241.6875 104.179688 243.109375 104.035156 244.542969 104.03125 C 247.808594 104.03125 251.082031 104.8125 254.269531 106.347656 C 257.324219 107.816406 259.679688 110.164062 261.269531 113.320312 C 261.679688 114.136719 262.117188 114.960938 262.539062 115.757812 C 262.730469 116.121094 262.921875 116.480469 263.105469 116.828125 C 263.398438 117.386719 263.507812 117.976562 263.4375 118.605469 C 263.363281 119.230469 263.125 119.78125 262.710938 120.257812 C 262.300781 120.734375 261.792969 121.054688 261.1875 121.214844 C 260.582031 121.375 259.984375 121.351562 259.390625 121.140625 C 253.871094 119.164062 248.96875 118.203125 244.410156 118.203125 C 239.652344 118.183594 235.148438 119.246094 230.894531 121.390625 C 230.472656 121.601562 230.023438 121.707031 229.550781 121.710938 Z M 229.550781 121.710938 " fill-opacity="1" fill-rule="nonzero"/></g><path fill="#ffffff" d="M 244.820312 126.230469 C 244.105469 126.226562 243.417969 126.078125 242.757812 125.796875 C 242.097656 125.511719 241.515625 125.113281 241.015625 124.597656 C 240.539062 124.121094 240.171875 123.574219 239.914062 122.949219 C 239.65625 122.324219 239.53125 121.675781 239.535156 121 C 239.578125 118.3125 241.972656 116.027344 244.753906 116 L 244.800781 116 C 245.503906 115.996094 246.183594 116.128906 246.832031 116.398438 C 247.480469 116.671875 248.054688 117.054688 248.550781 117.558594 C 249.027344 118.039062 249.394531 118.59375 249.652344 119.222656 C 249.910156 119.851562 250.035156 120.503906 250.03125 121.183594 C 250.011719 124.058594 247.777344 126.234375 244.824219 126.234375 Z M 244.820312 126.230469 " fill-opacity="1" fill-rule="nonzero"/><path fill="#ffffff" d="M 258.128906 128.765625 C 255.625 128.765625 253.441406 126.621094 253.355469 124.101562 C 253.304688 122.855469 253.703125 121.78125 254.554688 120.871094 C 254.992188 120.417969 255.5 120.070312 256.082031 119.824219 C 256.660156 119.578125 257.261719 119.453125 257.890625 119.453125 L 257.992188 119.453125 C 260.730469 119.453125 262.828125 121.417969 262.863281 124.027344 C 262.863281 124.644531 262.746094 125.238281 262.511719 125.804688 C 262.277344 126.375 261.941406 126.878906 261.507812 127.3125 C 260.589844 128.257812 259.472656 128.742188 258.15625 128.761719 Z M 258.128906 128.765625 " fill-opacity="1" fill-rule="nonzero"/><path fill="#ffffff" d="M 231.425781 129.277344 C 231.113281 129.269531 230.804688 129.234375 230.5 129.171875 C 230.195312 129.105469 229.898438 129.007812 229.613281 128.886719 C 229.324219 128.761719 229.054688 128.609375 228.796875 128.433594 C 228.539062 128.257812 228.300781 128.054688 228.082031 127.832031 C 227.863281 127.605469 227.667969 127.363281 227.496094 127.101562 C 227.324219 126.839844 227.179688 126.5625 227.0625 126.273438 C 226.945312 125.980469 226.855469 125.679688 226.796875 125.375 C 226.734375 125.066406 226.707031 124.753906 226.707031 124.441406 C 226.726562 121.695312 228.78125 119.621094 231.492188 119.621094 L 231.511719 119.621094 C 232.164062 119.613281 232.792969 119.734375 233.398438 119.984375 C 234 120.234375 234.535156 120.59375 234.992188 121.058594 C 235.429688 121.511719 235.757812 122.03125 235.984375 122.621094 C 236.207031 123.207031 236.308594 123.816406 236.289062 124.445312 C 236.222656 127.109375 234.074219 129.277344 231.496094 129.277344 Z M 231.425781 129.277344 " fill-opacity="1" fill-rule="nonzero"/><path fill="#000000" d="M 244.933594 127.121094 C 240.011719 127.015625 235.867188 128.121094 231.804688 129.804688 C 227.410156 131.625 223.664062 134.359375 220.144531 137.5 C 219.773438 137.828125 219.265625 138 218.816406 138.246094 C 218.757812 137.722656 218.574219 137.175781 218.664062 136.675781 C 219.046875 134.457031 219.375 132.21875 219.96875 130.054688 C 220.832031 126.894531 222.984375 124.558594 225.410156 122.511719 C 229.132812 119.363281 233.519531 117.664062 238.277344 116.890625 C 240.558594 116.519531 242.863281 116.191406 245.171875 116.019531 C 246.441406 115.925781 247.746094 116.125 249.019531 116.324219 C 252.738281 116.910156 256.40625 117.6875 259.871094 119.1875 C 265.980469 121.835938 269.667969 126.414062 270.546875 133.136719 C 270.726562 134.515625 270.871094 135.910156 270.996094 137.296875 C 271.023438 137.566406 270.875 137.851562 270.808594 138.128906 C 270.503906 138.042969 270.132812 138.042969 269.902344 137.859375 C 268.875 137.035156 267.847656 136.203125 266.894531 135.296875 C 263.460938 132.027344 259.363281 129.917969 254.886719 128.625 C 251.492188 127.644531 248.011719 126.941406 244.933594 127.121094 Z M 241.648438 121.167969 C 241.621094 122.785156 243.226562 124.335938 244.964844 124.382812 C 246.441406 124.417969 247.859375 122.800781 247.886719 121.0625 C 247.898438 120.648438 247.832031 120.253906 247.683594 119.871094 C 247.539062 119.484375 247.324219 119.144531 247.039062 118.847656 C 246.757812 118.550781 246.429688 118.320312 246.054688 118.152344 C 245.683594 117.988281 245.289062 117.902344 244.882812 117.894531 C 243.050781 117.832031 241.675781 119.226562 241.648438 121.167969 Z M 257.980469 121.46875 C 256.492188 121.449219 255.621094 122.304688 255.597656 123.804688 C 255.574219 125.34375 256.679688 126.558594 258.121094 126.558594 C 258.460938 126.5625 258.785156 126.496094 259.097656 126.371094 C 259.410156 126.242188 259.6875 126.058594 259.925781 125.820312 C 260.167969 125.582031 260.351562 125.304688 260.484375 124.992188 C 260.613281 124.679688 260.683594 124.351562 260.683594 124.011719 C 260.703125 122.535156 259.589844 121.484375 257.980469 121.46875 Z M 231.464844 126.976562 C 232.902344 126.964844 234.160156 125.765625 234.140625 124.421875 C 234.136719 124.070312 234.066406 123.734375 233.929688 123.410156 C 233.792969 123.089844 233.597656 122.804688 233.347656 122.558594 C 233.097656 122.3125 232.8125 122.125 232.488281 121.996094 C 232.160156 121.867188 231.824219 121.800781 231.476562 121.804688 C 231.125 121.8125 230.792969 121.882812 230.46875 122.019531 C 230.148438 122.160156 229.867188 122.355469 229.625 122.605469 C 229.378906 122.859375 229.191406 123.144531 229.0625 123.472656 C 228.933594 123.800781 228.871094 124.136719 228.875 124.488281 C 228.890625 125.945312 229.980469 126.996094 231.464844 126.976562 Z M 265.382812 126.25 L 265.125 126.121094 C 265.015625 127.515625 264.363281 128.21875 263.003906 128.074219 L 264.246094 128.800781 L 263.636719 130.292969 L 263.847656 130.445312 L 265.125 129.507812 L 266.664062 130.3125 C 266.511719 129.71875 266.234375 129.242188 266.351562 128.875 C 266.464844 128.507812 266.96875 128.28125 267.355469 127.957031 L 265.742188 127.730469 C 265.613281 127.21875 265.5 126.734375 265.382812 126.25 Z M 222.175781 128.464844 L 223.53125 129.230469 C 223.363281 129.746094 223.199219 130.25 223.027344 130.761719 C 223.113281 130.785156 223.203125 130.796875 223.292969 130.796875 C 223.367188 130.78125 223.460938 130.761719 223.496094 130.707031 C 224.183594 129.699219 224.921875 129.894531 225.695312 130.589844 C 225.707031 130.601562 225.765625 130.558594 225.820312 130.53125 C 225.667969 130.085938 225.347656 129.597656 225.433594 129.203125 C 225.511719 128.839844 226.039062 128.570312 226.53125 128.101562 C 225.074219 128.550781 224.65625 127.621094 224.277344 126.503906 C 223.816406 128.117188 223.816406 128.117188 222.175781 128.464844 Z M 222.175781 128.464844 " fill-opacity="1" fill-rule="nonzero"/><path fill="#000000" d="M 260.417969 118.257812 C 250.121094 114.574219 239.867188 113.523438 229.550781 118.648438 C 229.886719 117.847656 230.148438 117.039062 230.550781 116.304688 C 231.425781 114.714844 232.1875 113 233.335938 111.628906 C 235.277344 109.3125 237.921875 108.070312 240.882812 107.46875 C 245.109375 106.609375 249.121094 107.257812 252.957031 109.105469 C 255.453125 110.308594 257.304688 112.214844 258.558594 114.703125 C 259.175781 115.925781 259.824219 117.128906 260.417969 118.257812 Z M 260.417969 118.257812 " fill-opacity="1" fill-rule="nonzero"/><path fill="#000000" d="M 244.820312 123.167969 C 243.648438 123.167969 242.558594 122.140625 242.578125 121.046875 C 242.59375 120.011719 243.644531 119.074219 244.78125 119.058594 C 246 119.046875 246.992188 119.988281 246.984375 121.160156 C 246.976562 122.332031 246.097656 123.167969 244.820312 123.167969 Z M 244.84375 122.386719 C 245.644531 122.394531 246.191406 121.878906 246.214844 121.085938 C 246.234375 120.40625 245.667969 119.941406 244.808594 119.9375 C 244 119.9375 243.472656 120.378906 243.476562 121.066406 C 243.484375 121.839844 244.039062 122.378906 244.839844 122.390625 Z M 244.84375 122.386719 " fill-opacity="1" fill-rule="nonzero"/><path fill="#000000" d="M 259.8125 124.058594 C 259.820312 124.894531 259.003906 125.699219 258.136719 125.703125 C 257.273438 125.707031 256.429688 124.859375 256.402344 124 C 256.371094 123.140625 257 122.535156 257.945312 122.515625 C 259.050781 122.5 259.800781 123.121094 259.8125 124.058594 Z M 258.242188 123.15625 C 257.546875 123.261719 257.242188 123.511719 257.25 124.046875 C 257.257812 124.578125 257.574219 124.839844 258.078125 124.828125 C 258.585938 124.816406 259.03125 124.546875 258.949219 124.015625 C 258.902344 123.699219 258.492188 123.441406 258.242188 123.15625 Z M 258.242188 123.15625 " fill-opacity="1" fill-rule="nonzero"/><path fill="#000000" d="M 231.488281 122.683594 C 232.539062 122.683594 233.257812 123.382812 233.230469 124.367188 C 233.207031 125.355469 232.382812 126.222656 231.464844 126.207031 C 231.234375 126.203125 231.011719 126.15625 230.800781 126.066406 C 230.589844 125.976562 230.40625 125.847656 230.242188 125.683594 C 230.082031 125.519531 229.957031 125.332031 229.871094 125.117188 C 229.785156 124.902344 229.738281 124.679688 229.738281 124.449219 C 229.753906 123.40625 230.464844 122.679688 231.488281 122.683594 Z M 231.851562 123.449219 C 230.976562 123.472656 230.542969 123.910156 230.546875 124.519531 C 230.546875 125.058594 230.816406 125.402344 231.347656 125.425781 C 231.878906 125.449219 232.472656 124.804688 232.367188 124.238281 C 232.308594 123.917969 231.976562 123.628906 231.851562 123.457031 Z M 231.851562 123.449219 " fill-opacity="1" fill-rule="nonzero"/><g clip-path="url(#1ed75f2acd)"><g clip-path="url(#e13bfa9c49)"><g clip-path="url(#eb9c09b01f)"><g clip-path="url(#6f99801a71)"><path fill="#000000" d="M 328.667969 249.695312 C 327.957031 251.148438 327.394531 252.464844 326.6875 253.699219 C 325.53125 255.714844 324.339844 257.726562 323.054688 259.648438 C 321.613281 261.8125 319.398438 262.183594 317.101562 261.675781 C 315.117188 261.230469 313.378906 260.351562 312.015625 258.597656 C 310.65625 256.847656 311.335938 254.566406 312.152344 253.105469 C 312.992188 251.605469 313.753906 250.0625 314.550781 248.539062 L 314.28125 248.390625 C 311.144531 250.179688 308.011719 251.96875 304.871094 253.753906 C 303.589844 254.476562 302.335938 255.242188 301.003906 255.839844 C 296.679688 257.796875 291.746094 255.046875 291.335938 250.308594 C 291.117188 247.75 291.816406 244.996094 294.816406 244.042969 C 298.351562 242.917969 301.753906 241.367188 305.1875 240.019531 C 304.132812 239.191406 302.917969 238.429688 301.914062 237.441406 C 299.222656 234.804688 297.832031 231.519531 297.933594 227.742188 C 298.023438 224.371094 298.179688 221.023438 296.734375 217.824219 L 297 217.546875 C 297.359375 217.640625 297.773438 217.648438 298.066406 217.839844 C 300.457031 219.421875 302.390625 221.453125 303.859375 223.929688 C 303.738281 223.261719 303.660156 222.875 303.59375 222.484375 C 303.273438 220.597656 302.667969 218.695312 302.71875 216.824219 C 302.769531 215.039062 303.398438 213.230469 304 211.511719 C 304.453125 210.210938 305.261719 209.039062 305.910156 207.8125 C 306.824219 206.078125 307.335938 204.257812 307.246094 202.269531 C 307.269531 201.835938 307.324219 201.40625 307.417969 200.980469 C 311.820312 204.285156 312.648438 208.859375 312.734375 213.8125 C 313.0625 210.5 314.636719 207.785156 316.078125 205.023438 C 316.609375 204.011719 317.214844 203.042969 317.785156 202.046875 C 319.53125 198.929688 319.246094 195.566406 318.96875 192.199219 C 318.917969 191.808594 318.894531 191.417969 318.832031 190.671875 C 323.027344 192.171875 326.007812 194.734375 328.359375 198.175781 C 330.75 201.675781 331.460938 205.542969 331.042969 209.785156 C 332.578125 205.855469 335.90625 203.695312 339.101562 200.882812 C 339.292969 201.566406 339.527344 202.039062 339.511719 202.5 C 339.421875 205.421875 339.148438 208.3125 339.167969 211.207031 C 339.179688 213.039062 339.660156 214.863281 339.8125 216.710938 C 339.886719 217.625 339.6875 218.566406 339.609375 219.585938 C 341.863281 217.441406 343.417969 214.515625 346.855469 213.253906 C 346.585938 214.472656 346.46875 215.429688 346.160156 216.3125 C 345.726562 217.5625 345.789062 218.761719 346.113281 220.003906 C 346.941406 223.085938 347.679688 226.128906 347.289062 229.429688 C 346.609375 235.160156 343.789062 239.289062 338.953125 242.152344 C 338.699219 242.296875 338.441406 242.414062 338.207031 242.558594 C 338.164062 242.585938 338.136719 242.625 338.125 242.675781 C 341.511719 244.730469 344.933594 246.742188 348.285156 248.863281 C 351.1875 250.699219 351.535156 252.925781 350.492188 256.121094 C 349.640625 258.71875 346.789062 260.386719 344.035156 260.226562 C 341.792969 260.101562 340.019531 258.980469 338.367188 257.667969 C 335.5625 255.433594 332.84375 253.085938 330.078125 250.792969 C 329.699219 250.460938 329.277344 250.160156 328.667969 249.695312 Z M 318.289062 242.023438 C 314.976562 238.28125 314.472656 233.96875 315.523438 229.105469 L 319.976562 234.828125 C 320.199219 233.5625 320.5 232.417969 320.585938 231.257812 C 320.773438 228.546875 321.652344 226.054688 322.832031 223.652344 C 323.003906 223.3125 323.410156 223.097656 323.921875 222.625 C 324.140625 226.6875 324.339844 230.335938 324.550781 234.257812 C 325.9375 232.011719 327.085938 229.820312 329.253906 228.457031 C 329.628906 234.078125 327.839844 238.960938 324.636719 243.5 C 333.394531 242.78125 341.726562 235.445312 341.039062 224.335938 C 338.953125 229.175781 335.609375 232.578125 332.75 232.679688 C 332.84375 232.4375 332.945312 232.21875 333.011719 231.992188 C 333.738281 229.53125 334.710938 227.132812 334.4375 224.457031 C 334.199219 222.109375 334.125 219.746094 333.992188 217.386719 C 333.941406 216.515625 333.925781 215.648438 333.882812 214.535156 C 332.058594 218.800781 329.851562 222.476562 326.003906 225.238281 C 326.273438 221.835938 326.78125 218.667969 326.695312 215.519531 C 326.609375 212.371094 325.855469 209.257812 323.644531 206.648438 C 323.589844 206.957031 323.566406 207.269531 323.570312 207.582031 C 323.867188 210.023438 322.707031 211.84375 321.105469 213.464844 C 319.09375 215.488281 317.691406 217.878906 317.234375 220.691406 C 316.992188 222.203125 317.21875 223.789062 317.207031 225.335938 C 317.222656 225.605469 317.152344 225.847656 316.996094 226.0625 C 316.917969 226.152344 316.539062 226.074219 316.371094 225.957031 C 313.617188 224.058594 311.113281 221.941406 310.476562 218.222656 C 309.929688 220.222656 309.421875 222.070312 308.929688 223.917969 C 308.6875 224.738281 308.488281 225.570312 308.339844 226.414062 C 307.691406 230.652344 309.3125 234.21875 311.78125 237.433594 C 313.441406 239.617188 315.753906 240.980469 318.289062 242.023438 Z M 317.34375 252.652344 C 315.660156 252.507812 313.984375 253.875 313.804688 255.523438 C 313.636719 257.070312 316.046875 259.25 318.050781 259.363281 C 319.441406 259.441406 320.90625 258.132812 321.042969 256.683594 C 321.214844 254.933594 319.273438 252.824219 317.34375 252.652344 Z M 299.992188 253.542969 C 301.558594 251.15625 300.464844 248.179688 297.71875 246.851562 C 297.527344 246.757812 297.328125 246.6875 297.117188 246.640625 C 296.910156 246.59375 296.699219 246.574219 296.484375 246.582031 C 296.273438 246.589844 296.0625 246.621094 295.859375 246.679688 C 295.652344 246.738281 295.457031 246.820312 295.269531 246.925781 C 295.085938 247.03125 294.914062 247.160156 294.757812 247.308594 C 294.605469 247.457031 294.46875 247.621094 294.355469 247.804688 C 294.242188 247.984375 294.148438 248.179688 294.082031 248.382812 C 294.011719 248.585938 293.96875 248.796875 293.953125 249.011719 C 293.75 251.039062 294.277344 252.085938 296.109375 253.464844 C 295.699219 252.441406 295.175781 251.324219 294.773438 250.160156 C 294.429688 249.179688 294.605469 248.28125 295.617188 247.746094 C 296.59375 247.226562 297.335938 247.742188 298.019531 248.367188 C 299.453125 249.6875 299.851562 251.464844 299.992188 253.542969 Z M 342.242188 257.304688 C 342.472656 256.113281 342.644531 254.953125 342.9375 253.824219 C 343.167969 252.921875 344.820312 251.703125 345.734375 251.675781 C 346.703125 251.640625 347.507812 252.035156 347.53125 253.070312 C 347.558594 254.261719 347.332031 255.457031 347.234375 256.417969 C 347.90625 255.976562 348.742188 253.546875 348.335938 252.496094 C 347.722656 250.90625 346.59375 250.398438 344.539062 250.851562 C 343.054688 251.175781 342.042969 252.140625 341.75 253.605469 C 341.5 254.855469 340.898438 256.261719 342.242188 257.304688 Z M 316.796875 243.984375 C 314.960938 243.546875 303.554688 249.269531 302.726562 250.964844 Z M 339.050781 253.167969 L 339.3125 252.785156 C 339.230469 252.652344 339.132812 252.53125 339.019531 252.425781 C 336.488281 250.53125 333.957031 248.640625 331.402344 246.78125 C 331.132812 246.585938 330.71875 246.605469 330.367188 246.523438 L 330.214844 246.890625 Z M 313 243.660156 C 309.160156 244.117188 305.753906 245.863281 302.316406 247.527344 C 306.050781 246.765625 309.566406 245.359375 313 243.660156 Z M 332.804688 245.417969 C 334.9375 247.84375 337.59375 249.511719 340.535156 250.746094 C 338.289062 248.496094 335.527344 246.980469 332.796875 245.417969 Z M 300.457031 244.929688 C 300.507812 245.046875 300.554688 245.164062 300.601562 245.277344 L 308.824219 241.8125 L 308.628906 241.347656 C 305.921875 242.574219 302.890625 243.035156 300.457031 244.929688 Z M 336.261719 244.28125 L 336.085938 244.5625 C 338.082031 246.648438 341.300781 248.667969 342.601562 248.425781 Z M 345.605469 253.363281 C 344.179688 254.355469 343.710938 255.609375 343.972656 257.199219 C 345.253906 256.78125 346.003906 255.058594 345.601562 253.355469 Z M 325.625 247.332031 L 325.144531 247.1875 C 324.589844 249.253906 323.351562 251.09375 323.066406 253.253906 L 323.59375 253.433594 C 324.269531 251.390625 324.945312 249.351562 325.625 247.316406 Z M 320.945312 251.707031 C 321.382812 250.199219 321.808594 248.753906 322.234375 247.308594 L 321.941406 247.222656 C 320.101562 250.867188 320.101562 250.867188 320.945312 251.691406 Z M 319.964844 246.390625 L 319.539062 246.109375 L 317.300781 249.4375 L 317.90625 249.832031 Z M 298.464844 253.214844 C 298.214844 252.34375 297.964844 251.476562 297.660156 250.414062 C 296.578125 251.785156 296.804688 252.695312 298.464844 253.214844 Z M 309.019531 238.191406 L 309.222656 238.03125 C 308.601562 237.183594 308.019531 236.300781 307.339844 235.507812 C 307.113281 235.261719 306.644531 235.246094 306.289062 235.125 L 306.140625 235.496094 Z M 323.453125 239.960938 L 323.921875 240.054688 C 324.316406 238.726562 324.707031 237.398438 325.101562 236.066406 L 324.695312 235.9375 Z M 302.671875 231.386719 L 303.082031 231.171875 L 301.226562 227.777344 L 300.894531 227.953125 Z M 320.03125 206.648438 L 320.273438 206.667969 L 320.535156 203.347656 L 320.292969 203.328125 Z M 322.832031 197.753906 L 322.332031 197.902344 C 322.535156 198.785156 322.742188 199.671875 322.949219 200.554688 L 323.449219 200.4375 Z M 322.832031 197.753906 " fill-opacity="1" fill-rule="nonzero"/></g></g></g></g><g clip-path="url(#0ad3a810eb)"><g clip-path="url(#fc087d710f)"><g clip-path="url(#2699e2f78e)"><g clip-path="url(#72c80e5a7e)"><path fill="#ffffff" d="M 318.289062 242.023438 C 315.753906 240.980469 313.441406 239.617188 311.78125 237.441406 C 309.3125 234.21875 307.691406 230.652344 308.335938 226.40625 C 308.488281 225.5625 308.683594 224.730469 308.925781 223.910156 C 309.421875 222.0625 309.929688 220.214844 310.472656 218.214844 C 311.113281 221.933594 313.613281 224.050781 316.367188 225.949219 C 316.535156 226.066406 316.917969 226.144531 316.996094 226.058594 C 317.148438 225.839844 317.21875 225.597656 317.207031 225.332031 C 317.214844 223.78125 316.988281 222.195312 317.234375 220.683594 C 317.699219 217.871094 319.09375 215.480469 321.101562 213.457031 C 322.699219 211.847656 323.859375 210.015625 323.570312 207.574219 C 323.566406 207.261719 323.589844 206.949219 323.640625 206.640625 C 325.851562 209.25 326.605469 212.359375 326.695312 215.511719 C 326.78125 218.660156 326.269531 221.828125 326.003906 225.230469 C 329.847656 222.46875 332.054688 218.792969 333.878906 214.527344 C 333.921875 215.640625 333.941406 216.511719 333.988281 217.378906 C 334.125 219.738281 334.195312 222.105469 334.4375 224.449219 C 334.714844 227.125 333.738281 229.523438 333.011719 231.984375 C 332.945312 232.210938 332.84375 232.425781 332.75 232.671875 C 335.605469 232.566406 338.953125 229.167969 341.035156 224.328125 C 341.722656 235.4375 333.394531 242.773438 324.636719 243.492188 C 327.835938 238.953125 329.625 234.070312 329.253906 228.449219 C 327.082031 229.8125 325.9375 232.003906 324.546875 234.25 C 324.335938 230.320312 324.140625 226.679688 323.921875 222.617188 C 323.410156 223.089844 323 223.304688 322.832031 223.644531 C 321.660156 226.046875 320.773438 228.535156 320.582031 231.25 C 320.492188 232.410156 320.195312 233.554688 319.976562 234.820312 L 315.519531 229.097656 C 314.472656 233.96875 314.976562 238.28125 318.289062 242.023438 Z M 319.925781 224.828125 L 320.410156 224.886719 C 320.761719 222.785156 321.109375 220.6875 321.460938 218.589844 L 320.976562 218.507812 C 319.742188 220.472656 319.628906 222.613281 319.925781 224.828125 Z M 311.582031 228.25 L 311.035156 228.382812 C 310.902344 230.550781 311.160156 232.601562 312.589844 234.359375 L 312.945312 234.269531 Z M 329.078125 239.996094 C 330.410156 240.347656 332.90625 237.203125 332.769531 235.507812 C 330.859375 236.503906 330.667969 238.753906 329.085938 240 Z M 322.996094 219.28125 C 324.375 217.128906 324.632812 214.746094 323.832031 213.15625 C 323.542969 215.335938 323.269531 217.308594 323.003906 219.285156 Z M 330.746094 226.773438 L 331.3125 226.882812 L 332.148438 222.488281 L 331.488281 222.363281 C 331.253906 223.835938 331.007812 225.308594 330.753906 226.789062 Z M 310.835938 222.816406 L 310.257812 222.945312 C 310.597656 224.242188 310.933594 225.535156 311.269531 226.828125 L 311.851562 226.6875 C 311.992188 225.285156 311.222656 224.097656 310.84375 222.820312 Z M 336.691406 233.746094 L 336.34375 233.390625 L 334.3125 235.660156 L 334.742188 236.042969 C 335.390625 235.277344 336.039062 234.511719 336.691406 233.746094 Z M 330.710938 231.832031 L 331.246094 232.121094 C 331.566406 231.386719 331.882812 230.652344 332.195312 229.917969 L 331.75 229.710938 C 331.402344 230.414062 331.054688 231.121094 330.707031 231.832031 Z M 330.710938 231.832031 " fill-opacity="1" fill-rule="nonzero"/></g></g></g></g><g clip-path="url(#0bb412c308)"><g clip-path="url(#1cb81f442d)"><g clip-path="url(#9f755305e4)"><g clip-path="url(#192905ba07)"><path fill="#ffffff" d="M 317.34375 252.652344 C 319.273438 252.824219 321.210938 254.941406 321.042969 256.683594 C 320.90625 258.132812 319.441406 259.441406 318.050781 259.363281 C 316.046875 259.25 313.636719 257.070312 313.804688 255.523438 C 313.980469 253.863281 315.660156 252.507812 317.34375 252.652344 Z M 319.601562 256.746094 C 319.628906 256.503906 319.613281 256.261719 319.558594 256.023438 C 319.503906 255.785156 319.410156 255.5625 319.28125 255.355469 C 319.148438 255.148438 318.988281 254.96875 318.796875 254.820312 C 318.605469 254.667969 318.394531 254.554688 318.167969 254.472656 C 316.617188 253.855469 315.503906 254.015625 315.148438 254.921875 C 314.859375 255.644531 316.03125 257.542969 317.003906 257.953125 C 318.328125 258.511719 319.503906 257.964844 319.601562 256.746094 Z M 319.601562 256.746094 " fill-opacity="1" fill-rule="nonzero"/></g></g></g></g><g clip-path="url(#962ff3708a)"><g clip-path="url(#a9c95bfbef)"><g clip-path="url(#b3177df3bb)"><g clip-path="url(#cff0df7945)"><path fill="#ffffff" d="M 299.992188 253.542969 C 299.851562 251.464844 299.453125 249.6875 298.011719 248.359375 C 297.324219 247.734375 296.59375 247.222656 295.609375 247.742188 C 294.585938 248.28125 294.421875 249.175781 294.761719 250.152344 C 295.164062 251.316406 295.679688 252.453125 296.101562 253.460938 C 294.269531 252.078125 293.742188 251.042969 293.945312 249.007812 C 293.960938 248.792969 294.003906 248.582031 294.070312 248.378906 C 294.140625 248.171875 294.230469 247.980469 294.347656 247.796875 C 294.460938 247.617188 294.59375 247.449219 294.75 247.300781 C 294.90625 247.152344 295.074219 247.027344 295.261719 246.917969 C 295.445312 246.8125 295.644531 246.730469 295.847656 246.671875 C 296.054688 246.613281 296.261719 246.582031 296.476562 246.574219 C 296.691406 246.570312 296.902344 246.589844 297.109375 246.636719 C 297.316406 246.679688 297.519531 246.753906 297.710938 246.847656 C 300.464844 248.1875 301.558594 251.15625 299.992188 253.542969 Z M 299.992188 253.542969 " fill-opacity="1" fill-rule="nonzero"/></g></g></g></g><g clip-path="url(#d7cbf83ab5)"><g clip-path="url(#768464a5a2)"><g clip-path="url(#255158c1c3)"><g clip-path="url(#2114213ba2)"><path fill="#ffffff" d="M 342.242188 257.304688 C 340.898438 256.261719 341.5 254.855469 341.75 253.609375 C 342.042969 252.144531 343.054688 251.175781 344.539062 250.855469 C 346.59375 250.402344 347.722656 250.910156 348.332031 252.496094 C 348.742188 253.550781 347.910156 255.972656 347.234375 256.417969 C 347.332031 255.460938 347.558594 254.261719 347.53125 253.074219 C 347.507812 252.035156 346.703125 251.640625 345.730469 251.675781 C 344.816406 251.707031 343.167969 252.925781 342.9375 253.828125 C 342.644531 254.953125 342.472656 256.113281 342.242188 257.304688 Z M 342.242188 257.304688 " fill-opacity="1" fill-rule="nonzero"/></g></g></g></g><g clip-path="url(#67a908bcc7)"><g clip-path="url(#eac0d8a8f5)"><g clip-path="url(#df57c8c427)"><g clip-path="url(#882fe9658d)"><path fill="#ffffff" d="M 316.796875 243.984375 L 302.726562 250.964844 C 303.550781 249.269531 314.960938 243.542969 316.796875 243.984375 Z M 316.796875 243.984375 " fill-opacity="1" fill-rule="nonzero"/></g></g></g></g><g clip-path="url(#7829676a27)"><g clip-path="url(#f21ff87412)"><g clip-path="url(#30f21d96f4)"><g clip-path="url(#1efb7b6e2a)"><path fill="#ffffff" d="M 339.054688 253.15625 L 330.226562 246.882812 L 330.382812 246.515625 C 330.730469 246.597656 331.148438 246.574219 331.414062 246.773438 C 333.964844 248.628906 336.5 250.523438 339.03125 252.414062 C 339.144531 252.523438 339.242188 252.644531 339.324219 252.777344 Z M 339.054688 253.15625 " fill-opacity="1" fill-rule="nonzero"/></g></g></g></g><g clip-path="url(#8542c83595)"><g clip-path="url(#0d9e839cae)"><g clip-path="url(#58e9009002)"><g clip-path="url(#5319bb6838)"><path fill="#ffffff" d="M 313 243.660156 C 309.566406 245.359375 306.050781 246.765625 302.316406 247.527344 C 305.753906 245.878906 309.160156 244.117188 313 243.660156 Z M 313 243.660156 " fill-opacity="1" fill-rule="nonzero"/></g></g></g></g><g clip-path="url(#23295c66e0)"><g clip-path="url(#8fcfb33c62)"><g clip-path="url(#e6e373d8bb)"><g clip-path="url(#e5d6f77de7)"><path fill="#ffffff" d="M 332.796875 245.417969 C 335.519531 246.984375 338.277344 248.492188 340.527344 250.746094 C 337.597656 249.5 334.9375 247.84375 332.796875 245.417969 Z M 332.796875 245.417969 " fill-opacity="1" fill-rule="nonzero"/></g></g></g></g><g clip-path="url(#a606f17eea)"><g clip-path="url(#d5000155f2)"><g clip-path="url(#28fde0991a)"><g clip-path="url(#5f392b9ed6)"><path fill="#ffffff" d="M 300.457031 244.929688 C 302.890625 243.035156 305.921875 242.574219 308.628906 241.347656 L 308.824219 241.8125 L 300.601562 245.277344 C 300.554688 245.164062 300.507812 245.046875 300.457031 244.929688 Z M 300.457031 244.929688 " fill-opacity="1" fill-rule="nonzero"/></g></g></g></g><g clip-path="url(#922f2efa30)"><g clip-path="url(#6f4ce035f3)"><g clip-path="url(#844f643a25)"><g clip-path="url(#ea99211b19)"><path fill="#ffffff" d="M 336.261719 244.273438 L 342.617188 248.417969 C 341.3125 248.660156 338.09375 246.644531 336.097656 244.558594 Z M 336.261719 244.273438 " fill-opacity="1" fill-rule="nonzero"/></g></g></g></g><g clip-path="url(#74e6e7d41e)"><g clip-path="url(#3ef816541b)"><g clip-path="url(#5ec3382fad)"><g clip-path="url(#2f7b00baa5)"><path fill="#ffffff" d="M 345.601562 253.355469 C 346.003906 255.058594 345.253906 256.78125 343.972656 257.191406 C 343.714844 255.601562 344.175781 254.351562 345.601562 253.355469 Z M 345.601562 253.355469 " fill-opacity="1" fill-rule="nonzero"/></g></g></g></g><g clip-path="url(#83a1971b63)"><g clip-path="url(#fd16f8d81b)"><g clip-path="url(#fd909339f4)"><g clip-path="url(#5b26b6d241)"><path fill="#ffffff" d="M 325.625 247.316406 C 324.945312 249.351562 324.269531 251.382812 323.59375 253.417969 L 323.0625 253.238281 C 323.347656 251.078125 324.589844 249.238281 325.144531 247.171875 Z M 325.625 247.316406 " fill-opacity="1" fill-rule="nonzero"/></g></g></g></g><g clip-path="url(#4a19fec201)"><g clip-path="url(#2bb6dc7182)"><g clip-path="url(#e2784fcb2c)"><g clip-path="url(#dd703a8c34)"><path fill="#ffffff" d="M 320.945312 251.691406 C 320.105469 250.867188 320.105469 250.867188 321.941406 247.207031 L 322.230469 247.292969 C 321.808594 248.738281 321.382812 250.183594 320.945312 251.691406 Z M 320.945312 251.691406 " fill-opacity="1" fill-rule="nonzero"/></g></g></g></g><g clip-path="url(#68fcac696d)"><g clip-path="url(#ac4a25cf74)"><g clip-path="url(#53552d9da4)"><g clip-path="url(#5eb64bc75f)"><path fill="#ffffff" d="M 319.964844 246.390625 L 317.90625 249.828125 L 317.300781 249.433594 L 319.542969 246.101562 Z M 319.964844 246.390625 " fill-opacity="1" fill-rule="nonzero"/></g></g></g></g><g clip-path="url(#eafd92cf9c)"><g clip-path="url(#cfadfabdff)"><g clip-path="url(#9a95b6c7d8)"><g clip-path="url(#c99134b9be)"><path fill="#ffffff" d="M 298.464844 253.214844 C 296.804688 252.695312 296.578125 251.785156 297.660156 250.414062 C 297.964844 251.476562 298.214844 252.34375 298.464844 253.214844 Z M 298.464844 253.214844 " fill-opacity="1" fill-rule="nonzero"/></g></g></g></g><g clip-path="url(#5a61d1843b)"><g clip-path="url(#a3b5b825bc)"><g clip-path="url(#da7938fe35)"><g clip-path="url(#6a591a2cc3)"><path fill="#ffffff" d="M 309.019531 238.183594 L 306.144531 235.480469 L 306.289062 235.109375 C 306.644531 235.230469 307.125 235.246094 307.339844 235.492188 C 308.011719 236.289062 308.601562 237.167969 309.226562 238.019531 Z M 309.019531 238.183594 " fill-opacity="1" fill-rule="nonzero"/></g></g></g></g><g clip-path="url(#5f5c9209cf)"><g clip-path="url(#116b91892a)"><g clip-path="url(#fb2c5f3bb4)"><g clip-path="url(#bf2e7238a8)"><path fill="#ffffff" d="M 323.453125 239.953125 L 324.699219 235.929688 L 325.101562 236.058594 C 324.710938 237.390625 324.316406 238.71875 323.921875 240.046875 Z M 323.453125 239.953125 " fill-opacity="1" fill-rule="nonzero"/></g></g></g></g><g clip-path="url(#704f104a63)"><g clip-path="url(#a3d026fc64)"><g clip-path="url(#e1c1d07e24)"><g clip-path="url(#5f44613c96)"><path fill="#ffffff" d="M 302.675781 231.375 L 300.894531 227.949219 L 301.226562 227.773438 L 303.082031 231.167969 Z M 302.675781 231.375 " fill-opacity="1" fill-rule="nonzero"/></g></g></g></g><g clip-path="url(#587a15dcaa)"><g clip-path="url(#6e3688542d)"><g clip-path="url(#efce5cac4b)"><g clip-path="url(#28110a4464)"><path fill="#ffffff" d="M 320.46875 205.011719 C 320.445312 205.320312 320.417969 205.621094 320.382812 205.90625 C 320.351562 206.195312 320.320312 206.449219 320.285156 206.667969 C 320.25 206.886719 320.21875 207.054688 320.1875 207.171875 C 320.15625 207.289062 320.128906 207.347656 320.105469 207.34375 C 320.078125 207.34375 320.0625 207.28125 320.046875 207.160156 C 320.035156 207.039062 320.03125 206.867188 320.03125 206.648438 C 320.03125 206.425781 320.039062 206.171875 320.050781 205.882812 C 320.066406 205.59375 320.082031 205.292969 320.109375 204.980469 C 320.132812 204.671875 320.160156 204.371094 320.191406 204.085938 C 320.222656 203.796875 320.257812 203.542969 320.292969 203.324219 C 320.324219 203.105469 320.359375 202.9375 320.390625 202.820312 C 320.421875 202.703125 320.449219 202.644531 320.472656 202.648438 C 320.496094 202.648438 320.515625 202.710938 320.527344 202.832031 C 320.539062 202.953125 320.546875 203.125 320.546875 203.34375 C 320.546875 203.566406 320.539062 203.820312 320.527344 204.109375 C 320.511719 204.398438 320.492188 204.699219 320.46875 205.011719 Z M 320.46875 205.011719 " fill-opacity="1" fill-rule="nonzero"/></g></g></g></g><g clip-path="url(#bb9fcd01b1)"><g clip-path="url(#fc5f708fb9)"><g clip-path="url(#a137821929)"><g clip-path="url(#5c5fabc15d)"><path fill="#ffffff" d="M 322.832031 197.753906 L 323.429688 200.449219 L 322.929688 200.566406 C 322.722656 199.679688 322.515625 198.796875 322.308594 197.914062 Z M 322.832031 197.753906 " fill-opacity="1" fill-rule="nonzero"/></g></g></g></g><g clip-path="url(#3770171bd2)"><g clip-path="url(#7ce4664da0)"><g clip-path="url(#83cfba4c01)"><g clip-path="url(#3415b47626)"><path fill="#000000" d="M 319.925781 224.828125 C 319.625 222.613281 319.742188 220.464844 320.96875 218.507812 L 321.449219 218.589844 C 321.097656 220.6875 320.75 222.785156 320.402344 224.886719 Z M 319.925781 224.828125 " fill-opacity="1" fill-rule="nonzero"/></g></g></g></g><g clip-path="url(#66da07f438)"><g clip-path="url(#71d1f44591)"><g clip-path="url(#541c9f15af)"><g clip-path="url(#713f2fa4b0)"><path fill="#000000" d="M 311.582031 228.25 L 312.945312 234.269531 L 312.589844 234.359375 C 311.160156 232.617188 310.902344 230.550781 311.035156 228.382812 Z M 311.582031 228.25 " fill-opacity="1" fill-rule="nonzero"/></g></g></g></g><g clip-path="url(#290daeaeac)"><g clip-path="url(#38416e9492)"><g clip-path="url(#824b3df919)"><g clip-path="url(#afb4e952a1)"><path fill="#000000" d="M 329.085938 240 C 330.667969 238.753906 330.859375 236.503906 332.777344 235.511719 C 332.914062 237.207031 330.414062 240.355469 329.085938 240 Z M 329.085938 240 " fill-opacity="1" fill-rule="nonzero"/></g></g></g></g><g clip-path="url(#fb90f3efd4)"><g clip-path="url(#fe6b60fe5a)"><g clip-path="url(#3fa4b38338)"><g clip-path="url(#c5a9e3370b)"><path fill="#000000" d="M 323.003906 219.285156 C 323.269531 217.308594 323.542969 215.335938 323.839844 213.160156 C 324.640625 214.75 324.382812 217.121094 323.003906 219.285156 Z M 323.003906 219.285156 " fill-opacity="1" fill-rule="nonzero"/></g></g></g></g><g clip-path="url(#ecd7456a59)"><g clip-path="url(#f38395c78f)"><g clip-path="url(#74bc06387e)"><g clip-path="url(#1d268ee7ee)"><path fill="#000000" d="M 330.753906 226.789062 C 331.003906 225.320312 331.257812 223.847656 331.507812 222.371094 L 332.167969 222.496094 L 331.332031 226.890625 Z M 330.753906 226.789062 " fill-opacity="1" fill-rule="nonzero"/></g></g></g></g><g clip-path="url(#12b289dcc7)"><g clip-path="url(#08c511d168)"><g clip-path="url(#53b7ac46c3)"><g clip-path="url(#ac3cb940ff)"><path fill="#000000" d="M 310.84375 222.820312 C 311.222656 224.089844 311.992188 225.285156 311.851562 226.675781 L 311.273438 226.816406 C 310.9375 225.519531 310.597656 224.230469 310.257812 222.945312 Z M 310.84375 222.820312 " fill-opacity="1" fill-rule="nonzero"/></g></g></g></g><g clip-path="url(#0ad31543c0)"><g clip-path="url(#f43feeb7f7)"><g clip-path="url(#443d0b3d18)"><g clip-path="url(#3665982aa8)"><path fill="#000000" d="M 336.691406 233.746094 C 336.039062 234.519531 335.386719 235.285156 334.742188 236.042969 L 334.3125 235.660156 L 336.34375 233.390625 Z M 336.691406 233.746094 " fill-opacity="1" fill-rule="nonzero"/></g></g></g></g><g clip-path="url(#24c56efc01)"><g clip-path="url(#5a9360ec97)"><g clip-path="url(#9790ecbd12)"><g clip-path="url(#66e68389cd)"><path fill="#000000" d="M 330.707031 231.832031 C 331.050781 231.121094 331.398438 230.410156 331.746094 229.699219 L 332.191406 229.90625 C 331.875 230.640625 331.558594 231.375 331.242188 232.109375 Z M 330.707031 231.832031 " fill-opacity="1" fill-rule="nonzero"/></g></g></g></g><g clip-path="url(#fbc65866a4)"><g clip-path="url(#f2eada1c4f)"><g clip-path="url(#cd8c7ec5a8)"><g clip-path="url(#2eef953d09)"><path fill="#000000" d="M 319.601562 256.746094 C 319.503906 257.964844 318.328125 258.511719 317.003906 257.953125 C 316.03125 257.542969 314.859375 255.632812 315.148438 254.921875 C 315.511719 254.023438 316.613281 253.863281 318.167969 254.472656 C 318.394531 254.554688 318.605469 254.667969 318.796875 254.820312 C 318.988281 254.96875 319.148438 255.148438 319.28125 255.355469 C 319.410156 255.5625 319.503906 255.785156 319.558594 256.023438 C 319.613281 256.261719 319.628906 256.503906 319.601562 256.746094 Z M 319.601562 256.746094 " fill-opacity="1" fill-rule="nonzero"/></g></g></g></g></svg>